<svg width="284" height="294" viewBox="0 0 284 294" fill="none" xmlns="http://www.w3.org/2000/svg">
<g clip-path="url(#clip0_1033_8792)">
<path d="M33.8764 188.211L23.7065 188.417L18.5529 188.486C16.835 188.486 15.1171 188.486 13.3992 188.554H13.1244V188.28L13.0557 179.621V179.278H13.3992L23.6378 179.347C27.0736 179.347 30.5093 179.415 33.8764 179.484H34.0825V179.69C34.0825 181.133 34.0138 182.645 34.0138 184.088L33.8764 188.211ZM33.8764 188.211L33.8077 183.813C33.8077 182.37 33.7389 180.927 33.7389 179.484L33.9451 179.69C30.5093 179.759 27.0736 179.828 23.7065 179.828L13.468 179.896L13.8115 179.553L13.7428 188.211L13.468 187.936C15.1858 187.936 16.835 187.936 18.5529 188.005L23.6378 188.073L33.8764 188.211Z" fill="#EBEBEB"/>
<path d="M22.4008 199.137L12.2309 199.343L7.0773 199.411C5.35942 199.411 3.64153 199.411 1.92365 199.48H1.64879V199.205L1.58008 190.547V190.204H1.92365L12.1622 190.272C15.598 190.272 19.0337 190.341 22.4008 190.41H22.6069V190.616C22.6069 192.059 22.5382 193.571 22.5382 195.014L22.4008 199.137ZM22.4008 199.137L22.3321 194.739C22.3321 193.296 22.2634 191.853 22.2634 190.41L22.4695 190.616C19.0337 190.685 15.598 190.753 12.2309 190.753L1.99237 190.822L2.33595 190.478L2.26723 199.137L1.99237 198.862C3.71025 198.862 5.35942 198.862 7.0773 198.93L12.1622 198.999L22.4008 199.137Z" fill="#EBEBEB"/>
<path d="M22.4011 11.2693L12.2313 11.4754L7.07765 11.5441C5.35977 11.5441 3.64189 11.5441 1.92401 11.6128H1.64915V11.338L1.51172 2.61115V2.26758H1.85529L12.0939 2.33629C15.5296 2.33629 18.9654 2.40501 22.3324 2.47372H22.5386V2.67987C22.5386 4.12289 22.4699 5.63462 22.4699 7.07764L22.4011 11.2693ZM22.4011 11.2693L22.2637 6.8715C22.2637 5.42848 22.195 3.98546 22.195 2.54244L22.4011 2.74858C18.9654 2.8173 15.5296 2.88601 12.1626 2.88601L1.85529 2.95473L2.19887 2.61115L2.13016 11.2693L1.85529 10.9944C3.57318 10.9944 5.22234 10.9944 6.94022 11.0631L12.0251 11.1318L22.4011 11.2693Z" fill="#EBEBEB"/>
<path d="M282.144 11.2689L271.974 11.4751L266.82 11.5438C265.103 11.5438 263.385 11.5438 261.667 11.6125H261.392V11.3376L261.323 2.67951V2.33594H261.667L271.905 2.40465C275.341 2.40465 278.777 2.47337 282.144 2.54208H282.35V2.74823C282.35 4.19125 282.281 5.70298 282.281 7.146L282.144 11.2689ZM282.144 11.2689L282.075 6.87114C282.075 5.42812 282.007 3.9851 282.007 2.54208L282.213 2.74823C278.777 2.81694 275.341 2.88566 271.974 2.88566L261.736 2.95437L262.079 2.6108L262.01 11.2689L261.736 10.9941C263.453 10.9941 265.103 10.9941 266.82 11.0628L271.905 11.1315L282.144 11.2689Z" fill="#EBEBEB"/>
<path d="M270.67 22.1952L260.5 22.4013L255.347 22.47C253.629 22.47 251.911 22.47 250.193 22.5388H249.918V22.2639L249.85 13.6058V13.2622H250.193L260.432 13.3309C263.868 13.3309 267.303 13.3996 270.67 13.4684H270.876V13.6745C270.876 15.1175 270.808 16.6293 270.808 18.0723L270.67 22.1952ZM270.67 22.1952L270.602 17.7974C270.602 16.3544 270.533 14.9114 270.533 13.4684L270.739 13.6745C267.303 13.7432 263.868 13.8119 260.5 13.8119L250.124 13.8806L250.468 13.5371L250.399 22.1952L250.124 21.9203C251.842 21.9203 253.492 21.9203 255.209 21.989L260.294 22.0578L270.67 22.1952Z" fill="#EBEBEB"/>
<path d="M218.034 123.756L207.864 123.962L202.71 124.031C200.992 124.031 199.274 124.031 197.556 124.099H197.282V123.824L197.213 115.166V114.823H197.556L207.795 114.891C211.231 114.891 214.667 114.96 218.034 115.029H218.24V115.235C218.24 116.678 218.171 118.19 218.171 119.633L218.034 123.756ZM218.034 123.756L217.965 119.358C217.965 117.915 217.896 116.472 217.896 115.029L218.102 115.235C214.667 115.304 211.231 115.372 207.864 115.372L197.625 115.441L197.969 115.098L197.9 123.756L197.625 123.481C199.343 123.481 200.992 123.481 202.71 123.55L207.795 123.618L218.034 123.756Z" fill="#EBEBEB"/>
<path d="M206.558 134.75L196.388 134.956L191.235 135.025C189.517 135.025 187.799 135.025 186.081 135.094H185.806V134.819L185.737 126.161V125.817H186.081L196.319 125.886C199.755 125.886 203.191 125.955 206.558 126.024H206.764V126.23C206.764 127.673 206.695 129.184 206.695 130.627L206.558 134.75ZM206.558 134.75L206.489 130.353C206.489 128.91 206.421 127.467 206.421 126.024L206.627 126.23C203.191 126.298 199.755 126.367 196.388 126.367L186.15 126.436L186.493 126.092L186.424 134.75L186.15 134.475C187.867 134.475 189.517 134.475 191.235 134.544L196.319 134.613L206.558 134.75Z" fill="#EBEBEB"/>
<path d="M195.151 123.756L184.981 123.962L179.827 124.031C178.109 124.031 176.392 124.031 174.674 124.099H174.399V123.824L174.33 115.166V114.823H174.674L184.912 114.891C188.348 114.891 191.784 114.96 195.151 115.029H195.357V115.235C195.357 116.678 195.288 118.19 195.288 119.633L195.151 123.756ZM195.151 123.756L195.082 119.358C195.082 117.915 195.013 116.472 195.013 115.029L195.22 115.235C191.784 115.304 188.348 115.372 184.981 115.372L174.742 115.441L175.086 115.098L175.017 123.756L174.742 123.481C176.46 123.481 178.109 123.481 179.827 123.55L184.912 123.618L195.151 123.756Z" fill="#EBEBEB"/>
<path d="M282.144 199.137L271.974 199.343L266.82 199.411C265.103 199.411 263.385 199.411 261.667 199.48H261.392V199.205L261.323 190.547V190.204H261.667L271.905 190.272C275.341 190.272 278.777 190.341 282.144 190.41H282.35V190.616C282.35 192.059 282.281 193.571 282.281 195.014L282.144 199.137ZM282.144 199.137L282.075 194.739C282.075 193.296 282.007 191.853 282.007 190.41L282.213 190.616C278.777 190.685 275.341 190.753 271.974 190.753L261.736 190.822L262.079 190.478L262.01 199.137L261.736 198.862C263.453 198.862 265.103 198.862 266.82 198.93L271.905 198.999L282.144 199.137Z" fill="#EBEBEB"/>
<path d="M107.608 37.1063L97.438 37.3125L92.2843 37.3812C90.5664 37.3812 88.8486 37.3812 87.1307 37.4499H86.8558V37.175L86.7871 28.5169V28.1733H87.1307L97.3692 28.2421C100.805 28.2421 104.241 28.3108 107.608 28.3795H107.814V28.5856C107.814 30.0286 107.745 31.5404 107.745 32.9834L107.608 37.1063ZM107.608 37.1063L107.539 32.7085C107.539 31.2655 107.47 29.8225 107.47 28.3795L107.677 28.5856C104.241 28.6543 100.805 28.7231 97.438 28.7231L87.1994 28.7918L87.543 28.4482L87.3368 37.1063L87.062 36.8315C88.7798 36.8315 90.429 36.8315 92.1469 36.9002L97.2318 36.9689L107.608 37.1063Z" fill="#EBEBEB"/>
<path d="M261.05 94.6208L265.104 88.0928L263.111 86.856C262.493 86.5124 262.218 85.8252 262.287 85.1381C262.287 84.7258 262.356 84.3822 262.356 83.9699C262.356 83.2828 262.699 82.6643 263.318 82.3207L265.379 81.2213L261.737 74.4872L259.676 75.5867C259.057 75.9302 258.301 75.8615 257.752 75.4492C257.408 75.2431 257.133 75.0369 256.79 74.8308C256.171 74.4872 255.828 73.8688 255.828 73.1816L255.896 70.8453L248.2 70.6392L248.132 72.9755C248.132 73.6626 247.719 74.2811 247.032 74.5559C246.895 74.6246 246.688 74.6934 246.551 74.8308C246.414 74.8995 246.207 75.0369 246.07 75.1056C245.452 75.4492 244.764 75.4492 244.146 75.1056L242.153 73.8688L238.099 80.3967L240.092 81.6336C240.71 81.9772 240.985 82.6643 240.916 83.3515C240.916 83.7638 240.848 84.1073 240.848 84.5196C240.848 85.2068 240.504 85.8252 239.886 86.1688L237.824 87.2682L241.466 94.0023L243.528 92.9029C244.146 92.5593 244.833 92.628 245.452 93.0403C245.795 93.2465 246.07 93.4526 246.414 93.6588C247.032 94.0023 247.376 94.6208 247.376 95.3079L247.307 97.6442L255.003 97.8504L255.072 95.5141C255.072 94.8269 255.484 94.2085 256.171 93.9336C256.309 93.8649 256.515 93.7962 256.652 93.6588C256.79 93.59 256.996 93.4526 257.133 93.3839C257.752 93.0403 258.439 92.9716 259.057 93.3839L261.05 94.6208ZM254.522 89.742C251.43 91.3912 247.65 90.223 246.001 87.1995C244.352 84.1073 245.52 80.328 248.544 78.6788C251.636 77.0297 255.415 78.1978 257.064 81.2213C258.714 84.3135 257.614 88.0928 254.522 89.742Z" fill="#EBEBEB"/>
<path d="M39.9923 168.489L44.0465 161.961L42.0538 160.725C41.4354 160.381 41.1605 159.694 41.2292 159.007C41.2292 158.594 41.2979 158.251 41.2979 157.839C41.2979 157.151 41.6415 156.533 42.2599 156.189L44.3214 155.09L40.6795 148.356L38.618 149.455C37.9996 149.799 37.2437 149.73 36.694 149.318C36.3504 149.112 36.0756 148.906 35.732 148.699C35.1136 148.356 34.77 147.737 34.77 147.05L34.8387 144.714L27.1426 144.508L27.0739 146.844C27.0739 147.531 26.6616 148.15 25.9744 148.425C25.837 148.493 25.6309 148.562 25.4934 148.699C25.356 148.768 25.1499 148.906 25.0124 148.974C24.394 149.318 23.7068 149.318 23.0884 148.974L21.0957 147.737L17.0415 154.265L19.0342 155.502C19.6526 155.846 19.9275 156.533 19.8588 157.22C19.8588 157.632 19.7901 157.976 19.7901 158.388C19.7901 159.075 19.4465 159.694 18.8281 160.037L16.7666 161.137L20.4085 167.871L22.47 166.772C23.0884 166.428 23.7756 166.497 24.394 166.909C24.7376 167.115 25.0124 167.321 25.356 167.527C25.9744 167.871 26.318 168.489 26.318 169.177L26.2493 171.513L33.9454 171.719L34.0141 169.383C34.0141 168.696 34.4264 168.077 35.1136 167.802C35.251 167.734 35.4571 167.665 35.5946 167.527C35.732 167.459 35.9381 167.321 36.0756 167.253C36.694 166.909 37.3812 166.84 37.9996 167.253L39.9923 168.489ZM33.4644 163.679C30.3722 165.329 26.5929 164.16 24.9437 161.137C23.2945 158.045 24.4627 154.265 27.4862 152.616C30.5784 150.967 34.3577 152.135 36.0069 155.159C37.656 158.182 36.5566 162.03 33.4644 163.679Z" fill="#EBEBEB"/>
<path d="M118.533 43.5653L115.854 38.8927L114.411 39.7173C113.998 39.9921 113.449 39.9234 113.036 39.6486C112.83 39.5111 112.555 39.3737 112.349 39.2363C111.937 39.0301 111.662 38.5491 111.662 38.0681V36.4189H106.302V38.0681C106.302 38.5491 106.027 38.9614 105.615 39.2363C105.409 39.3737 105.134 39.5111 104.928 39.6486C104.516 39.9234 104.035 39.9234 103.554 39.7173L102.111 38.8927L99.4307 43.5653L100.874 44.3899C101.286 44.6648 101.492 45.0771 101.492 45.5581C101.492 45.6955 101.492 45.8329 101.492 45.9704C101.492 46.1078 101.492 46.2452 101.492 46.3827C101.492 46.8637 101.286 47.3447 100.874 47.5508L99.4307 48.3754L102.111 53.048L103.554 52.2234C103.966 51.9486 104.516 52.0173 104.928 52.2922C105.134 52.4296 105.409 52.567 105.615 52.7045C106.027 52.9106 106.302 53.3916 106.302 53.8726V55.5218H111.662V53.8726C111.662 53.3916 111.937 52.9793 112.349 52.7045C112.555 52.567 112.83 52.4296 113.036 52.2922C113.449 52.0173 113.93 52.0173 114.411 52.2234L115.854 53.048L118.533 48.3754L117.09 47.5508C116.678 47.2759 116.472 46.8637 116.472 46.3827C116.472 46.2452 116.472 46.1078 116.472 45.9704C116.472 45.8329 116.472 45.6955 116.472 45.5581C116.472 45.0771 116.678 44.5961 117.09 44.3899L118.533 43.5653ZM113.38 45.9704C113.38 48.3754 111.387 50.3681 108.982 50.3681C106.577 50.3681 104.584 48.3754 104.584 45.9704C104.584 43.5653 106.577 41.5726 108.982 41.5726C111.387 41.5726 113.38 43.5653 113.38 45.9704Z" fill="#EBEBEB"/>
<path d="M31.2657 179.004C22.264 187.799 20.7522 201.405 22.6763 213.293C22.745 213.568 23.1573 213.499 23.1573 213.224C23.1573 210.544 23.0886 207.795 23.0886 205.116C23.1573 204.978 23.1573 204.909 23.226 204.772C25.5623 203.054 27.6925 201.13 29.0668 198.519C30.5785 195.564 31.1282 192.266 32.2964 189.174C32.4338 188.899 32.0903 188.967 31.8841 189.105C26.4556 193.159 24.669 197.488 23.0886 203.26C23.1573 200.237 23.3634 197.213 24.0506 194.259C25.2187 188.761 27.5551 183.333 31.5405 179.21C31.6093 179.141 31.4031 178.866 31.2657 179.004Z" fill="#263238"/>
<path d="M32.9152 180.034C34.4269 180.103 35.4577 182.577 36.6258 183.264C37.2443 183.676 37.8627 183.608 38.3437 182.989C39.5119 181.34 37.9314 179.278 36.351 178.11C37.4504 178.591 38.3437 179.347 39.5806 179.553C40.2677 179.691 40.8862 179.416 41.0236 178.66C41.5733 176.392 38.6873 175.362 36.7633 175.362C37.7253 174.675 40.4052 172.888 38.9621 172.063C37.5191 171.17 34.2895 173.713 33.2588 174.606C31.747 175.843 29.8917 177.698 29.823 179.622C29.7543 181.958 31.747 180.515 32.9152 180.034Z" fill="#21A092"/>
<path opacity="0.1" d="M32.9152 180.034C34.4269 180.103 35.4577 182.577 36.6258 183.264C37.2443 183.676 37.8627 183.608 38.3437 182.989C39.5119 181.34 37.9314 179.278 36.351 178.11C37.4504 178.591 38.3437 179.347 39.5806 179.553C40.2677 179.691 40.8862 179.416 41.0236 178.66C41.5733 176.392 38.6873 175.362 36.7633 175.362C37.7253 174.675 40.4052 172.888 38.9621 172.063C37.5191 171.17 34.2895 173.713 33.2588 174.606C31.747 175.843 29.8917 177.698 29.823 179.622C29.7543 181.958 31.747 180.515 32.9152 180.034Z" fill="black"/>
<path d="M32.5034 180.447C34.4961 179.553 38.2755 180.859 38.619 180.103C39.3062 178.591 36.214 177.561 34.6335 177.354C36.1453 176.942 39.0313 176.324 38.9626 174.812C38.8252 173.025 34.5648 174.537 32.3659 176.255C29.6173 178.385 29.6173 180.378 30.0983 180.79C30.5793 181.34 32.1598 180.584 32.5034 180.447Z" fill="#21A092"/>
<path d="M10.7883 178.179C20.0649 186.631 22.1263 200.168 20.6833 212.124C20.6146 212.399 20.2023 212.33 20.2023 212.055C20.0649 209.375 20.0649 206.627 19.9962 203.947C19.9274 203.809 19.9274 203.741 19.8587 203.603C17.4537 202.023 15.2548 200.167 13.8118 197.556C12.2313 194.67 11.4755 191.372 10.2386 188.348C10.1012 188.074 10.4447 188.142 10.6509 188.28C16.2855 192.128 18.1408 196.388 19.9274 202.092C19.7213 199.068 19.3777 196.113 18.6218 193.09C17.2475 187.661 14.7051 182.302 10.5822 178.385C10.376 178.247 10.6509 178.041 10.7883 178.179Z" fill="#263238"/>
<path d="M9.1387 179.278C7.62697 179.415 6.73367 181.889 5.56551 182.645C4.94708 183.057 4.32864 183.057 3.84763 182.439C2.61076 180.79 4.12249 178.728 5.63423 177.491C4.53478 177.972 3.64149 178.797 2.47333 179.072C1.78618 179.209 1.16774 179.003 1.03031 178.247C0.411871 175.979 3.22919 174.88 5.15322 174.743C4.19121 174.124 1.37388 172.406 2.8169 171.513C4.25992 170.551 7.55825 173.025 8.58898 173.781C10.1694 174.949 12.0247 176.735 12.1622 178.659C12.3683 180.996 10.3756 179.69 9.1387 179.278Z" fill="#21A092"/>
<path opacity="0.1" d="M9.1387 179.278C7.62697 179.415 6.73367 181.889 5.56551 182.645C4.94708 183.057 4.32864 183.057 3.84763 182.439C2.61076 180.79 4.12249 178.728 5.63423 177.491C4.53478 177.972 3.64149 178.797 2.47333 179.072C1.78618 179.209 1.16774 179.003 1.03031 178.247C0.411871 175.979 3.22919 174.88 5.15322 174.743C4.19121 174.124 1.37388 172.406 2.8169 171.513C4.25992 170.551 7.55825 173.025 8.58898 173.781C10.1694 174.949 12.0247 176.735 12.1622 178.659C12.3683 180.996 10.3756 179.69 9.1387 179.278Z" fill="black"/>
<path d="M9.61932 179.622C7.62658 178.797 3.84724 180.24 3.50367 179.484C2.81652 177.972 5.77127 176.804 7.42044 176.598C5.9087 176.255 2.95395 175.705 3.02266 174.262C3.09138 172.475 7.42044 173.85 9.68804 175.43C12.5054 177.423 12.5741 179.484 12.1618 179.896C11.5434 180.446 9.9629 179.759 9.61932 179.622Z" fill="#21A092"/>
<path d="M20.3399 200.442C21.0271 204.909 21.8517 209.513 23.226 213.773C23.3634 214.185 23.9131 214.048 23.8444 213.636C23.226 209.513 22.1265 205.459 21.5081 201.336C20.8897 197.144 20.5461 192.952 20.8209 188.761C21.2332 181.821 23.0885 174.468 27.6237 169.04C27.6925 168.902 27.4863 168.696 27.4176 168.833C18.3472 179.416 19.7902 192.334 19.7902 193.502C18.4846 189.104 17.179 184.088 12.369 179.69C12.1628 179.484 12.0254 179.622 12.0254 179.897C12.9187 188.005 15.1176 192.265 19.8589 196.594C19.9276 197.9 20.1338 199.206 20.3399 200.442Z" fill="#263238"/>
<path d="M27.6919 170.276C29.341 169.521 31.5399 171.651 33.1891 171.788C34.0137 171.857 34.7008 171.513 34.8382 170.62C35.2505 168.284 32.5019 166.978 30.303 166.566C31.6773 166.497 33.0516 166.841 34.3572 166.497C35.1818 166.291 35.5941 165.741 35.388 164.848C34.7695 162.237 31.3338 162.58 29.2723 163.542C29.8907 162.374 31.8148 159.145 29.8907 158.938C27.898 158.732 25.9053 162.993 25.2868 164.436C24.3248 166.497 23.3628 169.314 24.2561 171.376C25.3555 173.85 26.6611 171.376 27.6919 170.276Z" fill="#21A092"/>
<path opacity="0.1" d="M27.6919 170.276C29.341 169.521 31.5399 171.651 33.1891 171.788C34.0137 171.857 34.7008 171.513 34.8382 170.62C35.2505 168.284 32.5019 166.978 30.303 166.566C31.6773 166.497 33.0516 166.841 34.3572 166.497C35.1818 166.291 35.5941 165.741 35.388 164.848C34.7695 162.237 31.3338 162.58 29.2723 163.542C29.8907 162.374 31.8148 159.145 29.8907 158.938C27.898 158.732 25.9053 162.993 25.2868 164.436C24.3248 166.497 23.3628 169.314 24.2561 171.376C25.3555 173.85 26.6611 171.376 27.6919 170.276Z" fill="black"/>
<path d="M27.4169 170.895C28.9973 168.971 33.6012 168.421 33.5325 167.459C33.4638 165.535 29.7532 166.016 27.9666 166.634C29.3409 165.466 32.0208 163.336 31.1962 161.893C30.1655 160.106 26.4549 163.886 25.0806 166.703C23.294 170.276 24.3247 172.406 25.0118 172.613C25.9051 172.819 27.142 171.238 27.4169 170.895Z" fill="#21A092"/>
<path d="M14.3615 202.916L10.376 233.426H34.7012C34.2202 230.746 29.685 202.848 29.685 202.848L14.3615 202.916Z" fill="#21A092"/>
<path d="M0 233.494L35.5258 233.357L70.9828 233.288L141.966 233.15L212.948 233.288L248.474 233.357L284 233.494L248.474 233.7L212.948 233.769L141.966 233.838L70.9828 233.769L35.5258 233.7L0 233.494Z" fill="#263238"/>
<path d="M141.966 293.277C198.55 293.277 244.421 286.785 244.421 278.778C244.421 270.77 198.55 264.279 141.966 264.279C85.3821 264.279 39.5117 270.77 39.5117 278.778C39.5117 286.785 85.3821 293.277 141.966 293.277Z" fill="#EBEBEB"/>
<path d="M78.4735 126.711L74.2131 109.944L40.5427 118.534L36.0762 101.011L63.0125 39.6488L76.3433 36.2817L89.3305 87.2684L100.119 84.5198L104.585 102.18L93.797 104.928L98.0573 121.695L78.4735 126.711ZM55.3851 95.9266L72.0829 91.6662L66.5857 69.9522L55.3851 95.9266Z" fill="#263238"/>
<path d="M174.949 70.6392C174.949 76.2052 174.124 81.2901 172.407 86.0314C170.689 90.7041 168.421 94.7583 165.466 98.194C162.512 101.63 159.007 104.241 155.022 106.165C151.036 108.089 146.638 108.982 141.966 108.982C137.224 108.982 132.895 108.02 128.841 106.165C124.787 104.241 121.282 101.63 118.328 98.194C115.373 94.7583 113.105 90.7041 111.456 86.0314C109.807 81.3588 108.982 76.2052 108.982 70.6392C108.982 65.0733 109.807 59.9884 111.456 55.247C113.105 50.5744 115.373 46.5202 118.328 43.0844C121.282 39.6487 124.787 36.9688 128.841 35.0447C132.895 33.1207 137.293 32.1587 141.966 32.1587C146.707 32.1587 151.036 33.1207 155.022 35.0447C159.007 36.9688 162.512 39.6487 165.466 43.0844C168.421 46.5202 170.757 50.5744 172.407 55.247C174.124 59.9884 174.949 65.0733 174.949 70.6392ZM154.609 70.6392C154.609 64.7297 153.441 59.9884 151.036 56.2777C148.7 52.6358 145.676 50.7805 141.966 50.7805C138.118 50.7805 134.957 52.6358 132.689 56.2777C130.353 59.9196 129.185 64.7297 129.185 70.6392C129.185 76.5487 130.353 81.2901 132.689 84.932C135.025 88.5739 138.118 90.3605 141.966 90.3605C145.676 90.3605 148.7 88.5739 151.036 84.932C153.441 81.2901 154.609 76.5487 154.609 70.6392Z" fill="#263238"/>
<path d="M211.3 123.482L214.049 106.371L179.76 100.805L182.646 82.9395L231.777 37.3813L245.383 39.5802L236.931 91.5977L247.925 93.3842L245.039 111.388L234.045 109.601L231.296 126.711L211.3 123.482ZM202.367 86.0317L219.34 88.7803L222.913 66.7227L202.367 86.0317Z" fill="#263238"/>
<path d="M113.587 20.065C112.144 20.065 110.838 19.7901 109.67 19.2404C108.502 18.6907 107.471 17.9348 106.646 16.9728C105.822 16.0108 105.135 14.9801 104.722 13.7432C104.241 12.5063 104.035 11.3381 104.035 10.0326C104.035 8.72697 104.31 7.49009 104.791 6.25322C105.272 5.01634 105.959 3.98562 106.784 3.09232C107.677 2.19902 108.639 1.44315 109.876 0.89343C111.044 0.343708 112.35 0.0688477 113.724 0.0688477C115.167 0.0688477 116.473 0.343709 117.641 0.962146C118.809 1.51187 119.84 2.33645 120.664 3.22975C121.489 4.19176 122.176 5.22249 122.588 6.45936C123.069 7.69624 123.275 8.8644 123.275 10.1013C123.275 11.4069 123.001 12.6437 122.52 13.8806C122.039 15.0488 121.351 16.1482 120.527 17.0415C119.702 17.9348 118.672 18.6907 117.503 19.2404C116.266 19.7901 114.961 20.065 113.587 20.065ZM107.883 10.0326C107.883 10.8571 108.021 11.6817 108.296 12.5063C108.57 13.3309 108.914 14.018 109.395 14.6365C109.876 15.2549 110.494 15.7359 111.182 16.0795C111.869 16.4231 112.693 16.6292 113.587 16.6292C114.48 16.6292 115.304 16.4231 116.06 16.0795C116.747 15.6672 117.366 15.1862 117.847 14.5678C118.328 13.9493 118.74 13.2622 118.946 12.4376C119.221 11.6817 119.29 10.8571 119.29 10.0326C119.29 9.20797 119.153 8.38339 118.878 7.55881C118.603 6.73422 118.259 6.04707 117.709 5.42864C117.228 4.8102 116.61 4.32919 115.923 3.98562C115.236 3.64204 114.411 3.43589 113.518 3.43589C112.625 3.43589 111.8 3.64204 111.044 3.98562C110.288 4.39791 109.739 4.87891 109.258 5.49735C108.777 6.11579 108.433 6.80294 108.158 7.62752C108.021 8.4521 107.883 9.20797 107.883 10.0326Z" fill="#263238"/>
<path d="M132.552 20.2023C131.384 20.2023 130.285 19.9962 129.391 19.5839C128.429 19.1716 127.673 18.6219 126.986 17.9347C126.299 17.2476 125.818 16.423 125.475 15.5297C125.131 14.6364 124.925 13.6744 124.925 12.6436C124.925 11.6129 125.131 10.6509 125.475 9.7576C125.818 8.8643 126.299 8.03972 126.986 7.35256C127.673 6.66541 128.429 6.11569 129.391 5.7034C130.353 5.29111 131.384 5.08496 132.552 5.08496C133.72 5.08496 134.82 5.29111 135.713 5.7034C136.675 6.11569 137.431 6.66541 138.118 7.35256C138.805 8.03972 139.286 8.8643 139.63 9.7576C139.973 10.6509 140.18 11.6129 140.18 12.6436C140.18 13.6744 139.973 14.5677 139.63 15.5297C139.286 16.423 138.805 17.2476 138.118 17.9347C137.5 18.6219 136.675 19.1716 135.713 19.5839C134.751 19.9962 133.72 20.2023 132.552 20.2023ZM128.704 12.6436C128.704 13.2621 128.773 13.8805 128.979 14.4302C129.185 14.98 129.46 15.3922 129.804 15.8045C130.147 16.2168 130.559 16.4917 131.04 16.6978C131.521 16.904 132.002 17.0414 132.552 17.0414C133.102 17.0414 133.583 16.904 134.064 16.6978C134.545 16.4917 134.957 16.2168 135.301 15.8045C135.644 15.3922 135.919 14.98 136.125 14.4302C136.332 13.8805 136.4 13.3308 136.4 12.6436C136.4 12.0252 136.332 11.4068 136.125 10.9258C135.919 10.376 135.644 9.89503 135.301 9.55145C134.957 9.13916 134.545 8.8643 134.064 8.65815C133.583 8.45201 133.102 8.31458 132.552 8.31458C132.002 8.31458 131.521 8.45201 131.04 8.65815C130.559 8.8643 130.147 9.20787 129.804 9.55145C129.46 9.96374 129.185 10.376 128.979 10.9258C128.842 11.4755 128.704 12.0252 128.704 12.6436Z" fill="#263238"/>
<path d="M151.311 20.2023C150.143 20.2023 149.181 19.9274 148.287 19.4464C147.463 18.9654 146.776 18.2783 146.295 17.385V25.837H142.584V5.35982H145.814V7.83357C146.363 7.00899 147.05 6.32183 147.875 5.84083C148.7 5.35982 149.73 5.08496 150.83 5.08496C151.792 5.08496 152.685 5.29111 153.578 5.7034C154.403 6.11569 155.159 6.66541 155.709 7.28385C156.327 7.971 156.808 8.72687 157.152 9.68888C157.495 10.5822 157.633 11.5442 157.633 12.5749C157.633 13.6056 157.495 14.6364 157.152 15.5297C156.808 16.423 156.396 17.2476 155.846 17.9347C155.296 18.6219 154.609 19.1716 153.853 19.5152C153.097 19.9962 152.273 20.2023 151.311 20.2023ZM150.074 17.0414C150.624 17.0414 151.173 16.904 151.586 16.6978C152.067 16.4917 152.479 16.1481 152.823 15.7358C153.166 15.3235 153.441 14.8425 153.578 14.2928C153.785 13.7431 153.853 13.1934 153.853 12.6436C153.853 12.0252 153.785 11.4755 153.578 10.9258C153.372 10.376 153.097 9.96374 152.754 9.55145C152.41 9.13916 151.998 8.8643 151.448 8.65815C150.967 8.45201 150.418 8.31458 149.868 8.31458C149.524 8.31458 149.181 8.38329 148.768 8.52072C148.425 8.65815 148.081 8.79558 147.738 9.00173C147.394 9.20787 147.119 9.48273 146.913 9.7576C146.638 10.0325 146.501 10.376 146.363 10.7196V14.1554C146.707 14.98 147.188 15.6671 147.875 16.2168C148.562 16.7665 149.318 17.0414 150.074 17.0414Z" fill="#263238"/>
<path d="M165.741 20.2024C164.504 20.2024 163.336 19.9963 162.168 19.6527C161 19.2404 159.969 18.6907 159.145 18.0036L160.519 15.6672C161.412 16.2857 162.305 16.7667 163.13 17.1103C163.955 17.4538 164.779 17.5913 165.672 17.5913C166.428 17.5913 166.978 17.4538 167.39 17.179C167.803 16.9041 168.009 16.4918 168.009 16.0108C168.009 15.4611 167.734 15.1175 167.253 14.8427C166.772 14.5678 165.947 14.2929 164.779 14.0181C163.817 13.7432 163.061 13.5371 162.374 13.2622C161.687 13.0561 161.137 12.7812 160.794 12.4376C160.381 12.1628 160.107 11.7505 159.9 11.4069C159.694 10.9946 159.626 10.5136 159.626 9.96387C159.626 9.20801 159.763 8.58957 160.038 7.97113C160.313 7.3527 160.725 6.87169 161.275 6.4594C161.824 6.04711 162.374 5.70353 163.061 5.49738C163.748 5.29124 164.504 5.15381 165.329 5.15381C166.428 5.15381 167.459 5.29124 168.421 5.63482C169.383 5.97839 170.276 6.4594 171.032 7.14655L169.521 9.41415C168.765 8.86443 168.078 8.45214 167.39 8.17728C166.703 7.90242 166.016 7.76499 165.329 7.76499C164.71 7.76499 164.161 7.90242 163.748 8.17728C163.336 8.45214 163.13 8.86443 163.13 9.41415C163.13 9.68901 163.199 9.89516 163.267 10.0326C163.336 10.17 163.542 10.3762 163.748 10.4449C163.955 10.5823 164.229 10.7197 164.642 10.7885C164.985 10.9259 165.466 11.0633 166.016 11.132C167.047 11.4069 167.871 11.6818 168.559 11.8879C169.246 12.1628 169.864 12.4376 170.276 12.7812C170.757 13.1248 171.032 13.4683 171.307 13.9494C171.513 14.3616 171.651 14.9114 171.651 15.5298C171.651 16.9728 171.101 18.0723 170.07 18.8969C168.971 19.7902 167.528 20.2024 165.741 20.2024Z" fill="#263238"/>
<path d="M174.743 12.5062V0H178.454V12.5062H174.743ZM174.743 19.9274V15.7358H178.454V19.9274H174.743Z" fill="#263238"/>
<path d="M156.12 185.943H131.727V187.936H156.12V185.943Z" fill="#37474F"/>
<path d="M156.12 188.485H131.727V190.478H156.12V188.485Z" fill="#37474F"/>
<path d="M156.12 191.097H131.727V193.089H156.12V191.097Z" fill="#37474F"/>
<path d="M156.12 193.708H131.727V195.7H156.12V193.708Z" fill="#37474F"/>
<path d="M156.12 196.319H131.727V198.312H156.12V196.319Z" fill="#37474F"/>
<path d="M166.704 248.268H120.321V250.261H166.704V248.268Z" fill="#37474F"/>
<path d="M166.704 250.879H120.321V252.872H166.704V250.879Z" fill="#37474F"/>
<path d="M166.704 253.491H120.321V255.483H166.704V253.491Z" fill="#37474F"/>
<path d="M166.704 256.102H120.321V258.094H166.704V256.102Z" fill="#37474F"/>
<path d="M166.704 258.713H120.321V260.706H166.704V258.713Z" fill="#37474F"/>
<path d="M99.9814 169.383C99.9814 169.108 89.8115 165.672 89.8115 165.672L90.43 130.696L103.898 127.81L99.9814 169.383Z" fill="#21A092"/>
<path opacity="0.2" d="M99.9814 169.383C99.9814 169.108 89.8115 165.672 89.8115 165.672L90.43 130.696L103.898 127.81L99.9814 169.383Z" fill="black"/>
<path d="M193.159 183.126C193.228 182.851 203.947 183.195 203.947 183.195L215.423 150.143L203.741 142.79L193.159 183.126Z" fill="#21A092"/>
<path opacity="0.2" d="M193.159 183.126C193.228 182.851 203.947 183.195 203.947 183.195L215.423 150.143L203.741 142.79L193.159 183.126Z" fill="black"/>
<path d="M97.9883 182.233C97.9883 182.233 101.768 125.68 105.066 107.058C105.066 107.058 173.369 112.212 210.269 126.298C210.269 126.298 191.235 192.334 190.273 195.632C190.273 195.701 142.172 186.218 97.9883 182.233Z" fill="#21A092"/>
<path opacity="0.1" d="M158.939 114.686C157.839 121.488 156.671 128.291 155.572 135.094L152.067 155.502L151.861 155.228L174.743 160.656L186.15 163.405L197.557 166.222L186.081 163.68L174.606 161.068L151.724 155.709L151.518 155.64L151.586 155.434L155.228 135.094C156.396 128.222 157.702 121.42 158.939 114.686Z" fill="black"/>
<path opacity="0.1" d="M156.465 118.534C156.465 119.152 155.984 119.771 155.297 119.839C154.953 119.839 154.541 119.771 154.266 119.496C153.991 119.221 153.785 118.877 153.785 118.465C153.785 118.053 153.923 117.709 154.266 117.434C154.541 117.16 154.953 117.091 155.297 117.091C155.984 117.297 156.465 117.915 156.465 118.534ZM156.465 118.534C156.465 118.19 156.328 117.915 156.121 117.709C155.915 117.503 155.572 117.434 155.297 117.434C154.747 117.503 154.335 117.984 154.335 118.534C154.335 119.015 154.678 119.565 155.297 119.633C155.572 119.633 155.915 119.565 156.121 119.358C156.328 119.152 156.465 118.877 156.465 118.534Z" fill="black"/>
<path opacity="0.1" d="M155.229 126.986C155.229 127.604 154.748 128.222 154.061 128.291C153.717 128.291 153.305 128.222 153.03 127.948C152.755 127.673 152.549 127.329 152.549 126.917C152.549 126.504 152.686 126.161 153.03 125.886C153.305 125.611 153.717 125.542 154.061 125.542C154.748 125.68 155.297 126.298 155.229 126.986ZM155.229 126.986C155.229 126.642 155.091 126.367 154.885 126.161C154.679 125.955 154.335 125.886 154.061 125.886C153.511 125.955 153.099 126.436 153.099 126.986C153.099 127.467 153.442 128.016 154.061 128.085C154.335 128.085 154.679 128.016 154.885 127.81C155.091 127.604 155.229 127.26 155.229 126.986Z" fill="black"/>
<path opacity="0.1" d="M153.785 135.85C153.785 136.469 153.304 137.087 152.617 137.156C152.274 137.156 151.861 137.087 151.586 136.812C151.312 136.537 151.105 136.194 151.105 135.782C151.105 135.369 151.243 135.026 151.586 134.751C151.861 134.476 152.274 134.407 152.617 134.407C153.304 134.613 153.785 135.232 153.785 135.85ZM153.785 135.85C153.785 135.507 153.648 135.232 153.442 135.026C153.236 134.82 152.892 134.751 152.617 134.751C152.067 134.82 151.655 135.301 151.655 135.85C151.655 136.331 151.999 136.881 152.617 136.95C152.892 136.95 153.236 136.881 153.442 136.675C153.648 136.469 153.785 136.194 153.785 135.85Z" fill="black"/>
<path opacity="0.1" d="M152.273 144.714C152.273 145.332 151.792 145.951 151.105 146.02C150.761 146.02 150.349 145.951 150.074 145.676C149.799 145.401 149.593 145.058 149.593 144.645C149.593 144.233 149.73 143.889 150.074 143.615C150.349 143.34 150.761 143.271 151.105 143.271C151.792 143.477 152.341 144.096 152.273 144.714ZM152.273 144.714C152.273 144.37 152.135 144.096 151.929 143.889C151.723 143.683 151.379 143.615 151.105 143.615C150.555 143.683 150.142 144.164 150.142 144.714C150.142 145.195 150.486 145.745 151.105 145.813C151.379 145.813 151.723 145.745 151.929 145.539C152.135 145.332 152.273 145.058 152.273 144.714Z" fill="black"/>
<path opacity="0.1" d="M157.359 158.938C157.359 159.557 156.878 160.175 156.19 160.244C155.847 160.244 155.435 160.175 155.16 159.9C154.885 159.625 154.679 159.282 154.679 158.869C154.679 158.457 154.816 158.114 155.16 157.839C155.435 157.564 155.847 157.495 156.19 157.495C156.878 157.633 157.359 158.32 157.359 158.938ZM157.359 158.938C157.359 158.595 157.221 158.32 157.015 158.114C156.809 157.907 156.465 157.839 156.19 157.839C155.641 157.907 155.228 158.388 155.228 158.938C155.228 159.419 155.572 159.969 156.19 160.038C156.465 160.038 156.809 159.969 157.015 159.763C157.221 159.557 157.359 159.213 157.359 158.938Z" fill="black"/>
<path opacity="0.1" d="M165.741 160.931C165.741 161.55 165.26 162.168 164.573 162.237C164.23 162.237 163.817 162.168 163.543 161.893C163.268 161.618 163.062 161.275 163.062 160.863C163.062 160.45 163.199 160.107 163.543 159.832C163.817 159.557 164.23 159.488 164.573 159.488C165.26 159.694 165.741 160.313 165.741 160.931ZM165.741 160.931C165.741 160.588 165.604 160.313 165.398 160.107C165.192 159.901 164.848 159.832 164.573 159.832C164.024 159.901 163.611 160.382 163.611 160.931C163.611 161.412 163.955 161.962 164.573 162.031C164.848 162.031 165.192 161.962 165.398 161.756C165.604 161.618 165.741 161.275 165.741 160.931Z" fill="black"/>
<path opacity="0.1" d="M174.125 162.992C174.125 163.611 173.644 164.229 172.957 164.298C172.613 164.298 172.201 164.229 171.926 163.954C171.651 163.679 171.445 163.336 171.445 162.924C171.445 162.511 171.583 162.168 171.926 161.893C172.201 161.618 172.613 161.549 172.957 161.549C173.644 161.755 174.125 162.374 174.125 162.992ZM174.125 162.992C174.125 162.649 173.988 162.374 173.782 162.168C173.575 161.962 173.232 161.893 172.957 161.893C172.407 161.962 171.995 162.443 171.995 162.992C171.995 163.473 172.339 164.023 172.957 164.092C173.232 164.092 173.575 164.023 173.782 163.817C173.988 163.611 174.125 163.336 174.125 162.992Z" fill="black"/>
<path opacity="0.1" d="M182.508 165.054C182.508 165.672 182.027 166.291 181.34 166.359C180.996 166.359 180.584 166.291 180.309 166.016C180.034 165.741 179.828 165.397 179.828 164.985C179.828 164.573 179.966 164.229 180.309 163.954C180.584 163.68 180.996 163.611 181.34 163.611C182.027 163.817 182.508 164.435 182.508 165.054ZM182.508 165.054C182.508 164.71 182.371 164.435 182.164 164.229C181.958 164.023 181.615 163.954 181.34 163.954C180.79 164.023 180.378 164.504 180.378 165.054C180.378 165.535 180.721 166.085 181.34 166.153C181.615 166.153 181.958 166.085 182.164 165.878C182.371 165.672 182.508 165.397 182.508 165.054Z" fill="black"/>
<path opacity="0.1" d="M190.891 167.184C190.823 167.802 190.342 168.421 189.586 168.421C189.242 168.421 188.899 168.283 188.624 168.008C188.349 167.733 188.211 167.321 188.28 166.978C188.28 166.565 188.486 166.222 188.83 166.016C189.105 165.809 189.517 165.741 189.861 165.741C190.548 165.878 190.96 166.565 190.891 167.184ZM190.891 167.184C190.891 166.84 190.823 166.565 190.548 166.359C190.342 166.153 189.998 166.016 189.723 166.016C189.174 166.016 188.761 166.497 188.693 166.978C188.624 167.459 188.967 168.008 189.517 168.146C189.792 168.214 190.136 168.146 190.342 167.94C190.685 167.802 190.891 167.527 190.891 167.184Z" fill="black"/>
<path opacity="0.1" d="M150.83 153.647C150.83 154.266 150.349 154.884 149.662 154.953C149.319 154.953 148.906 154.884 148.631 154.609C148.357 154.334 148.15 153.991 148.15 153.578C148.15 153.166 148.288 152.823 148.631 152.548C148.906 152.273 149.319 152.204 149.662 152.204C150.349 152.342 150.83 153.029 150.83 153.647ZM150.83 153.647C150.83 153.304 150.693 153.029 150.487 152.823C150.281 152.616 149.937 152.548 149.662 152.548C149.112 152.616 148.7 153.097 148.7 153.647C148.7 154.128 149.044 154.678 149.662 154.747C149.937 154.747 150.281 154.678 150.487 154.472C150.693 154.266 150.83 153.922 150.83 153.647Z" fill="black"/>
<path opacity="0.2" d="M136.694 168.316C144.652 161.161 145.303 148.909 138.147 140.951C130.992 132.993 118.74 132.342 110.782 139.498C102.824 146.653 102.174 158.905 109.329 166.863C116.484 174.821 128.736 175.472 136.694 168.316Z" fill="black"/>
<path d="M138.243 159.401C141.28 151.38 137.239 142.417 129.218 139.381C121.197 136.344 112.233 140.385 109.197 148.406C106.161 156.427 110.202 165.391 118.223 168.427C126.244 171.463 135.207 167.422 138.243 159.401Z" fill="#263238"/>
<path d="M122.794 148.187L119.131 147.594L118.538 151.257L122.2 151.85L122.794 148.187Z" fill="#21A092"/>
<path d="M119.764 143.999L116.102 143.406L115.508 147.069L119.171 147.662L119.764 143.999Z" fill="#21A092"/>
<path d="M134.335 146.338L130.672 145.745L130.079 149.408L133.741 150.001L134.335 146.338Z" fill="#21A092"/>
<path d="M117.434 158.431L113.771 157.837L113.178 161.5L116.841 162.093L117.434 158.431Z" fill="#21A092"/>
<path d="M131.994 160.837L128.331 160.244L127.738 163.907L131.4 164.5L131.994 160.837Z" fill="#21A092"/>
<path d="M121.622 155.401L117.959 154.808L117.366 158.471L121.028 159.064L121.622 155.401Z" fill="#21A092"/>
<path d="M125.884 152.384L122.222 151.791L121.628 155.454L125.291 156.047L125.884 152.384Z" fill="#21A092"/>
<path d="M130.068 149.424L126.405 148.831L125.812 152.494L129.475 153.087L130.068 149.424Z" fill="#21A092"/>
<path d="M128.91 156.569L125.247 155.976L124.654 159.639L128.316 160.232L128.91 156.569Z" fill="#21A092"/>
<path d="M190.741 174.325C197.524 166.047 196.312 153.838 188.034 147.055C179.756 140.272 167.547 141.484 160.764 149.762C153.981 158.04 155.193 170.25 163.471 177.033C171.749 183.815 183.958 182.603 190.741 174.325Z" fill="#21A092"/>
<path opacity="0.2" d="M190.741 174.325C197.524 166.047 196.312 153.838 188.034 147.055C179.756 140.272 167.547 141.484 160.764 149.762C153.981 158.04 155.193 170.25 163.471 177.033C171.749 183.815 183.958 182.603 190.741 174.325Z" fill="black"/>
<path opacity="0.2" d="M194.67 166.565C194.601 166.978 194.464 167.321 194.395 167.665L156.602 159.625C156.67 158.938 156.808 158.251 156.945 157.564C159.419 147.119 169.864 140.728 180.308 143.202C190.684 145.676 197.144 156.121 194.67 166.565Z" fill="black"/>
<path d="M181.746 176.369C189.66 173.063 193.395 163.967 190.088 156.053C186.782 148.139 177.686 144.404 169.773 147.711C161.859 151.017 158.124 160.113 161.43 168.026C164.736 175.94 173.832 179.675 181.746 176.369Z" fill="#263238"/>
<path d="M179.702 153.562L176.092 152.704L171.85 170.554L175.46 171.412L179.702 153.562Z" fill="#21A092"/>
<path d="M195.769 166.153L156.052 156.739C158.663 145.744 169.657 139.01 180.652 141.621C191.578 144.233 198.38 155.227 195.769 166.153Z" fill="#21A092"/>
<path opacity="0.2" d="M195.769 166.153L156.052 156.739C158.663 145.744 169.657 139.01 180.652 141.621C191.578 144.233 198.38 155.227 195.769 166.153Z" fill="black"/>
<path opacity="0.1" d="M142.034 173.575C142.103 171.994 142.721 170.482 143.821 169.177C144.371 168.558 145.126 168.077 145.951 167.734C146.776 167.459 147.669 167.39 148.493 167.459C149.318 167.528 150.211 167.871 150.898 168.421C151.586 168.971 152.135 169.658 152.479 170.482C153.097 171.994 153.166 173.643 152.891 175.155C152.616 173.643 152.273 172.132 151.517 170.963C150.83 169.726 149.662 168.971 148.356 168.833C146.982 168.696 145.676 169.039 144.577 169.933C143.477 170.895 142.653 172.2 142.034 173.575Z" fill="black"/>
<path d="M103.278 133.994C103.416 131.933 103.691 129.871 103.897 127.81C104.103 125.748 104.378 123.687 104.584 121.625C104.79 119.564 105.065 117.503 105.34 115.441C105.615 113.38 105.889 111.318 106.164 109.257L106.233 108.707L106.783 108.776C111.249 109.051 115.716 109.394 120.182 109.875C122.381 110.081 124.649 110.356 126.848 110.631C129.047 110.975 131.314 111.249 133.513 111.662L120.114 110.837L106.714 109.944L107.333 109.463C107.058 111.524 106.714 113.586 106.439 115.647C106.096 117.709 105.821 119.77 105.477 121.763C105.134 123.824 104.79 125.886 104.446 127.879C104.103 129.94 103.759 132.001 103.278 133.994Z" fill="white"/>
<path d="M106.508 149.73C106.989 147.256 108.088 144.851 109.6 142.79C110.012 142.24 110.425 141.759 110.837 141.278C111.318 140.797 111.73 140.385 112.211 139.904C112.692 139.492 113.242 139.079 113.723 138.667C114.273 138.323 114.822 137.98 115.372 137.636C115.991 137.361 116.54 137.086 117.159 136.812L119.014 136.193L120.938 135.781C121.556 135.712 122.244 135.643 122.862 135.643C125.473 135.575 128.016 136.124 130.352 137.086C127.878 136.605 125.404 136.331 122.931 136.605C120.526 136.812 118.121 137.567 115.991 138.736C113.86 139.904 111.936 141.484 110.356 143.34C108.775 145.264 107.47 147.325 106.508 149.73Z" fill="white"/>
<path d="M160.037 154.952C160.793 152.547 162.305 150.348 164.091 148.493C164.504 148.012 165.053 147.6 165.534 147.187C166.015 146.775 166.565 146.432 167.115 146.019C167.665 145.676 168.214 145.332 168.764 145.057C169.382 144.782 169.932 144.508 170.551 144.233C171.169 144.027 171.787 143.82 172.406 143.614L174.33 143.271L176.254 143.133C176.872 143.133 177.559 143.202 178.178 143.271C180.72 143.546 183.194 144.439 185.393 145.744C182.988 144.92 180.583 144.37 178.109 144.233C175.635 144.095 173.23 144.508 170.963 145.401C168.695 146.225 166.565 147.6 164.778 149.249C162.923 150.829 161.274 152.753 160.037 154.952Z" fill="white"/>
<path d="M100.187 217.14C95.24 217.14 84.3142 216.041 77.3053 207.039C68.3723 195.495 71.6019 173.438 71.7394 172.476L75.6561 173.094C75.6561 173.3 72.5639 194.464 80.4662 204.634C88.231 214.598 102.249 213.155 102.386 213.155L102.799 217.072C102.661 217.003 101.699 217.14 100.187 217.14Z" fill="#21A092"/>
<path opacity="0.4" d="M100.187 217.14C95.24 217.14 84.3142 216.041 77.3053 207.039C68.3723 195.495 71.6019 173.438 71.7394 172.476L75.6561 173.094C75.6561 173.3 72.5639 194.464 80.4662 204.634C88.231 214.598 102.249 213.155 102.386 213.155L102.799 217.072C102.661 217.003 101.699 217.14 100.187 217.14Z" fill="white"/>
<path d="M76.7559 175.705C76.0688 175.705 75.3129 175.636 74.557 175.499C68.0291 174.468 65.0743 170.483 63.8374 167.391C62.5319 164.298 62.257 160.519 62.9441 156.19L71.2587 157.564C70.8464 160.244 70.9838 162.58 71.6023 164.161C72.0833 165.329 72.9766 166.703 75.9313 167.116C77.2369 167.322 78.6799 167.184 80.1917 164.917C81.3598 163.13 82.047 160.794 82.3218 159.282L90.6364 160.656C90.4302 161.825 89.6057 166.016 87.2006 169.589C84.6582 173.644 80.9475 175.705 76.7559 175.705Z" fill="#21A092"/>
<path d="M108.365 228.341C108.365 228.135 101.287 227.035 101.287 227.035L97.8516 204.084L106.372 200.717L108.365 228.341Z" fill="#21A092"/>
<path opacity="0.2" d="M108.365 228.341C108.365 228.135 101.287 227.035 101.287 227.035L97.8516 204.084L106.372 200.717L108.365 228.341Z" fill="black"/>
<path d="M177.904 228.41C177.904 228.203 184.982 227.241 184.982 227.241L188.899 204.359L180.447 200.786L177.904 228.41Z" fill="#21A092"/>
<path opacity="0.2" d="M177.904 228.41C177.904 228.203 184.982 227.241 184.982 227.241L188.899 204.359L180.447 200.786L177.904 228.41Z" fill="black"/>
<path d="M105.478 195.632C105.478 195.632 162.374 193.227 181.615 196.388C181.615 196.388 175.98 251.429 175.637 252.528C175.637 252.528 119.015 252.391 110.22 252.528C110.151 252.46 105.41 215.903 105.478 195.632Z" fill="#21A092"/>
<path opacity="0.2" d="M122.726 210.681C122.726 210.681 153.785 209.444 164.298 211.093C164.298 211.093 161.206 238.854 161.069 239.404C161.069 239.404 130.147 239.335 125.337 239.404C125.337 239.404 123.207 220.37 122.726 210.681Z" fill="black"/>
<path opacity="0.2" d="M126.986 239.335C126.299 239.335 125.68 239.335 125.337 239.335C125.337 239.335 123.207 220.301 122.726 210.681C122.726 210.681 123.413 210.681 124.65 210.612L126.986 239.335Z" fill="black"/>
<path d="M136.126 217.553C134.408 217.003 132.552 217.965 132.003 219.683C131.453 221.401 132.415 223.256 134.133 223.806C135.851 224.355 137.706 223.393 138.256 221.675C138.874 219.958 137.912 218.102 136.126 217.553ZM137.912 221.538C137.431 223.05 135.782 223.943 134.27 223.462C132.759 222.981 131.865 221.332 132.346 219.82C132.827 218.308 134.477 217.415 135.988 217.896C137.569 218.377 138.393 220.026 137.912 221.538ZM136.126 217.553C134.408 217.003 132.552 217.965 132.003 219.683C131.453 221.401 132.415 223.256 134.133 223.806C135.851 224.355 137.706 223.393 138.256 221.675C138.874 219.958 137.912 218.102 136.126 217.553ZM137.912 221.538C137.431 223.05 135.782 223.943 134.27 223.462C132.759 222.981 131.865 221.332 132.346 219.82C132.827 218.308 134.477 217.415 135.988 217.896C137.569 218.377 138.393 220.026 137.912 221.538ZM136.126 217.553C134.408 217.003 132.552 217.965 132.003 219.683C131.453 221.401 132.415 223.256 134.133 223.806C135.851 224.355 137.706 223.393 138.256 221.675C138.874 219.958 137.912 218.102 136.126 217.553ZM137.912 221.538C137.431 223.05 135.782 223.943 134.27 223.462C132.759 222.981 131.865 221.332 132.346 219.82C132.827 218.308 134.477 217.415 135.988 217.896C137.569 218.377 138.393 220.026 137.912 221.538ZM137.225 214.048C133.583 212.88 129.666 214.941 128.498 218.583C127.33 222.225 129.392 226.142 133.034 227.31C136.675 228.478 140.592 226.417 141.76 222.775C142.928 219.133 140.936 215.216 137.225 214.048ZM138.806 221.813C138.187 223.806 136.057 224.974 133.996 224.287C132.003 223.668 130.903 221.538 131.522 219.477C132.14 217.484 134.27 216.384 136.332 217.003C138.325 217.69 139.424 219.82 138.806 221.813ZM138.325 221.675C138.874 219.958 137.912 218.102 136.194 217.553C134.477 217.003 132.621 217.965 132.071 219.683C131.522 221.401 132.484 223.256 134.202 223.806C135.92 224.355 137.775 223.393 138.325 221.675ZM137.912 221.538C137.431 223.05 135.782 223.943 134.27 223.462C132.759 222.981 131.865 221.332 132.346 219.82C132.827 218.308 134.477 217.415 135.988 217.896C137.569 218.377 138.393 220.026 137.912 221.538ZM136.126 217.553C134.408 217.003 132.552 217.965 132.003 219.683C131.453 221.401 132.415 223.256 134.133 223.806C135.851 224.355 137.706 223.393 138.256 221.675C138.874 219.958 137.912 218.102 136.126 217.553ZM137.912 221.538C137.431 223.05 135.782 223.943 134.27 223.462C132.759 222.981 131.865 221.332 132.346 219.82C132.827 218.308 134.477 217.415 135.988 217.896C137.569 218.377 138.393 220.026 137.912 221.538ZM136.126 217.553C134.408 217.003 132.552 217.965 132.003 219.683C131.453 221.401 132.415 223.256 134.133 223.806C135.851 224.355 137.706 223.393 138.256 221.675C138.874 219.958 137.912 218.102 136.126 217.553ZM137.912 221.538C137.431 223.05 135.782 223.943 134.27 223.462C132.759 222.981 131.865 221.332 132.346 219.82C132.827 218.308 134.477 217.415 135.988 217.896C137.569 218.377 138.393 220.026 137.912 221.538Z" fill="#21A092"/>
<path d="M134.408 227.448L131.865 226.623L131.453 228.478L133.721 229.234L134.408 227.448Z" fill="#21A092"/>
<path d="M129.804 225.042L128.567 222.706L126.986 223.668L128.086 225.798L129.804 225.042Z" fill="#21A092"/>
<path d="M128.291 220.095L129.047 217.553L127.261 217.141L126.505 219.408L128.291 220.095Z" fill="#21A092"/>
<path d="M130.696 215.56L133.033 214.323L132.002 212.674L129.94 213.774L130.696 215.56Z" fill="#21A092"/>
<path d="M135.575 213.979L138.186 214.804L138.599 212.949L136.331 212.193L135.575 213.979Z" fill="#21A092"/>
<path d="M140.18 216.385L141.417 218.721L143.066 217.759L141.966 215.629L140.18 216.385Z" fill="#21A092"/>
<path d="M141.76 221.332L140.936 223.874L142.791 224.287L143.478 222.019L141.76 221.332Z" fill="#21A092"/>
<path d="M139.355 225.867L136.95 227.104L137.981 228.753L140.111 227.654L139.355 225.867Z" fill="#21A092"/>
<path d="M147.394 227.241C146.363 226.554 144.989 226.829 144.302 227.86C143.615 228.891 143.89 230.265 144.92 230.952C145.951 231.639 147.325 231.364 148.013 230.334C148.7 229.303 148.425 227.929 147.394 227.241ZM147.806 230.196C147.188 231.089 146.02 231.364 145.127 230.746C144.233 230.127 143.958 228.959 144.577 228.066C145.195 227.173 146.363 226.898 147.257 227.516C148.15 228.066 148.356 229.303 147.806 230.196ZM147.394 227.241C146.363 226.554 144.989 226.829 144.302 227.86C143.615 228.891 143.89 230.265 144.92 230.952C145.951 231.639 147.325 231.364 148.013 230.334C148.7 229.303 148.425 227.929 147.394 227.241ZM147.806 230.196C147.188 231.089 146.02 231.364 145.127 230.746C144.233 230.127 143.958 228.959 144.577 228.066C145.195 227.173 146.363 226.898 147.257 227.516C148.15 228.066 148.356 229.303 147.806 230.196ZM147.394 227.241C146.363 226.554 144.989 226.829 144.302 227.86C143.615 228.891 143.89 230.265 144.92 230.952C145.951 231.639 147.325 231.364 148.013 230.334C148.7 229.303 148.425 227.929 147.394 227.241ZM147.806 230.196C147.188 231.089 146.02 231.364 145.127 230.746C144.233 230.127 143.958 228.959 144.577 228.066C145.195 227.173 146.363 226.898 147.257 227.516C148.15 228.066 148.356 229.303 147.806 230.196ZM148.7 225.18C146.501 223.737 143.615 224.355 142.241 226.554C140.798 228.753 141.416 231.639 143.615 233.014C145.814 234.457 148.7 233.838 150.074 231.639C151.517 229.509 150.899 226.623 148.7 225.18ZM148.287 230.54C147.532 231.708 145.951 232.051 144.714 231.296C143.546 230.54 143.203 228.959 143.958 227.722C144.714 226.554 146.295 226.211 147.532 226.967C148.768 227.722 149.112 229.303 148.287 230.54ZM148.013 230.334C148.7 229.303 148.425 227.929 147.394 227.241C146.363 226.554 144.989 226.829 144.302 227.86C143.615 228.891 143.89 230.265 144.92 230.952C145.951 231.639 147.325 231.364 148.013 230.334ZM147.806 230.196C147.188 231.089 146.02 231.364 145.127 230.746C144.233 230.127 143.958 228.959 144.577 228.066C145.195 227.173 146.363 226.898 147.257 227.516C148.15 228.066 148.356 229.303 147.806 230.196ZM147.394 227.241C146.363 226.554 144.989 226.829 144.302 227.86C143.615 228.891 143.89 230.265 144.92 230.952C145.951 231.639 147.325 231.364 148.013 230.334C148.7 229.303 148.425 227.929 147.394 227.241ZM147.806 230.196C147.188 231.089 146.02 231.364 145.127 230.746C144.233 230.127 143.958 228.959 144.577 228.066C145.195 227.173 146.363 226.898 147.257 227.516C148.15 228.066 148.356 229.303 147.806 230.196ZM147.394 227.241C146.363 226.554 144.989 226.829 144.302 227.86C143.615 228.891 143.89 230.265 144.92 230.952C145.951 231.639 147.325 231.364 148.013 230.334C148.7 229.303 148.425 227.929 147.394 227.241ZM147.806 230.196C147.188 231.089 146.02 231.364 145.127 230.746C144.233 230.127 143.958 228.959 144.577 228.066C145.195 227.173 146.363 226.898 147.257 227.516C148.15 228.066 148.356 229.303 147.806 230.196Z" fill="#DBDBDB"/>
<path d="M144.44 233.357L142.928 232.395L142.31 233.494L143.684 234.388L144.44 233.357Z" fill="#DBDBDB"/>
<path d="M141.897 231.021L141.553 229.234L140.316 229.578L140.66 231.158L141.897 231.021Z" fill="#DBDBDB"/>
<path d="M141.829 227.516L142.791 226.005L141.691 225.386L140.798 226.761L141.829 227.516Z" fill="#DBDBDB"/>
<path d="M144.165 224.974L145.951 224.562L145.608 223.394L144.027 223.668L144.165 224.974Z" fill="#DBDBDB"/>
<path d="M147.669 224.836L149.181 225.867L149.799 224.699L148.425 223.806L147.669 224.836Z" fill="#DBDBDB"/>
<path d="M150.212 227.241L150.555 229.028L151.792 228.616L151.449 227.035L150.212 227.241Z" fill="#DBDBDB"/>
<path d="M150.349 230.746L149.318 232.258L150.487 232.808L151.311 231.502L150.349 230.746Z" fill="#DBDBDB"/>
<path d="M147.944 233.288L146.157 233.632L146.57 234.869L148.081 234.525L147.944 233.288Z" fill="#DBDBDB"/>
<path d="M180.173 246.069L182.372 246.481L188.625 204.153L186.151 203.672L180.173 246.069Z" fill="#21A092"/>
<path d="M161.001 239.404L164.231 211.093L186.082 203.672C186.082 203.672 180.104 246.55 180.104 246.069L161.001 239.404Z" fill="#21A092"/>
<path opacity="0.4" d="M161.001 239.404L164.231 211.093L186.082 203.672C186.082 203.672 180.104 246.55 180.104 246.069L161.001 239.404Z" fill="white"/>
<path d="M108.089 212.193C107.746 209.856 107.54 207.451 107.402 205.115C107.334 203.947 107.334 202.779 107.265 201.542C107.265 200.374 107.196 199.206 107.265 197.969V197.625H107.54C111.869 197.419 116.198 197.075 120.596 196.938C124.925 196.732 129.254 196.526 133.652 196.388C129.322 196.8 124.993 197.144 120.664 197.419C116.335 197.762 112.006 197.969 107.677 198.312L108.021 197.969V201.473L108.089 205.046C108.089 206.214 108.089 207.383 108.158 208.62L108.089 212.193Z" fill="white"/>
<path d="M167.322 211.506C168.697 210.887 170.071 210.269 171.445 209.719C172.819 209.17 174.263 208.62 175.637 208.139C177.08 207.658 178.454 207.177 179.897 206.764C181.34 206.352 182.783 206.009 184.295 205.734L184.639 205.665L184.57 206.009C184.226 207.864 183.883 209.651 183.47 211.506C183.608 209.651 183.883 207.795 184.089 205.94L184.364 206.215C182.921 206.558 181.478 206.971 180.035 207.383C178.592 207.795 177.217 208.276 175.774 208.689L167.322 211.506Z" fill="white"/>
<path opacity="0.1" d="M117.503 195.701L117.915 202.779L118.19 209.857L118.74 224.012L119.152 238.236L119.358 245.314L119.496 252.391L119.083 245.314L118.809 238.236L118.259 224.081L117.778 209.857L117.64 202.779L117.503 195.701Z" fill="black"/>
<path opacity="0.1" d="M115.511 199.962C115.648 200.58 115.304 201.267 114.617 201.473C114.274 201.542 113.861 201.542 113.587 201.336C113.243 201.13 113.037 200.786 112.968 200.443C112.899 200.099 112.968 199.687 113.243 199.343C113.449 199.068 113.793 198.862 114.136 198.793C114.755 198.862 115.373 199.343 115.511 199.962ZM115.511 199.962C115.442 199.687 115.236 199.412 114.961 199.206C114.686 199.068 114.342 199.068 114.136 199.137C113.587 199.343 113.312 199.893 113.449 200.374C113.518 200.855 113.999 201.267 114.617 201.267C114.892 201.267 115.167 201.13 115.373 200.855C115.511 200.649 115.579 200.305 115.511 199.962Z" fill="black"/>
<path opacity="0.1" d="M115.992 208.482C116.129 209.101 115.786 209.788 115.099 209.994C114.755 210.063 114.343 210.063 114.068 209.856C113.724 209.65 113.518 209.307 113.45 208.963C113.381 208.62 113.45 208.207 113.724 207.864C113.931 207.589 114.274 207.383 114.618 207.314C115.236 207.314 115.855 207.864 115.992 208.482ZM115.992 208.482C115.923 208.207 115.717 207.932 115.442 207.726C115.167 207.589 114.824 207.589 114.618 207.658C114.068 207.864 113.793 208.413 113.931 208.894C113.999 209.375 114.48 209.788 115.099 209.788C115.374 209.788 115.648 209.65 115.855 209.375C115.992 209.101 116.061 208.757 115.992 208.482Z" fill="black"/>
<path opacity="0.1" d="M116.266 217.484C116.404 218.103 116.06 218.79 115.373 218.996C115.03 219.065 114.617 219.065 114.342 218.858C113.999 218.652 113.793 218.309 113.724 217.965C113.655 217.622 113.724 217.209 113.999 216.866C114.205 216.591 114.549 216.385 114.892 216.316C115.579 216.316 116.198 216.866 116.266 217.484ZM116.266 217.484C116.198 217.209 115.992 216.934 115.717 216.728C115.442 216.591 115.098 216.591 114.892 216.659C114.342 216.866 114.068 217.415 114.205 217.896C114.274 218.377 114.755 218.79 115.373 218.79C115.648 218.79 115.923 218.652 116.129 218.377C116.266 218.103 116.335 217.759 116.266 217.484Z" fill="black"/>
<path opacity="0.1" d="M116.609 226.486C116.747 227.104 116.403 227.792 115.716 227.998C115.372 228.066 114.96 228.066 114.685 227.86C114.342 227.654 114.135 227.311 114.067 226.967C113.998 226.623 114.067 226.211 114.342 225.868C114.548 225.593 114.891 225.387 115.235 225.318C115.853 225.318 116.472 225.868 116.609 226.486ZM116.609 226.486C116.541 226.211 116.334 225.936 116.06 225.73C115.785 225.593 115.441 225.593 115.235 225.661C114.685 225.868 114.41 226.417 114.548 226.898C114.616 227.379 115.098 227.792 115.716 227.792C115.991 227.792 116.266 227.654 116.472 227.379C116.609 227.104 116.678 226.83 116.609 226.486Z" fill="black"/>
<path opacity="0.1" d="M116.885 235.488C117.022 236.106 116.678 236.793 115.991 236.999C115.648 237.068 115.235 237.068 114.961 236.862C114.617 236.656 114.411 236.312 114.342 235.968C114.273 235.625 114.342 235.213 114.617 234.869C114.823 234.594 115.167 234.388 115.51 234.319C116.197 234.319 116.816 234.869 116.885 235.488ZM116.885 235.488C116.816 235.213 116.61 234.938 116.335 234.732C116.06 234.594 115.716 234.594 115.51 234.663C114.961 234.869 114.686 235.419 114.823 235.9C114.892 236.381 115.373 236.793 115.991 236.793C116.266 236.793 116.541 236.656 116.747 236.381C116.885 236.106 116.953 235.831 116.885 235.488Z" fill="black"/>
<path opacity="0.1" d="M117.228 244.489C117.366 245.107 117.022 245.795 116.335 246.001C115.992 246.069 115.579 246.069 115.304 245.863C114.961 245.657 114.755 245.314 114.686 244.97C114.617 244.626 114.686 244.214 114.961 243.871C115.167 243.596 115.511 243.39 115.854 243.321C116.473 243.39 117.091 243.871 117.228 244.489ZM117.228 244.489C117.16 244.214 116.954 243.939 116.679 243.733C116.404 243.596 116.06 243.596 115.854 243.664C115.304 243.871 115.03 244.42 115.167 244.901C115.236 245.382 115.717 245.795 116.335 245.795C116.61 245.795 116.885 245.657 117.091 245.382C117.228 245.176 117.297 244.833 117.228 244.489Z" fill="black"/>
<path d="M120.035 258.236L87.8125 268L88.9484 271.748L121.171 261.984L120.035 258.236Z" fill="#21A092"/>
<path opacity="0.4" d="M120.035 258.236L87.8125 268L88.9484 271.748L121.171 261.984L120.035 258.236Z" fill="white"/>
<path d="M104.585 261.702L100.853 262.889L102.623 268.455L106.356 267.268L104.585 261.702Z" fill="#21A092"/>
<path d="M88.7114 277.334L80.3968 241.328L55.2471 247.237L67.6158 282.351L88.7114 277.334Z" fill="#21A092"/>
<path d="M94.2779 275.479L88.712 277.334L80.3975 241.328L88.3684 243.252L94.2779 275.479Z" fill="#21A092"/>
<path opacity="0.2" d="M94.2779 275.479L88.712 277.334L80.3975 241.328L88.3684 243.252L94.2779 275.479Z" fill="black"/>
<path d="M120.595 264.416C122.948 264.416 124.856 262.509 124.856 260.156C124.856 257.803 122.948 255.896 120.595 255.896C118.242 255.896 116.335 257.803 116.335 260.156C116.335 262.509 118.242 264.416 120.595 264.416Z" fill="#21A092"/>
<path d="M164.516 258.161L163.372 261.907L195.574 271.739L196.718 267.993L164.516 258.161Z" fill="#21A092"/>
<path opacity="0.4" d="M164.516 258.161L163.372 261.907L195.574 271.739L196.718 267.993L164.516 258.161Z" fill="white"/>
<path d="M179.933 261.549L178.15 267.111L181.88 268.306L183.663 262.744L179.933 261.549Z" fill="#21A092"/>
<path d="M195.839 277.266L204.222 241.328L229.303 247.306L216.866 282.351L195.839 277.266Z" fill="#21A092"/>
<path d="M190.273 275.41L195.839 277.266L204.223 241.328L196.183 243.183L190.273 275.41Z" fill="#21A092"/>
<path opacity="0.2" d="M190.273 275.41L195.839 277.266L204.223 241.328L196.183 243.183L190.273 275.41Z" fill="black"/>
<path d="M159.694 260.018C159.694 262.354 161.618 264.278 163.955 264.278C166.291 264.278 168.215 262.354 168.215 260.018C168.215 257.682 166.291 255.758 163.955 255.758C161.618 255.758 159.694 257.682 159.694 260.018Z" fill="#21A092"/>
<path d="M191.921 215.628C191.99 215.56 202.366 205.94 214.529 209.238C226.966 212.605 237.274 231.364 237.342 231.502L240.778 229.646C240.297 228.822 229.577 209.238 215.491 205.459C201.129 201.611 189.654 212.33 189.173 212.811L191.921 215.628Z" fill="#21A092"/>
<path opacity="0.4" d="M191.921 215.628C191.99 215.56 202.366 205.94 214.529 209.238C226.966 212.605 237.274 231.364 237.342 231.502L240.778 229.646C240.297 228.822 229.577 209.238 215.491 205.459C201.129 201.611 189.654 212.33 189.173 212.811L191.921 215.628Z" fill="white"/>
<path d="M232.739 250.398L240.16 246.482C239.473 245.107 238.58 242.771 238.442 240.71C238.305 237.961 239.335 236.999 240.572 236.381C243.183 235.006 244.764 235.556 245.795 236.174C247.306 237.068 248.818 238.854 250.055 241.259L257.476 237.343C255.415 233.495 252.941 230.677 250.055 228.959C247.169 227.241 242.496 225.867 236.587 228.959C231.983 231.364 229.647 235.762 229.99 241.259C230.334 245.52 232.189 249.368 232.739 250.398Z" fill="#21A092"/>
<path d="M193.502 202.504C195.151 201.405 196.8 200.305 198.449 199.274C200.099 198.244 201.816 197.213 203.466 196.251C205.184 195.289 206.833 194.258 208.551 193.365L211.162 191.991C212.055 191.51 212.88 191.097 213.773 190.616C212.948 191.166 212.124 191.716 211.299 192.265L208.825 193.846C207.176 194.877 205.458 195.907 203.809 196.869C202.091 197.831 200.442 198.862 198.724 199.755C196.938 200.717 195.22 201.679 193.502 202.504Z" fill="#263238"/>
<path d="M189.173 218.583C191.509 219.889 193.708 221.401 195.838 222.913C197.968 224.424 200.099 226.073 202.091 227.791C199.755 226.486 197.556 224.974 195.426 223.462C193.296 221.951 191.234 220.37 189.173 218.583Z" fill="#263238"/>
<path d="M193.021 216.659C194.807 217.209 196.594 217.827 198.312 218.446C200.098 219.064 201.816 219.751 203.534 220.37C205.252 221.057 206.97 221.744 208.688 222.5L211.23 223.599C212.055 224.012 212.948 224.355 213.773 224.768C212.879 224.493 211.986 224.218 211.093 223.943L208.481 223.05C206.695 222.431 204.977 221.744 203.259 221.126C201.541 220.439 199.823 219.751 198.105 218.996C196.388 218.171 194.67 217.415 193.021 216.659Z" fill="#263238"/>
<path d="M198.105 204.016C199.823 203.603 201.541 203.191 203.259 202.847C204.977 202.504 206.695 202.16 208.481 201.885C210.199 201.611 211.986 201.267 213.704 201.061L216.315 200.717C217.208 200.649 218.033 200.511 218.926 200.442C218.102 200.649 217.208 200.855 216.384 201.061L213.773 201.611C212.055 201.954 210.337 202.298 208.55 202.573C206.832 202.847 205.046 203.191 203.328 203.397C201.61 203.603 199.823 203.878 198.105 204.016Z" fill="#263238"/>
<path d="M156.808 214.735C157.082 213.361 157.563 211.986 158.182 210.681C158.8 209.375 159.556 208.138 160.45 207.039C161.412 205.939 162.511 204.977 163.885 204.428C165.26 203.947 166.84 203.947 168.214 204.496C169.589 205.046 170.688 206.214 171.307 207.589C171.581 208.276 171.788 208.963 171.856 209.719C171.925 210.475 171.925 211.23 171.581 211.986C171.444 212.33 171.169 212.742 170.826 212.948C170.619 213.086 170.413 213.154 170.207 213.154C170.001 213.154 169.795 213.154 169.52 213.086C169.039 212.88 168.833 212.536 168.627 212.192C168.42 211.849 168.283 211.505 168.214 211.162C167.802 209.719 167.802 208.276 167.871 206.833C168.077 203.947 168.833 201.061 170.345 198.587C171.1 197.35 172.131 196.251 173.299 195.426C174.536 194.601 175.91 194.052 177.353 193.846C178.041 193.708 178.796 193.708 179.484 193.639C179.827 193.571 180.24 193.708 180.583 193.708C180.927 193.777 181.339 193.777 181.683 193.846C183.126 194.12 184.431 194.67 185.737 195.357C186.974 196.044 188.073 197.006 189.104 197.968C190.135 198.999 191.028 200.099 191.784 201.335C190.135 198.999 188.073 197.006 185.599 195.632C184.362 195.014 183.057 194.464 181.683 194.258C181.339 194.189 180.995 194.189 180.652 194.12C180.308 194.12 179.965 194.052 179.621 194.052C178.934 194.12 178.247 194.12 177.56 194.258C176.185 194.464 174.88 195.014 173.78 195.77C172.612 196.525 171.719 197.625 170.963 198.793C169.52 201.129 168.764 203.947 168.627 206.695C168.558 208.07 168.558 209.513 168.902 210.818C169.039 211.437 169.383 212.124 169.795 212.33C169.864 212.33 169.864 212.399 169.932 212.399C170.001 212.399 170.07 212.399 170.138 212.399C170.276 212.399 170.413 212.33 170.482 212.261C170.688 212.124 170.894 211.849 171.032 211.574C171.307 211.024 171.307 210.268 171.238 209.65C171.169 208.963 171.032 208.344 170.688 207.726C170.138 206.489 169.176 205.39 167.939 204.909C166.703 204.359 165.26 204.359 163.954 204.771C162.648 205.252 161.549 206.146 160.587 207.176C158.869 209.375 157.563 211.986 156.808 214.735Z" fill="#263238"/>
<path d="M93.3164 232.532C94.0036 231.295 94.9656 230.196 96.065 229.371C97.2332 228.546 98.5388 227.859 99.9131 227.516C101.287 227.172 102.799 227.172 104.242 227.584C105.616 227.997 106.922 228.821 107.884 229.852C108.915 230.883 109.671 232.188 110.152 233.494C110.633 234.868 110.976 236.311 110.839 237.754C110.77 238.51 110.633 239.266 110.014 239.884C109.739 240.228 109.258 240.365 108.846 240.434C108.434 240.434 108.021 240.365 107.678 240.159C107.334 239.953 106.991 239.61 106.853 239.266C106.647 238.922 106.578 238.51 106.578 238.098C106.578 237.342 106.716 236.586 106.922 235.899C107.403 234.525 108.159 233.219 109.052 232.12C109.945 230.951 110.976 229.989 112.144 229.096C114.481 227.378 117.435 226.485 120.321 226.829C121.765 227.035 123.139 227.447 124.444 228.134C125.681 228.821 126.781 229.783 127.674 230.951C128.567 232.051 129.254 233.357 129.804 234.662C130.354 235.968 130.766 237.342 130.904 238.716C130.354 235.968 129.186 233.288 127.399 231.158C126.506 230.058 125.406 229.165 124.238 228.546C123.001 227.859 121.696 227.516 120.321 227.378C117.573 227.103 114.756 227.928 112.557 229.577C110.358 231.226 108.502 233.494 107.609 236.036C107.403 236.655 107.266 237.342 107.266 237.96C107.266 238.579 107.472 239.197 108.021 239.472C108.296 239.61 108.571 239.678 108.915 239.678C109.19 239.678 109.464 239.541 109.671 239.335C110.083 238.922 110.22 238.235 110.289 237.548C110.426 236.174 110.152 234.8 109.671 233.563C109.19 232.257 108.434 231.089 107.54 230.058C106.578 229.027 105.41 228.272 104.105 227.859C102.799 227.447 101.356 227.378 100.05 227.653C97.3706 228.478 94.8281 230.127 93.3164 232.532Z" fill="#263238"/>
<path d="M61.5696 66.585C61.5009 63.7677 60.8824 60.8816 59.5768 58.4079C58.8897 57.171 58.0651 56.0716 56.8969 55.3157C55.7288 54.5598 54.3545 54.285 52.9802 54.4911C51.6746 54.6973 50.4377 55.5219 49.6131 56.5526C49.2008 57.1023 48.8573 57.7207 48.6511 58.3392C48.445 58.9576 48.3075 59.6448 48.3763 60.2632C48.445 60.5381 48.5137 60.8816 48.7198 61.0191C48.7885 61.0878 48.926 61.1565 49.0634 61.2252C49.1321 61.2252 49.2008 61.2252 49.2695 61.2939C49.3383 61.2939 49.407 61.2939 49.407 61.2939C49.888 61.2252 50.3003 60.6068 50.6439 59.9883C51.2623 58.8202 51.6746 57.4459 51.9494 56.0716C52.4305 53.323 52.4305 50.4369 51.5372 47.8258C51.1249 46.5202 50.4377 45.2833 49.5444 44.2526C48.6511 43.2218 47.483 42.3973 46.2461 41.8475C45.6276 41.504 44.9405 41.3665 44.3221 41.1604C43.9785 41.0229 43.6349 41.0229 43.2913 40.9542C42.9478 40.8855 42.6042 40.8168 42.2606 40.8168C40.8863 40.6794 39.4433 40.8855 38.1377 41.2291C35.3891 41.9162 32.9153 43.428 30.7852 45.2833C31.8159 44.2526 32.9153 43.428 34.1522 42.6721C35.3891 41.9162 36.6947 41.2978 38.069 40.8855C39.4433 40.5419 40.8863 40.2671 42.3293 40.3358C42.6729 40.3358 43.0165 40.4045 43.4288 40.4732C43.7723 40.5419 44.1846 40.5419 44.5282 40.6794C45.2154 40.8855 45.9025 41.0229 46.5897 41.3665C47.964 41.8475 49.2008 42.7408 50.1628 43.8403C51.1249 44.9397 51.812 46.2453 52.293 47.6196C53.1863 50.3682 53.255 53.3917 52.774 56.209C52.4992 57.652 52.0869 59.0263 51.3997 60.3319C51.1936 60.6755 50.9874 60.9504 50.7813 61.2939C50.5064 61.5688 50.2316 61.8437 49.6818 61.9811C49.407 61.9811 49.2008 61.9811 48.9947 61.9124C48.7885 61.8437 48.5824 61.7062 48.445 61.5688C48.1701 61.2252 48.0327 60.8129 47.964 60.4694C47.8265 59.7135 48.0327 58.9576 48.2388 58.2017C48.5137 57.5146 48.8573 56.8274 49.3383 56.2777C50.2316 55.1096 51.6059 54.2163 53.0489 54.0101C54.4919 53.804 56.0724 54.1476 57.2405 54.9721C58.4774 55.7967 59.302 57.0336 59.9891 58.2705C60.6076 59.5761 61.0199 60.9504 61.2947 62.3247C61.5009 63.7677 61.6383 65.142 61.5696 66.585Z" fill="#263238"/>
<path d="M213.292 102.454C210.544 101.836 207.589 101.767 204.909 102.523C203.535 102.866 202.229 103.485 201.267 104.378C200.305 105.34 199.618 106.646 199.549 107.951C199.412 109.326 199.962 110.631 200.786 111.731C201.198 112.28 201.748 112.693 202.298 113.105C202.848 113.449 203.466 113.723 204.153 113.792C204.497 113.792 204.772 113.792 204.978 113.655C205.115 113.586 205.184 113.517 205.253 113.38C205.321 113.311 205.321 113.242 205.321 113.174C205.321 113.105 205.321 113.036 205.39 113.036C205.39 112.555 204.909 111.937 204.428 111.525C203.397 110.631 202.16 109.944 200.924 109.394C198.381 108.295 195.564 107.608 192.815 107.814C191.441 107.951 190.067 108.226 188.83 108.913C187.593 109.532 186.562 110.425 185.738 111.593C185.256 112.143 184.982 112.761 184.569 113.311C184.363 113.586 184.294 113.93 184.157 114.273C184.02 114.617 183.882 114.892 183.813 115.235C183.401 116.541 183.264 117.984 183.264 119.358C183.332 122.175 184.157 124.924 185.463 127.466C184.707 126.23 184.157 124.924 183.745 123.55C183.332 122.175 182.989 120.801 182.92 119.358C182.851 117.915 182.989 116.472 183.401 115.098C183.47 114.754 183.676 114.411 183.745 114.067C183.882 113.723 183.951 113.38 184.157 113.105C184.501 112.487 184.844 111.799 185.325 111.25C186.15 110.082 187.249 109.051 188.555 108.364C189.86 107.676 191.303 107.333 192.746 107.195C195.633 106.921 198.587 107.608 201.198 108.707C202.504 109.326 203.81 110.013 204.909 111.044C205.184 111.318 205.459 111.593 205.665 111.868C205.871 112.212 206.077 112.555 206.077 113.036C206.008 113.311 205.94 113.517 205.802 113.655C205.665 113.861 205.527 113.998 205.321 114.067C204.909 114.273 204.497 114.342 204.084 114.273C203.329 114.204 202.573 113.861 201.954 113.449C201.336 113.036 200.786 112.555 200.305 111.937C199.343 110.769 198.862 109.257 199 107.745C199.137 106.233 199.893 104.859 200.924 103.897C202.023 102.935 203.397 102.317 204.772 102.042C206.146 101.698 207.589 101.63 209.032 101.698C210.475 101.836 211.918 102.042 213.292 102.454Z" fill="#263238"/>
<path d="M170.757 57.9959C170.276 56.3467 170.207 54.6289 170.482 52.911C170.757 51.2618 171.307 49.5439 172.269 48.1009C173.162 46.6579 174.468 45.421 175.979 44.5964C177.491 43.7719 179.278 43.4283 180.995 43.497C182.713 43.5657 184.431 43.978 186.012 44.7339C187.592 45.4897 189.035 46.4517 190.203 47.7573C190.753 48.4445 191.303 49.2004 191.303 50.2311C191.303 50.7121 191.097 51.2618 190.753 51.6054C190.409 51.949 189.997 52.2238 189.516 52.3613C189.035 52.4987 188.485 52.4987 188.073 52.2925C187.592 52.1551 187.249 51.8115 186.905 51.5367C186.218 50.9182 185.806 50.1624 185.393 49.3378C184.637 47.7573 184.225 46.0395 184.019 44.3903C183.813 42.6724 183.882 40.9545 184.156 39.2366C184.706 35.8696 186.493 32.5713 189.241 30.5098C190.616 29.4791 192.196 28.6545 193.845 28.2422C195.494 27.7612 197.281 27.6925 198.93 27.8986C200.648 28.1048 202.297 28.5858 203.809 29.2729C205.389 29.9601 206.832 30.7847 208.207 31.8154C205.389 29.9601 202.228 28.5858 198.861 28.2422C197.212 28.1048 195.494 28.1735 193.914 28.6545C192.333 29.0668 190.822 29.8914 189.516 30.9221C188.211 31.9528 187.111 33.2584 186.355 34.7014C185.531 36.1445 185.05 37.7249 184.706 39.3741C184.156 42.6037 184.5 46.1082 185.874 49.1316C186.218 49.8875 186.699 50.5747 187.249 51.1244C187.798 51.6741 188.554 52.0177 189.241 51.8115C189.585 51.7428 189.928 51.468 190.203 51.2618C190.478 50.9869 190.547 50.7121 190.547 50.3685C190.547 49.6126 190.135 48.9255 189.585 48.3071C188.554 47.0702 187.111 46.1082 185.668 45.421C184.156 44.7339 182.507 44.3216 180.858 44.2529C179.209 44.1841 177.56 44.5277 176.048 45.2149C174.536 45.9707 173.299 47.1389 172.406 48.5132C170.688 51.1244 170.001 54.6976 170.757 57.9959Z" fill="#263238"/>
<path d="M91.0479 232.67C89.5362 232.189 87.887 233.013 87.406 234.594C86.925 236.105 87.7496 237.755 89.33 238.236C90.8418 238.717 92.4909 237.892 92.972 236.312C93.453 234.8 92.5597 233.151 91.0479 232.67ZM92.6284 236.243C92.2161 237.617 90.7731 238.373 89.3988 237.892C88.0245 237.48 87.2686 236.037 87.7496 234.662C88.1619 233.288 89.6049 232.532 90.9792 233.013C92.2848 233.426 93.0407 234.869 92.6284 236.243ZM91.0479 232.67C89.5362 232.189 87.887 233.013 87.406 234.594C86.925 236.105 87.7496 237.755 89.33 238.236C90.8418 238.717 92.4909 237.892 92.972 236.312C93.453 234.8 92.5597 233.151 91.0479 232.67ZM92.6284 236.243C92.2161 237.617 90.7731 238.373 89.3988 237.892C88.0245 237.48 87.2686 236.037 87.7496 234.662C88.1619 233.288 89.6049 232.532 90.9792 233.013C92.2848 233.426 93.0407 234.869 92.6284 236.243ZM91.0479 232.67C89.5362 232.189 87.887 233.013 87.406 234.594C86.925 236.105 87.7496 237.755 89.33 238.236C90.8418 238.717 92.4909 237.892 92.972 236.312C93.453 234.8 92.5597 233.151 91.0479 232.67ZM92.6284 236.243C92.2161 237.617 90.7731 238.373 89.3988 237.892C88.0245 237.48 87.2686 236.037 87.7496 234.662C88.1619 233.288 89.6049 232.532 90.9792 233.013C92.2848 233.426 93.0407 234.869 92.6284 236.243ZM92.0099 229.578C88.7803 228.547 85.2758 230.333 84.3138 233.632C83.2831 236.861 85.0697 240.366 88.368 241.328C91.5976 242.359 95.1021 240.572 96.0641 237.274C97.0949 234.113 95.2395 230.608 92.0099 229.578ZM93.3842 236.518C92.8345 238.304 90.9105 239.266 89.1239 238.717C87.3373 238.167 86.3753 236.243 86.925 234.456C87.4747 232.67 89.3988 231.708 91.1854 232.257C92.9719 232.807 93.934 234.731 93.3842 236.518ZM92.972 236.38C93.453 234.869 92.6284 233.219 91.0479 232.738C89.5362 232.257 87.887 233.082 87.406 234.662C86.925 236.174 87.7496 237.823 89.33 238.304C90.8418 238.717 92.4909 237.892 92.972 236.38ZM92.6284 236.243C92.2161 237.617 90.7731 238.373 89.3988 237.892C88.0245 237.48 87.2686 236.037 87.7496 234.662C88.1619 233.288 89.6049 232.532 90.9792 233.013C92.2848 233.426 93.0407 234.869 92.6284 236.243ZM91.0479 232.67C89.5362 232.189 87.887 233.013 87.406 234.594C86.925 236.105 87.7496 237.755 89.33 238.236C90.8418 238.717 92.4909 237.892 92.972 236.312C93.453 234.8 92.5597 233.151 91.0479 232.67ZM92.6284 236.243C92.2161 237.617 90.7731 238.373 89.3988 237.892C88.0245 237.48 87.2686 236.037 87.7496 234.662C88.1619 233.288 89.6049 232.532 90.9792 233.013C92.2848 233.426 93.0407 234.869 92.6284 236.243ZM91.0479 232.67C89.5362 232.189 87.887 233.013 87.406 234.594C86.925 236.105 87.7496 237.755 89.33 238.236C90.8418 238.717 92.4909 237.892 92.972 236.312C93.453 234.8 92.5597 233.151 91.0479 232.67ZM92.6284 236.243C92.2161 237.617 90.7731 238.373 89.3988 237.892C88.0245 237.48 87.2686 236.037 87.7496 234.662C88.1619 233.288 89.6049 232.532 90.9792 233.013C92.2848 233.426 93.0407 234.869 92.6284 236.243Z" fill="#455A64"/>
<path d="M89.5363 241.465L87.2687 240.778L86.8564 242.358L88.9179 243.045L89.5363 241.465Z" fill="#455A64"/>
<path d="M85.4819 239.335L84.3825 237.273L82.9395 238.167L83.9015 240.022L85.4819 239.335Z" fill="#455A64"/>
<path d="M84.1078 235.006L84.7949 232.738L83.1458 232.326L82.5273 234.318L84.1078 235.006Z" fill="#455A64"/>
<path d="M86.2379 230.952L88.2994 229.852L87.4061 228.409L85.5508 229.371L86.2379 230.952Z" fill="#455A64"/>
<path d="M90.5674 229.578L92.835 230.265L93.1786 228.616L91.1858 227.997L90.5674 229.578Z" fill="#455A64"/>
<path d="M94.6211 231.639L95.7205 233.769L97.1636 232.876L96.2015 231.021L94.6211 231.639Z" fill="#455A64"/>
<path d="M95.9957 236.037L95.3086 238.304L96.9578 238.648L97.5762 236.655L95.9957 236.037Z" fill="#455A64"/>
<path d="M93.8652 240.091L91.8037 241.19L92.697 242.633L94.5523 241.603L93.8652 240.091Z" fill="#455A64"/>
<path d="M204.977 213.086C208.069 208.894 207.176 202.985 203.053 199.892C198.861 196.8 192.952 197.694 189.86 201.817C186.768 206.008 187.661 211.918 191.784 215.01C195.975 218.102 201.885 217.209 204.977 213.086ZM200.923 210.062C199.48 211.986 196.731 212.399 194.807 210.956C192.883 209.513 192.471 206.764 193.914 204.771C195.357 202.847 198.106 202.435 200.03 203.878C201.954 205.39 202.366 208.138 200.923 210.062Z" fill="#263238"/>
<path d="M193.502 215.766L190.616 213.636L189.241 215.766L191.784 217.69L193.502 215.766Z" fill="#263238"/>
<path d="M188.691 210.681L188.142 207.107L185.668 207.657L186.149 210.887L188.691 210.681Z" fill="#263238"/>
<path d="M188.898 203.672L191.028 200.786L188.898 199.412L186.974 202.023L188.898 203.672Z" fill="#263238"/>
<path d="M193.983 198.862L197.556 198.381L197.006 195.838L193.776 196.319L193.983 198.862Z" fill="#263238"/>
<path d="M200.991 199.068L203.877 201.267L205.252 199.068L202.64 197.144L200.991 199.068Z" fill="#263238"/>
<path d="M205.802 204.153L206.283 207.726L208.825 207.177L208.344 204.016L205.802 204.153Z" fill="#263238"/>
<path d="M205.595 211.162L203.396 214.048L205.595 215.422L207.519 212.88L205.595 211.162Z" fill="#263238"/>
<path d="M200.511 215.972L196.938 216.521L197.487 218.995L200.648 218.514L200.511 215.972Z" fill="#263238"/>
<path d="M194.052 207.863L196.044 210.406L199.205 209.925L200.374 206.901L198.381 204.359L195.22 204.84L194.052 207.863ZM197.831 206.627C198.312 206.97 198.381 207.588 198.037 208.07C197.694 208.551 197.075 208.619 196.594 208.276C196.113 207.932 196.044 207.314 196.388 206.833C196.732 206.352 197.419 206.283 197.831 206.627Z" fill="#263238"/>
<path d="M212.056 29.7534C210.681 29.3411 209.238 30.097 208.826 31.4025C208.414 32.7769 209.17 34.2199 210.475 34.6322C211.85 35.0445 213.224 34.2886 213.705 32.983C214.117 31.6087 213.361 30.1657 212.056 29.7534ZM213.43 32.8456C213.086 34.0137 211.781 34.7009 210.613 34.2886C209.445 33.945 208.757 32.6394 209.17 31.4713C209.513 30.3031 210.819 29.616 211.987 30.0282C213.155 30.4405 213.774 31.6774 213.43 32.8456ZM212.056 29.7534C210.681 29.3411 209.238 30.097 208.826 31.4025C208.414 32.7769 209.17 34.2199 210.475 34.6322C211.85 35.0445 213.224 34.2886 213.705 32.983C214.117 31.6087 213.361 30.1657 212.056 29.7534ZM213.43 32.8456C213.086 34.0137 211.781 34.7009 210.613 34.2886C209.445 33.945 208.757 32.6394 209.17 31.4713C209.513 30.3031 210.819 29.616 211.987 30.0282C213.155 30.4405 213.774 31.6774 213.43 32.8456ZM212.056 29.7534C210.681 29.3411 209.238 30.097 208.826 31.4025C208.414 32.7769 209.17 34.2199 210.475 34.6322C211.85 35.0445 213.224 34.2886 213.705 32.983C214.117 31.6087 213.361 30.1657 212.056 29.7534ZM213.43 32.8456C213.086 34.0137 211.781 34.7009 210.613 34.2886C209.445 33.945 208.757 32.6394 209.17 31.4713C209.513 30.3031 210.819 29.616 211.987 30.0282C213.155 30.4405 213.774 31.6774 213.43 32.8456ZM212.88 27.0735C210.063 26.1802 207.04 27.7606 206.146 30.578C205.253 33.3953 206.833 36.4188 209.651 37.3121C212.468 38.2054 215.492 36.6249 216.385 33.8076C217.278 30.9903 215.698 27.9668 212.88 27.0735ZM214.117 33.0517C213.636 34.6322 211.987 35.4567 210.407 34.9757C208.826 34.4947 208.002 32.8456 208.483 31.2651C208.964 29.6847 210.613 28.8601 212.193 29.3411C213.705 29.8908 214.598 31.54 214.117 33.0517ZM213.705 32.983C214.117 31.6087 213.361 30.2344 212.056 29.7534C210.681 29.3411 209.238 30.097 208.826 31.4025C208.414 32.7769 209.17 34.2199 210.475 34.6322C211.85 35.0445 213.293 34.2886 213.705 32.983ZM213.43 32.8456C213.086 34.0137 211.781 34.7009 210.613 34.2886C209.445 33.945 208.757 32.6394 209.17 31.4713C209.513 30.3031 210.819 29.616 211.987 30.0282C213.155 30.4405 213.774 31.6774 213.43 32.8456ZM212.056 29.7534C210.681 29.3411 209.238 30.097 208.826 31.4025C208.414 32.7769 209.17 34.2199 210.475 34.6322C211.85 35.0445 213.224 34.2886 213.705 32.983C214.117 31.6087 213.361 30.1657 212.056 29.7534ZM213.43 32.8456C213.086 34.0137 211.781 34.7009 210.613 34.2886C209.445 33.945 208.757 32.6394 209.17 31.4713C209.513 30.3031 210.819 29.616 211.987 30.0282C213.155 30.4405 213.774 31.6774 213.43 32.8456ZM212.056 29.7534C210.681 29.3411 209.238 30.097 208.826 31.4025C208.414 32.7769 209.17 34.2199 210.475 34.6322C211.85 35.0445 213.224 34.2886 213.705 32.983C214.117 31.6087 213.361 30.1657 212.056 29.7534ZM213.43 32.8456C213.086 34.0137 211.781 34.7009 210.613 34.2886C209.445 33.945 208.757 32.6394 209.17 31.4713C209.513 30.3031 210.819 29.616 211.987 30.0282C213.155 30.4405 213.774 31.6774 213.43 32.8456Z" fill="#263238"/>
<path d="M210.681 37.4495L208.757 36.8311L208.413 38.2741L210.131 38.8238L210.681 37.4495Z" fill="#263238"/>
<path d="M207.176 35.5941L206.214 33.7388L204.978 34.4946L205.802 36.1438L207.176 35.5941Z" fill="#263238"/>
<path d="M205.94 31.7466L206.558 29.7539L205.115 29.479L204.565 31.1969L205.94 31.7466Z" fill="#263238"/>
<path d="M207.795 28.2417L209.65 27.2797L208.826 25.9741L207.245 26.8674L207.795 28.2417Z" fill="#263238"/>
<path d="M211.643 27.0052L213.567 27.6236L213.91 26.1806L212.192 25.6309L211.643 27.0052Z" fill="#263238"/>
<path d="M215.147 28.8603L216.109 30.7156L217.346 29.891L216.522 28.3105L215.147 28.8603Z" fill="#263238"/>
<path d="M216.384 32.708L215.766 34.632L217.209 34.9756L217.758 33.2577L216.384 32.708Z" fill="#263238"/>
<path d="M214.529 36.2129L212.674 37.1749L213.43 38.4118L215.079 37.5872L214.529 36.2129Z" fill="#263238"/>
<path d="M185.804 127.948C184.429 127.535 183.055 128.291 182.574 129.597C182.162 130.971 182.918 132.414 184.223 132.826C185.598 133.239 186.972 132.483 187.453 131.177C187.865 129.803 187.109 128.36 185.804 127.948ZM187.178 131.04C186.835 132.208 185.529 132.895 184.361 132.483C183.193 132.139 182.505 130.834 182.918 129.665C183.261 128.497 184.567 127.81 185.735 128.222C186.835 128.566 187.522 129.872 187.178 131.04ZM185.804 127.948C184.429 127.535 183.055 128.291 182.574 129.597C182.162 130.971 182.918 132.414 184.223 132.826C185.598 133.239 186.972 132.483 187.453 131.177C187.865 129.803 187.109 128.36 185.804 127.948ZM187.178 131.04C186.835 132.208 185.529 132.895 184.361 132.483C183.193 132.139 182.505 130.834 182.918 129.665C183.261 128.497 184.567 127.81 185.735 128.222C186.835 128.566 187.522 129.872 187.178 131.04ZM185.804 127.948C184.429 127.535 183.055 128.291 182.574 129.597C182.162 130.971 182.918 132.414 184.223 132.826C185.598 133.239 186.972 132.483 187.453 131.177C187.865 129.803 187.109 128.36 185.804 127.948ZM187.178 131.04C186.835 132.208 185.529 132.895 184.361 132.483C183.193 132.139 182.505 130.834 182.918 129.665C183.261 128.497 184.567 127.81 185.735 128.222C186.835 128.566 187.522 129.872 187.178 131.04ZM186.628 125.199C183.811 124.306 180.788 125.886 179.894 128.703C179.001 131.521 180.581 134.544 183.399 135.438C186.216 136.331 189.24 134.75 190.133 131.933C191.026 129.116 189.446 126.092 186.628 125.199ZM187.797 131.246C187.316 132.826 185.666 133.651 184.086 133.17C182.505 132.689 181.681 131.04 182.162 129.459C182.643 127.879 184.292 127.054 185.873 127.535C187.453 128.016 188.278 129.734 187.797 131.246ZM187.453 131.108C187.865 129.734 187.109 128.36 185.804 127.879C184.429 127.467 183.055 128.222 182.574 129.528C182.162 130.902 182.918 132.345 184.223 132.758C185.598 133.239 187.041 132.483 187.453 131.108ZM187.178 131.04C186.835 132.208 185.529 132.895 184.361 132.483C183.193 132.139 182.505 130.834 182.918 129.665C183.261 128.497 184.567 127.81 185.735 128.222C186.835 128.566 187.522 129.872 187.178 131.04ZM185.804 127.948C184.429 127.535 183.055 128.291 182.574 129.597C182.162 130.971 182.918 132.414 184.223 132.826C185.598 133.239 186.972 132.483 187.453 131.177C187.865 129.803 187.109 128.36 185.804 127.948ZM187.178 131.04C186.835 132.208 185.529 132.895 184.361 132.483C183.193 132.139 182.505 130.834 182.918 129.665C183.261 128.497 184.567 127.81 185.735 128.222C186.835 128.566 187.522 129.872 187.178 131.04ZM185.804 127.948C184.429 127.535 183.055 128.291 182.574 129.597C182.162 130.971 182.918 132.414 184.223 132.826C185.598 133.239 186.972 132.483 187.453 131.177C187.865 129.803 187.109 128.36 185.804 127.948ZM187.178 131.04C186.835 132.208 185.529 132.895 184.361 132.483C183.193 132.139 182.505 130.834 182.918 129.665C183.261 128.497 184.567 127.81 185.735 128.222C186.835 128.566 187.522 129.872 187.178 131.04Z" fill="#263238"/>
<path d="M184.429 135.574L182.436 134.956L182.161 136.399L183.879 136.949L184.429 135.574Z" fill="#263238"/>
<path d="M180.856 133.719L179.963 131.933L178.657 132.688L179.551 134.338L180.856 133.719Z" fill="#263238"/>
<path d="M179.688 129.94L180.306 127.947L178.863 127.604L178.313 129.39L179.688 129.94Z" fill="#263238"/>
<path d="M181.543 126.367L183.398 125.405L182.574 124.168L180.993 124.993L181.543 126.367Z" fill="#263238"/>
<path d="M185.322 125.199L187.315 125.817L187.659 124.374L185.872 123.824L185.322 125.199Z" fill="#263238"/>
<path d="M188.896 127.053L189.858 128.84L191.094 128.084L190.27 126.435L188.896 127.053Z" fill="#263238"/>
<path d="M190.132 130.833L189.514 132.826L190.888 133.17L191.506 131.383L190.132 130.833Z" fill="#263238"/>
<path d="M188.277 134.406L186.422 135.368L187.178 136.605L188.827 135.781L188.277 134.406Z" fill="#263238"/>
<path d="M35.4566 50.6434C36.4873 46.3143 33.8761 41.9166 29.4784 40.8171C25.1493 39.7864 20.7515 42.3976 19.6521 46.7953C18.6214 51.1244 21.2325 55.5222 25.6303 56.6216C30.0281 57.6524 34.4259 54.9725 35.4566 50.6434ZM31.265 49.6127C30.784 51.6741 28.7225 52.911 26.661 52.3613C24.5996 51.8803 23.3627 49.8188 23.9124 47.7574C24.3934 45.6959 26.4549 44.459 28.5163 45.0088C30.5091 45.5585 31.8147 47.6199 31.265 49.6127Z" fill="#263238"/>
<path d="M27.2801 56.6212L24.2567 55.9341L23.9131 58.0643L26.593 58.7514L27.2801 56.6212Z" fill="#263238"/>
<path d="M21.7824 54.2165L20.1333 51.5366L18.3467 52.8422L19.7897 55.2472L21.7824 54.2165Z" fill="#263238"/>
<path d="M19.5843 48.5814L20.3401 45.5579L18.1413 45.2144L17.4541 47.8942L19.5843 48.5814Z" fill="#263238"/>
<path d="M21.9894 43.0847L24.6693 41.4355L23.3637 39.6489L21.0273 41.0919L21.9894 43.0847Z" fill="#263238"/>
<path d="M27.624 40.8857L30.6475 41.6415L30.9911 39.4427L28.3112 38.8242L27.624 40.8857Z" fill="#263238"/>
<path d="M33.1211 43.3593L34.7703 45.9705L36.5569 44.6649L35.1138 42.3286L33.1211 43.3593Z" fill="#263238"/>
<path d="M35.3203 48.9253L34.5645 51.9488L36.7633 52.2923L37.4505 49.6124L35.3203 48.9253Z" fill="#263238"/>
<path d="M32.9143 54.4224L30.2344 56.0715L31.54 57.8581L33.8763 56.4151L32.9143 54.4224Z" fill="#263238"/>
<path d="M25.0814 50.2307L27.4864 51.5363L29.8228 50.0933L29.754 47.3447L27.349 46.0391L25.0127 47.4134L25.0814 50.2307ZM27.6926 47.8944C28.1736 48.0318 28.4485 48.5128 28.311 48.9251C28.1736 49.4061 27.6926 49.681 27.2803 49.5435C26.7993 49.4061 26.5244 48.9251 26.6619 48.5128C26.7306 48.1005 27.2116 47.8257 27.6926 47.8944Z" fill="#263238"/>
<path d="M218.652 134.408C216.796 131.59 215.766 128.429 215.766 125.062C215.766 113.243 228.753 103.692 244.764 103.692C260.774 103.692 273.693 113.243 273.693 125.062C273.693 136.881 260.705 146.433 244.764 146.433C236.999 146.433 229.99 144.165 224.767 140.523L214.804 143.066L218.652 134.408Z" fill="white"/>
<path d="M218.652 134.407C216.934 131.796 215.834 128.773 215.697 125.612C215.628 122.451 216.384 119.29 218.033 116.541C219.614 113.793 221.881 111.456 224.424 109.601C226.966 107.746 229.852 106.303 232.807 105.341C235.83 104.31 238.922 103.76 242.083 103.486C245.244 103.279 248.405 103.417 251.497 103.967C252.253 104.104 253.078 104.241 253.834 104.448L256.101 105.066L258.369 105.822C259.125 106.097 259.812 106.44 260.568 106.784C263.454 108.158 266.065 109.945 268.333 112.144C270.6 114.411 272.387 117.091 273.349 120.183C274.311 123.207 274.38 126.574 273.418 129.666C272.524 132.758 270.738 135.507 268.539 137.774C266.34 140.042 263.66 141.829 260.843 143.272C258.025 144.646 254.933 145.608 251.841 146.158C248.749 146.707 245.588 146.914 242.427 146.707C239.266 146.501 236.174 145.952 233.15 144.921C230.127 143.959 227.31 142.584 224.698 140.729H224.836L214.803 143.203L214.666 143.272L214.735 143.134L218.652 134.407ZM218.652 134.407L214.872 143.134L214.803 142.997L224.767 140.386H224.836L224.905 140.454C230.058 144.027 236.243 145.814 242.427 146.158C245.519 146.364 248.68 146.089 251.704 145.539C254.727 144.99 257.75 144.096 260.568 142.653C263.316 141.279 265.928 139.492 268.058 137.293C270.188 135.095 271.906 132.415 272.73 129.46C273.624 126.505 273.555 123.344 272.593 120.389C271.7 117.435 269.982 114.824 267.783 112.625C265.584 110.426 262.973 108.708 260.224 107.334C259.537 107.059 258.85 106.646 258.094 106.372L255.895 105.616L253.628 104.997C252.872 104.791 252.116 104.722 251.36 104.516C248.268 103.967 245.176 103.829 242.083 104.035C238.991 104.241 235.899 104.791 232.944 105.753C229.99 106.715 227.172 108.089 224.63 109.876C222.087 111.663 219.888 113.93 218.308 116.61C216.659 119.29 215.834 122.382 215.903 125.474C215.903 128.773 216.934 131.796 218.652 134.407Z" fill="#263238"/>
<path d="M229.853 128.635V130.215H223.394V120.87H229.784V122.451H225.249V124.718H229.166V126.161H225.249V128.566H229.853V128.635Z" fill="#263238"/>
<path d="M231.296 130.215V120.87H235.419C235.831 120.87 236.243 120.939 236.587 121.145C236.931 121.351 237.274 121.557 237.549 121.832C237.824 122.107 238.03 122.451 238.167 122.863C238.305 123.206 238.374 123.619 238.374 123.962C238.374 124.581 238.236 125.13 237.893 125.611C237.618 126.092 237.205 126.436 236.656 126.711L238.786 130.215H236.724L234.8 127.054H233.014V130.215H231.296ZM233.082 125.474H235.35C235.488 125.474 235.694 125.405 235.831 125.337C235.969 125.268 236.106 125.13 236.175 124.993C236.312 124.856 236.381 124.718 236.45 124.512C236.518 124.306 236.518 124.1 236.518 123.894C236.518 123.687 236.45 123.481 236.381 123.275C236.312 123.069 236.243 122.932 236.106 122.794C235.969 122.657 235.831 122.519 235.694 122.451C235.556 122.382 235.35 122.313 235.213 122.313H233.014V125.474H233.082Z" fill="#263238"/>
<path d="M240.022 130.215V120.87H244.145C244.558 120.87 244.97 120.939 245.314 121.145C245.657 121.351 246.001 121.557 246.276 121.832C246.55 122.107 246.757 122.451 246.894 122.863C247.031 123.206 247.1 123.619 247.1 123.962C247.1 124.581 246.963 125.13 246.619 125.611C246.344 126.092 245.932 126.436 245.382 126.711L247.512 130.215H245.451L243.527 127.054H241.74V130.215H240.022ZM241.809 125.474H244.077C244.214 125.474 244.42 125.405 244.558 125.337C244.695 125.268 244.833 125.13 244.901 124.993C245.039 124.856 245.107 124.718 245.176 124.512C245.245 124.306 245.245 124.1 245.245 123.894C245.245 123.687 245.176 123.481 245.107 123.275C245.039 123.069 244.97 122.932 244.833 122.794C244.695 122.657 244.558 122.519 244.42 122.451C244.283 122.382 244.077 122.313 243.939 122.313H241.74V125.474H241.809Z" fill="#263238"/>
<path d="M252.734 130.284C252.047 130.284 251.429 130.147 250.879 129.872C250.329 129.597 249.848 129.254 249.436 128.773C249.024 128.36 248.749 127.811 248.543 127.261C248.337 126.711 248.199 126.093 248.199 125.543C248.199 124.925 248.337 124.306 248.543 123.757C248.749 123.207 249.093 122.657 249.505 122.245C249.917 121.832 250.398 121.489 250.948 121.214C251.498 120.939 252.116 120.802 252.803 120.802C253.49 120.802 254.109 120.939 254.658 121.214C255.208 121.489 255.689 121.832 256.101 122.313C256.514 122.794 256.789 123.276 256.995 123.825C257.201 124.375 257.338 124.993 257.338 125.543C257.338 126.162 257.201 126.78 256.995 127.33C256.789 127.879 256.445 128.429 256.033 128.841C255.62 129.254 255.139 129.597 254.59 129.872C253.971 130.147 253.422 130.284 252.734 130.284ZM250.055 125.543C250.055 125.955 250.123 126.368 250.261 126.711C250.398 127.055 250.536 127.398 250.81 127.742C251.085 128.086 251.36 128.292 251.635 128.429C251.979 128.635 252.322 128.704 252.803 128.704C253.215 128.704 253.628 128.635 253.971 128.429C254.315 128.223 254.59 128.017 254.796 127.742C255.002 127.467 255.208 127.124 255.346 126.711C255.483 126.368 255.552 125.955 255.552 125.543C255.552 125.131 255.483 124.719 255.346 124.375C255.208 124.031 255.071 123.688 254.796 123.344C254.59 123.069 254.246 122.794 253.971 122.657C253.628 122.52 253.284 122.382 252.803 122.382C252.391 122.382 251.979 122.451 251.635 122.657C251.291 122.863 251.017 123.069 250.81 123.344C250.604 123.619 250.398 123.963 250.261 124.375C250.055 124.787 250.055 125.131 250.055 125.543Z" fill="#263238"/>
<path d="M258.714 130.215V120.87H262.837C263.249 120.87 263.661 120.939 264.005 121.145C264.349 121.351 264.692 121.557 264.967 121.832C265.242 122.107 265.448 122.451 265.585 122.863C265.723 123.206 265.792 123.619 265.792 123.962C265.792 124.581 265.654 125.13 265.311 125.611C265.036 126.092 264.623 126.436 264.074 126.711L266.204 130.215H264.142L262.218 127.054H260.432V130.215H258.714ZM260.5 125.474H262.768C262.905 125.474 263.112 125.405 263.249 125.337C263.387 125.268 263.524 125.13 263.593 124.993C263.73 124.856 263.799 124.718 263.868 124.512C263.936 124.306 263.936 124.1 263.936 123.894C263.936 123.687 263.868 123.481 263.799 123.275C263.73 123.069 263.661 122.932 263.524 122.794C263.387 122.657 263.249 122.519 263.112 122.451C262.974 122.382 262.768 122.313 262.631 122.313H260.432V125.474H260.5Z" fill="#263238"/>
</g>
<defs>
<clipPath id="clip0_1033_8792">
<rect width="284" height="293.277" fill="white"/>
</clipPath>
</defs>
</svg>
