<svg width="284" height="292" viewBox="0 0 284 292" fill="none" xmlns="http://www.w3.org/2000/svg">
<path d="M33.8764 186.211L23.7065 186.417L18.5529 186.486C16.835 186.486 15.1171 186.486 13.3992 186.554H13.1244V186.28L13.0557 177.621V177.278H13.3992L23.6378 177.347C27.0736 177.347 30.5093 177.415 33.8764 177.484H34.0825V177.69C34.0825 179.133 34.0138 180.645 34.0138 182.088L33.8764 186.211ZM33.8764 186.211L33.8077 181.813C33.8077 180.37 33.7389 178.927 33.7389 177.484L33.9451 177.69C30.5093 177.759 27.0736 177.828 23.7065 177.828L13.468 177.896L13.8115 177.553L13.7428 186.211L13.468 185.936C15.1858 185.936 16.835 185.936 18.5529 186.005L23.6378 186.073L33.8764 186.211Z" fill="#EBEBEB"/>
<path d="M22.4008 197.137L12.2309 197.343L7.0773 197.411C5.35942 197.411 3.64153 197.411 1.92365 197.48H1.64879V197.205L1.58008 188.547V188.204H1.92365L12.1622 188.272C15.598 188.272 19.0337 188.341 22.4008 188.41H22.6069V188.616C22.6069 190.059 22.5382 191.571 22.5382 193.014L22.4008 197.137ZM22.4008 197.137L22.3321 192.739C22.3321 191.296 22.2634 189.853 22.2634 188.41L22.4695 188.616C19.0337 188.685 15.598 188.753 12.2309 188.753L1.99237 188.822L2.33595 188.478L2.26723 197.137L1.99237 196.862C3.71025 196.862 5.35942 196.862 7.0773 196.93L12.1622 196.999L22.4008 197.137Z" fill="#EBEBEB"/>
<path d="M22.4011 9.26927L12.2313 9.47542L7.07765 9.54413C5.35977 9.54413 3.64189 9.54413 1.92401 9.61285H1.64915V9.33799L1.51172 0.611154V0.267578H1.85529L12.0939 0.336293C15.5296 0.336293 18.9654 0.405009 22.3324 0.473724H22.5386V0.67987C22.5386 2.12289 22.4699 3.63462 22.4699 5.07764L22.4011 9.26927ZM22.4011 9.26927L22.2637 4.8715C22.2637 3.42848 22.195 1.98546 22.195 0.542439L22.4011 0.748585C18.9654 0.8173 15.5296 0.886015 12.1626 0.886015L1.85529 0.95473L2.19887 0.611154L2.13016 9.26927L1.85529 8.99441C3.57318 8.99441 5.22234 8.99441 6.94022 9.06313L12.0251 9.13184L22.4011 9.26927Z" fill="#EBEBEB"/>
<path d="M282.144 9.26892L271.974 9.47506L266.82 9.54378C265.103 9.54378 263.385 9.54378 261.667 9.61249H261.392V9.33763L261.323 0.679514V0.335938H261.667L271.905 0.404653C275.341 0.404653 278.777 0.473368 282.144 0.542083H282.35V0.748229C282.35 2.19125 282.281 3.70298 282.281 5.146L282.144 9.26892ZM282.144 9.26892L282.075 4.87114C282.075 3.42812 282.007 1.9851 282.007 0.542083L282.213 0.748229C278.777 0.816944 275.341 0.885659 271.974 0.885659L261.736 0.954375L262.079 0.610798L262.01 9.26892L261.736 8.99406C263.453 8.99406 265.103 8.99406 266.82 9.06277L271.905 9.13149L282.144 9.26892Z" fill="#EBEBEB"/>
<path d="M270.67 20.1952L260.5 20.4013L255.346 20.47C253.628 20.47 251.911 20.47 250.193 20.5388H249.918V20.2639L249.849 11.6058V11.2622H250.193L260.431 11.3309C263.867 11.3309 267.303 11.3996 270.67 11.4684H270.876V11.6745C270.876 13.1175 270.807 14.6293 270.807 16.0723L270.67 20.1952ZM270.67 20.1952L270.601 15.7974C270.601 14.3544 270.532 12.9114 270.532 11.4684L270.739 11.6745C267.303 11.7432 263.867 11.8119 260.5 11.8119L250.124 11.8806L250.468 11.5371L250.399 20.1952L250.124 19.9203C251.842 19.9203 253.491 19.9203 255.209 19.989L260.294 20.0578L270.67 20.1952Z" fill="#EBEBEB"/>
<path d="M218.034 121.756L207.864 121.962L202.71 122.031C200.992 122.031 199.274 122.031 197.556 122.099H197.282V121.824L197.213 113.166V112.823H197.556L207.795 112.891C211.231 112.891 214.667 112.96 218.034 113.029H218.24V113.235C218.24 114.678 218.171 116.19 218.171 117.633L218.034 121.756ZM218.034 121.756L217.965 117.358C217.965 115.915 217.896 114.472 217.896 113.029L218.102 113.235C214.667 113.304 211.231 113.372 207.864 113.372L197.625 113.441L197.969 113.098L197.9 121.756L197.625 121.481C199.343 121.481 200.992 121.481 202.71 121.55L207.795 121.618L218.034 121.756Z" fill="#EBEBEB"/>
<path d="M206.558 132.75L196.388 132.956L191.235 133.025C189.517 133.025 187.799 133.025 186.081 133.094H185.806V132.819L185.737 124.161V123.817H186.081L196.319 123.886C199.755 123.886 203.191 123.955 206.558 124.024H206.764V124.23C206.764 125.673 206.695 127.184 206.695 128.627L206.558 132.75ZM206.558 132.75L206.489 128.353C206.489 126.91 206.421 125.467 206.421 124.024L206.627 124.23C203.191 124.298 199.755 124.367 196.388 124.367L186.15 124.436L186.493 124.092L186.424 132.75L186.15 132.475C187.867 132.475 189.517 132.475 191.235 132.544L196.319 132.613L206.558 132.75Z" fill="#EBEBEB"/>
<path d="M195.151 121.756L184.981 121.962L179.827 122.031C178.109 122.031 176.392 122.031 174.674 122.099H174.399V121.824L174.33 113.166V112.823H174.674L184.912 112.891C188.348 112.891 191.784 112.96 195.151 113.029H195.357V113.235C195.357 114.678 195.288 116.19 195.288 117.633L195.151 121.756ZM195.151 121.756L195.082 117.358C195.082 115.915 195.013 114.472 195.013 113.029L195.22 113.235C191.784 113.304 188.348 113.372 184.981 113.372L174.742 113.441L175.086 113.098L175.017 121.756L174.742 121.481C176.46 121.481 178.109 121.481 179.827 121.55L184.912 121.618L195.151 121.756Z" fill="#EBEBEB"/>
<path d="M282.144 197.137L271.974 197.343L266.82 197.411C265.103 197.411 263.385 197.411 261.667 197.48H261.392V197.205L261.323 188.547V188.204H261.667L271.905 188.272C275.341 188.272 278.777 188.341 282.144 188.41H282.35V188.616C282.35 190.059 282.281 191.571 282.281 193.014L282.144 197.137ZM282.144 197.137L282.075 192.739C282.075 191.296 282.007 189.853 282.007 188.41L282.213 188.616C278.777 188.685 275.341 188.753 271.974 188.753L261.736 188.822L262.079 188.478L262.01 197.137L261.736 196.862C263.453 196.862 265.103 196.862 266.82 196.93L271.905 196.999L282.144 197.137Z" fill="#EBEBEB"/>
<path d="M107.608 35.1063L97.438 35.3125L92.2843 35.3812C90.5664 35.3812 88.8486 35.3812 87.1307 35.4499H86.8558V35.175L86.7871 26.5169V26.1733H87.1307L97.3692 26.2421C100.805 26.2421 104.241 26.3108 107.608 26.3795H107.814V26.5856C107.814 28.0286 107.745 29.5404 107.745 30.9834L107.608 35.1063ZM107.608 35.1063L107.539 30.7085C107.539 29.2655 107.47 27.8225 107.47 26.3795L107.677 26.5856C104.241 26.6543 100.805 26.7231 97.438 26.7231L87.1994 26.7918L87.543 26.4482L87.3368 35.1063L87.062 34.8315C88.7798 34.8315 90.429 34.8315 92.1469 34.9002L97.2318 34.9689L107.608 35.1063Z" fill="#EBEBEB"/>
<path d="M261.049 92.6208L265.104 86.0928L263.111 84.856C262.492 84.5124 262.218 83.8252 262.286 83.1381C262.286 82.7258 262.355 82.3822 262.355 81.9699C262.355 81.2828 262.699 80.6643 263.317 80.3207L265.379 79.2213L261.737 72.4872L259.675 73.5867C259.057 73.9302 258.301 73.8615 257.751 73.4492C257.408 73.2431 257.133 73.0369 256.789 72.8308C256.171 72.4872 255.827 71.8688 255.827 71.1816L255.896 68.8453L248.2 68.6392L248.131 70.9755C248.131 71.6626 247.719 72.2811 247.032 72.5559C246.894 72.6246 246.688 72.6934 246.551 72.8308C246.413 72.8995 246.207 73.0369 246.07 73.1056C245.451 73.4492 244.764 73.4492 244.146 73.1056L242.153 71.8688L238.099 78.3967L240.091 79.6336C240.71 79.9772 240.985 80.6643 240.916 81.3515C240.916 81.7638 240.847 82.1073 240.847 82.5196C240.847 83.2068 240.504 83.8252 239.885 84.1688L237.824 85.2682L241.466 92.0023L243.527 90.9029C244.146 90.5593 244.833 90.628 245.451 91.0403C245.795 91.2465 246.07 91.4526 246.413 91.6588C247.032 92.0023 247.375 92.6208 247.375 93.3079L247.306 95.6442L255.003 95.8504L255.071 93.5141C255.071 92.8269 255.484 92.2085 256.171 91.9336C256.308 91.8649 256.514 91.7962 256.652 91.6588C256.789 91.59 256.995 91.4526 257.133 91.3839C257.751 91.0403 258.438 90.9716 259.057 91.3839L261.049 92.6208ZM254.522 87.742C251.429 89.3912 247.65 88.223 246.001 85.1995C244.352 82.1073 245.52 78.328 248.543 76.6788C251.635 75.0297 255.415 76.1978 257.064 79.2213C258.713 82.3135 257.614 86.0928 254.522 87.742Z" fill="#EBEBEB"/>
<path d="M39.9923 166.489L44.0465 159.961L42.0538 158.725C41.4354 158.381 41.1605 157.694 41.2292 157.007C41.2292 156.594 41.2979 156.251 41.2979 155.839C41.2979 155.151 41.6415 154.533 42.2599 154.189L44.3214 153.09L40.6795 146.356L38.618 147.455C37.9996 147.799 37.2437 147.73 36.694 147.318C36.3504 147.112 36.0756 146.906 35.732 146.699C35.1136 146.356 34.77 145.737 34.77 145.05L34.8387 142.714L27.1426 142.508L27.0739 144.844C27.0739 145.531 26.6616 146.15 25.9744 146.425C25.837 146.493 25.6309 146.562 25.4934 146.699C25.356 146.768 25.1499 146.906 25.0124 146.974C24.394 147.318 23.7068 147.318 23.0884 146.974L21.0957 145.737L17.0415 152.265L19.0342 153.502C19.6526 153.846 19.9275 154.533 19.8588 155.22C19.8588 155.632 19.7901 155.976 19.7901 156.388C19.7901 157.075 19.4465 157.694 18.8281 158.037L16.7666 159.137L20.4085 165.871L22.47 164.772C23.0884 164.428 23.7756 164.497 24.394 164.909C24.7376 165.115 25.0124 165.321 25.356 165.527C25.9744 165.871 26.318 166.489 26.318 167.177L26.2493 169.513L33.9454 169.719L34.0141 167.383C34.0141 166.696 34.4264 166.077 35.1136 165.802C35.251 165.734 35.4571 165.665 35.5946 165.527C35.732 165.459 35.9381 165.321 36.0756 165.253C36.694 164.909 37.3812 164.84 37.9996 165.253L39.9923 166.489ZM33.4644 161.679C30.3722 163.329 26.5929 162.16 24.9437 159.137C23.2945 156.045 24.4627 152.265 27.4862 150.616C30.5784 148.967 34.3577 150.135 36.0069 153.159C37.656 156.182 36.5566 160.03 33.4644 161.679Z" fill="#EBEBEB"/>
<path d="M118.534 41.5653L115.854 36.8927L114.411 37.7173C113.999 37.9921 113.449 37.9234 113.037 37.6486C112.831 37.5111 112.556 37.3737 112.35 37.2363C111.937 37.0301 111.662 36.5491 111.662 36.0681V34.4189H106.303V36.0681C106.303 36.5491 106.028 36.9614 105.616 37.2363C105.409 37.3737 105.135 37.5111 104.928 37.6486C104.516 37.9234 104.035 37.9234 103.554 37.7173L102.111 36.8927L99.4312 41.5653L100.874 42.3899C101.286 42.6648 101.493 43.0771 101.493 43.5581C101.493 43.6955 101.493 43.8329 101.493 43.9704C101.493 44.1078 101.493 44.2452 101.493 44.3827C101.493 44.8637 101.286 45.3447 100.874 45.5508L99.4312 46.3754L102.111 51.048L103.554 50.2234C103.966 49.9486 104.516 50.0173 104.928 50.2922C105.135 50.4296 105.409 50.567 105.616 50.7045C106.028 50.9106 106.303 51.3916 106.303 51.8726V53.5218H111.662V51.8726C111.662 51.3916 111.937 50.9793 112.35 50.7045C112.556 50.567 112.831 50.4296 113.037 50.2922C113.449 50.0173 113.93 50.0173 114.411 50.2234L115.854 51.048L118.534 46.3754L117.091 45.5508C116.679 45.2759 116.473 44.8637 116.473 44.3827C116.473 44.2452 116.473 44.1078 116.473 43.9704C116.473 43.8329 116.473 43.6955 116.473 43.5581C116.473 43.0771 116.679 42.5961 117.091 42.3899L118.534 41.5653ZM113.38 43.9704C113.38 46.3754 111.388 48.3681 108.983 48.3681C106.578 48.3681 104.585 46.3754 104.585 43.9704C104.585 41.5653 106.578 39.5726 108.983 39.5726C111.388 39.5726 113.38 41.5653 113.38 43.9704Z" fill="#EBEBEB"/>
<path d="M31.2657 177.004C22.264 185.799 20.7522 199.405 22.6763 211.293C22.745 211.568 23.1573 211.499 23.1573 211.224C23.1573 208.544 23.0886 205.795 23.0886 203.116C23.1573 202.978 23.1573 202.909 23.226 202.772C25.5623 201.054 27.6925 199.13 29.0668 196.519C30.5785 193.564 31.1282 190.266 32.2964 187.174C32.4338 186.899 32.0903 186.967 31.8841 187.105C26.4556 191.159 24.669 195.488 23.0886 201.26C23.1573 198.237 23.3634 195.213 24.0506 192.259C25.2187 186.761 27.5551 181.333 31.5405 177.21C31.6093 177.141 31.4031 176.866 31.2657 177.004Z" fill="#263238"/>
<path d="M32.9152 178.034C34.4269 178.103 35.4577 180.577 36.6258 181.264C37.2443 181.676 37.8627 181.608 38.3437 180.989C39.5119 179.34 37.9314 177.278 36.351 176.11C37.4504 176.591 38.3437 177.347 39.5806 177.553C40.2677 177.691 40.8862 177.416 41.0236 176.66C41.5733 174.392 38.6873 173.362 36.7633 173.362C37.7253 172.675 40.4052 170.888 38.9621 170.063C37.5191 169.17 34.2895 171.713 33.2588 172.606C31.747 173.843 29.8917 175.698 29.823 177.622C29.7543 179.958 31.747 178.515 32.9152 178.034Z" fill="#21A092"/>
<path opacity="0.1" d="M32.9152 178.034C34.4269 178.103 35.4577 180.577 36.6258 181.264C37.2443 181.676 37.8627 181.608 38.3437 180.989C39.5119 179.34 37.9314 177.278 36.351 176.11C37.4504 176.591 38.3437 177.347 39.5806 177.553C40.2677 177.691 40.8862 177.416 41.0236 176.66C41.5733 174.392 38.6873 173.362 36.7633 173.362C37.7253 172.675 40.4052 170.888 38.9621 170.063C37.5191 169.17 34.2895 171.713 33.2588 172.606C31.747 173.843 29.8917 175.698 29.823 177.622C29.7543 179.958 31.747 178.515 32.9152 178.034Z" fill="black"/>
<path d="M32.5029 178.447C34.4956 177.553 38.275 178.859 38.6185 178.103C39.3057 176.591 36.2135 175.561 34.6331 175.354C36.1448 174.942 39.0308 174.324 38.9621 172.812C38.8247 171.025 34.5643 172.537 32.3655 174.255C29.6168 176.385 29.6168 178.378 30.0979 178.79C30.5789 179.34 32.1593 178.584 32.5029 178.447Z" fill="#21A092"/>
<path d="M10.7878 176.179C20.0644 184.631 22.1258 198.168 20.6828 210.124C20.6141 210.399 20.2018 210.33 20.2018 210.055C20.0644 207.375 20.0644 204.627 19.9957 201.947C19.9269 201.809 19.9269 201.741 19.8582 201.603C17.4532 200.023 15.2543 198.167 13.8113 195.556C12.2308 192.67 11.475 189.372 10.2381 186.348C10.1007 186.074 10.4442 186.142 10.6504 186.28C16.285 190.128 18.1404 194.388 19.9269 200.092C19.7208 197.068 19.3772 194.113 18.6214 191.09C17.2471 185.661 14.7046 180.302 10.5817 176.385C10.3755 176.247 10.6504 176.041 10.7878 176.179Z" fill="#263238"/>
<path d="M9.1387 177.278C7.62697 177.415 6.73367 179.889 5.56551 180.645C4.94708 181.057 4.32864 181.057 3.84763 180.439C2.61076 178.79 4.12249 176.728 5.63423 175.491C4.53478 175.972 3.64149 176.797 2.47333 177.072C1.78618 177.209 1.16774 177.003 1.03031 176.247C0.411871 173.979 3.22919 172.88 5.15322 172.743C4.19121 172.124 1.37388 170.406 2.8169 169.513C4.25992 168.551 7.55825 171.025 8.58898 171.781C10.1694 172.949 12.0247 174.735 12.1622 176.659C12.3683 178.996 10.3756 177.69 9.1387 177.278Z" fill="#21A092"/>
<path opacity="0.1" d="M9.1387 177.278C7.62697 177.415 6.73367 179.889 5.56551 180.645C4.94708 181.057 4.32864 181.057 3.84763 180.439C2.61076 178.79 4.12249 176.728 5.63423 175.491C4.53478 175.972 3.64149 176.797 2.47333 177.072C1.78618 177.209 1.16774 177.003 1.03031 176.247C0.411871 173.979 3.22919 172.88 5.15322 172.743C4.19121 172.124 1.37388 170.406 2.8169 169.513C4.25992 168.551 7.55825 171.025 8.58898 171.781C10.1694 172.949 12.0247 174.735 12.1622 176.659C12.3683 178.996 10.3756 177.69 9.1387 177.278Z" fill="black"/>
<path d="M9.61932 177.622C7.62658 176.797 3.84724 178.24 3.50367 177.484C2.81652 175.972 5.77127 174.804 7.42044 174.598C5.9087 174.255 2.95395 173.705 3.02266 172.262C3.09138 170.475 7.42044 171.85 9.68804 173.43C12.5054 175.423 12.5741 177.484 12.1618 177.896C11.5434 178.446 9.9629 177.759 9.61932 177.622Z" fill="#21A092"/>
<path d="M20.3399 198.442C21.0271 202.909 21.8517 207.513 23.226 211.773C23.3634 212.185 23.9131 212.048 23.8444 211.636C23.226 207.513 22.1265 203.459 21.5081 199.336C20.8897 195.144 20.5461 190.952 20.8209 186.761C21.2332 179.821 23.0885 172.468 27.6237 167.04C27.6925 166.902 27.4863 166.696 27.4176 166.833C18.3472 177.416 19.7902 190.334 19.7902 191.502C18.4846 187.104 17.179 182.088 12.369 177.69C12.1628 177.484 12.0254 177.622 12.0254 177.897C12.9187 186.005 15.1176 190.265 19.8589 194.594C19.9276 195.9 20.1338 197.206 20.3399 198.442Z" fill="#263238"/>
<path d="M27.6923 168.276C29.3415 167.521 31.5404 169.651 33.1896 169.788C34.0141 169.857 34.7013 169.513 34.8387 168.62C35.251 166.284 32.5024 164.978 30.3035 164.566C31.6778 164.497 33.0521 164.841 34.3577 164.497C35.1823 164.291 35.5946 163.741 35.3884 162.848C34.77 160.237 31.3343 160.58 29.2728 161.542C29.8912 160.374 31.8153 157.145 29.8912 156.938C27.8985 156.732 25.9057 160.993 25.2873 162.436C24.3253 164.497 23.3633 167.314 24.2566 169.376C25.356 171.85 26.6616 169.376 27.6923 168.276Z" fill="#21A092"/>
<path opacity="0.1" d="M27.6923 168.276C29.3415 167.521 31.5404 169.651 33.1896 169.788C34.0141 169.857 34.7013 169.513 34.8387 168.62C35.251 166.284 32.5024 164.978 30.3035 164.566C31.6778 164.497 33.0521 164.841 34.3577 164.497C35.1823 164.291 35.5946 163.741 35.3884 162.848C34.77 160.237 31.3343 160.58 29.2728 161.542C29.8912 160.374 31.8153 157.145 29.8912 156.938C27.8985 156.732 25.9057 160.993 25.2873 162.436C24.3253 164.497 23.3633 167.314 24.2566 169.376C25.356 171.85 26.6616 169.376 27.6923 168.276Z" fill="black"/>
<path d="M27.4174 168.895C28.9978 166.971 33.6017 166.421 33.533 165.459C33.4643 163.535 29.7537 164.016 27.9671 164.634C29.3414 163.466 32.0213 161.336 31.1967 159.893C30.166 158.106 26.4553 161.886 25.081 164.703C23.2944 168.276 24.3252 170.406 25.0123 170.613C25.9056 170.819 27.1425 169.238 27.4174 168.895Z" fill="#21A092"/>
<path d="M14.361 200.916L10.3755 231.426H34.7007C34.2197 228.746 29.6845 200.848 29.6845 200.848L14.361 200.916Z" fill="#21A092"/>
<path d="M0 231.494L35.5258 231.357L70.9828 231.288L141.966 231.15L212.948 231.288L248.474 231.357L284 231.494L248.474 231.7L212.948 231.769L141.966 231.838L70.9828 231.769L35.5258 231.7L0 231.494Z" fill="#263238"/>
<path d="M141.966 291.277C198.55 291.277 244.42 284.785 244.42 276.778C244.42 268.77 198.55 262.279 141.966 262.279C85.3816 262.279 39.5112 268.77 39.5112 276.778C39.5112 284.785 85.3816 291.277 141.966 291.277Z" fill="#EBEBEB"/>
<path d="M113.587 53.065C112.144 53.065 110.838 52.7901 109.67 52.2404C108.502 51.6907 107.471 50.9348 106.646 49.9728C105.822 49.0108 105.135 47.9801 104.722 46.7432C104.241 45.5063 104.035 44.3381 104.035 43.0326C104.035 41.727 104.31 40.4901 104.791 39.2532C105.272 38.0163 105.959 36.9856 106.784 36.0923C107.677 35.199 108.639 34.4432 109.876 33.8934C111.044 33.3437 112.35 33.0688 113.724 33.0688C115.167 33.0688 116.473 33.3437 117.641 33.9621C118.809 34.5119 119.84 35.3364 120.664 36.2297C121.489 37.1918 122.176 38.2225 122.588 39.4594C123.069 40.6962 123.275 41.8644 123.275 43.1013C123.275 44.4069 123.001 45.6437 122.52 46.8806C122.039 48.0488 121.351 49.1482 120.527 50.0415C119.702 50.9348 118.672 51.6907 117.503 52.2404C116.266 52.7901 114.961 53.065 113.587 53.065ZM107.883 43.0326C107.883 43.8571 108.021 44.6817 108.296 45.5063C108.57 46.3309 108.914 47.018 109.395 47.6365C109.876 48.2549 110.494 48.7359 111.182 49.0795C111.869 49.4231 112.693 49.6292 113.587 49.6292C114.48 49.6292 115.304 49.4231 116.06 49.0795C116.747 48.6672 117.366 48.1862 117.847 47.5678C118.328 46.9493 118.74 46.2622 118.946 45.4376C119.221 44.6817 119.29 43.8571 119.29 43.0326C119.29 42.208 119.153 41.3834 118.878 40.5588C118.603 39.7342 118.259 39.0471 117.709 38.4286C117.228 37.8102 116.61 37.3292 115.923 36.9856C115.236 36.642 114.411 36.4359 113.518 36.4359C112.625 36.4359 111.8 36.642 111.044 36.9856C110.288 37.3979 109.739 37.8789 109.258 38.4974C108.777 39.1158 108.433 39.8029 108.158 40.6275C108.021 41.4521 107.883 42.208 107.883 43.0326Z" fill="#263238"/>
<path d="M132.552 53.2023C131.384 53.2023 130.285 52.9962 129.391 52.5839C128.429 52.1716 127.673 51.6219 126.986 50.9347C126.299 50.2476 125.818 49.423 125.475 48.5297C125.131 47.6364 124.925 46.6744 124.925 45.6436C124.925 44.6129 125.131 43.6509 125.475 42.7576C125.818 41.8643 126.299 41.0397 126.986 40.3526C127.673 39.6654 128.429 39.1157 129.391 38.7034C130.353 38.2911 131.384 38.085 132.552 38.085C133.72 38.085 134.82 38.2911 135.713 38.7034C136.675 39.1157 137.431 39.6654 138.118 40.3526C138.805 41.0397 139.286 41.8643 139.63 42.7576C139.973 43.6509 140.18 44.6129 140.18 45.6436C140.18 46.6744 139.973 47.5677 139.63 48.5297C139.286 49.423 138.805 50.2476 138.118 50.9347C137.5 51.6219 136.675 52.1716 135.713 52.5839C134.751 52.9962 133.72 53.2023 132.552 53.2023ZM128.704 45.6436C128.704 46.2621 128.773 46.8805 128.979 47.4302C129.185 47.98 129.46 48.3922 129.804 48.8045C130.147 49.2168 130.559 49.4917 131.04 49.6978C131.521 49.904 132.002 50.0414 132.552 50.0414C133.102 50.0414 133.583 49.904 134.064 49.6978C134.545 49.4917 134.957 49.2168 135.301 48.8045C135.644 48.3922 135.919 47.98 136.125 47.4302C136.332 46.8805 136.4 46.3308 136.4 45.6436C136.4 45.0252 136.332 44.4068 136.125 43.9258C135.919 43.376 135.644 42.895 135.301 42.5514C134.957 42.1392 134.545 41.8643 134.064 41.6582C133.583 41.452 133.102 41.3146 132.552 41.3146C132.002 41.3146 131.521 41.452 131.04 41.6582C130.559 41.8643 130.147 42.2079 129.804 42.5514C129.46 42.9637 129.185 43.376 128.979 43.9258C128.842 44.4755 128.704 45.0252 128.704 45.6436Z" fill="#263238"/>
<path d="M151.311 53.2023C150.143 53.2023 149.181 52.9274 148.287 52.4464C147.463 51.9654 146.776 51.2783 146.295 50.385V58.837H142.584V38.3598H145.814V40.8336C146.363 40.009 147.05 39.3218 147.875 38.8408C148.7 38.3598 149.73 38.085 150.83 38.085C151.792 38.085 152.685 38.2911 153.578 38.7034C154.403 39.1157 155.159 39.6654 155.709 40.2838C156.327 40.971 156.808 41.7269 157.152 42.6889C157.495 43.5822 157.633 44.5442 157.633 45.5749C157.633 46.6056 157.495 47.6364 157.152 48.5297C156.808 49.423 156.396 50.2476 155.846 50.9347C155.296 51.6219 154.609 52.1716 153.853 52.5152C153.097 52.9962 152.273 53.2023 151.311 53.2023ZM150.074 50.0414C150.624 50.0414 151.173 49.904 151.586 49.6978C152.067 49.4917 152.479 49.1481 152.823 48.7358C153.166 48.3235 153.441 47.8425 153.578 47.2928C153.785 46.7431 153.853 46.1934 153.853 45.6436C153.853 45.0252 153.785 44.4755 153.578 43.9258C153.372 43.376 153.097 42.9637 152.754 42.5514C152.41 42.1392 151.998 41.8643 151.448 41.6582C150.967 41.452 150.418 41.3146 149.868 41.3146C149.524 41.3146 149.181 41.3833 148.768 41.5207C148.425 41.6582 148.081 41.7956 147.738 42.0017C147.394 42.2079 147.119 42.4827 146.913 42.7576C146.638 43.0325 146.501 43.376 146.363 43.7196V47.1554C146.707 47.98 147.188 48.6671 147.875 49.2168C148.562 49.7665 149.318 50.0414 150.074 50.0414Z" fill="#263238"/>
<path d="M165.742 53.2024C164.505 53.2024 163.337 52.9963 162.168 52.6527C161 52.2404 159.97 51.6907 159.145 51.0036L160.519 48.6672C161.413 49.2857 162.306 49.7667 163.13 50.1103C163.955 50.4538 164.78 50.5913 165.673 50.5913C166.429 50.5913 166.979 50.4538 167.391 50.179C167.803 49.9041 168.009 49.4918 168.009 49.0108C168.009 48.4611 167.734 48.1175 167.253 47.8427C166.772 47.5678 165.948 47.2929 164.78 47.0181C163.818 46.7432 163.062 46.5371 162.375 46.2622C161.687 46.0561 161.138 45.7812 160.794 45.4376C160.382 45.1628 160.107 44.7505 159.901 44.4069C159.695 43.9946 159.626 43.5136 159.626 42.9639C159.626 42.208 159.763 41.5896 160.038 40.9711C160.313 40.3527 160.725 39.8717 161.275 39.4594C161.825 39.0471 162.375 38.7035 163.062 38.4974C163.749 38.2912 164.505 38.1538 165.329 38.1538C166.429 38.1538 167.46 38.2912 168.422 38.6348C169.384 38.9784 170.277 39.4594 171.033 40.1465L169.521 42.4142C168.765 41.8644 168.078 41.4521 167.391 41.1773C166.704 40.9024 166.017 40.765 165.329 40.765C164.711 40.765 164.161 40.9024 163.749 41.1773C163.337 41.4521 163.13 41.8644 163.13 42.4142C163.13 42.689 163.199 42.8952 163.268 43.0326C163.337 43.17 163.543 43.3762 163.749 43.4449C163.955 43.5823 164.23 43.7197 164.642 43.7885C164.986 43.9259 165.467 44.0633 166.017 44.132C167.047 44.4069 167.872 44.6818 168.559 44.8879C169.246 45.1628 169.865 45.4376 170.277 45.7812C170.758 46.1248 171.033 46.4683 171.308 46.9494C171.514 47.3616 171.651 47.9114 171.651 48.5298C171.651 49.9728 171.101 51.0723 170.071 51.8969C168.971 52.7902 167.528 53.2024 165.742 53.2024Z" fill="#263238"/>
<path d="M174.743 45.5062V33H178.454V45.5062H174.743ZM174.743 52.9274V48.7358H178.454V52.9274H174.743Z" fill="#263238"/>
<path d="M156.121 183.943H131.728V185.936H156.121V183.943Z" fill="#37474F"/>
<path d="M156.121 186.485H131.728V188.478H156.121V186.485Z" fill="#37474F"/>
<path d="M156.121 189.097H131.728V191.089H156.121V189.097Z" fill="#37474F"/>
<path d="M156.121 191.708H131.728V193.7H156.121V191.708Z" fill="#37474F"/>
<path d="M156.121 194.319H131.728V196.312H156.121V194.319Z" fill="#37474F"/>
<path d="M166.705 246.268H120.322V248.261H166.705V246.268Z" fill="#37474F"/>
<path d="M166.705 248.879H120.322V250.872H166.705V248.879Z" fill="#37474F"/>
<path d="M166.705 251.491H120.322V253.483H166.705V251.491Z" fill="#37474F"/>
<path d="M166.705 254.102H120.322V256.094H166.705V254.102Z" fill="#37474F"/>
<path d="M166.705 256.713H120.322V258.706H166.705V256.713Z" fill="#37474F"/>
<path d="M99.9819 167.383C99.9819 167.108 89.812 163.672 89.812 163.672L90.4305 128.696L103.899 125.81L99.9819 167.383Z" fill="#21A092"/>
<path opacity="0.2" d="M99.9819 167.383C99.9819 167.108 89.812 163.672 89.812 163.672L90.4305 128.696L103.899 125.81L99.9819 167.383Z" fill="black"/>
<path d="M193.159 181.126C193.228 180.851 203.947 181.195 203.947 181.195L215.423 148.143L203.741 140.79L193.159 181.126Z" fill="#21A092"/>
<path opacity="0.2" d="M193.159 181.126C193.228 180.851 203.947 181.195 203.947 181.195L215.423 148.143L203.741 140.79L193.159 181.126Z" fill="black"/>
<path d="M97.9888 180.233C97.9888 180.233 101.768 123.68 105.066 105.058C105.066 105.058 173.369 110.212 210.269 124.298C210.269 124.298 191.235 190.334 190.273 193.632C190.273 193.701 142.173 184.218 97.9888 180.233Z" fill="#21A092"/>
<path opacity="0.1" d="M158.939 112.686C157.84 119.488 156.672 126.291 155.572 133.094L152.068 153.502L151.862 153.228L174.744 158.656L186.151 161.405L197.557 164.222L186.082 161.68L174.606 159.068L151.724 153.709L151.518 153.64L151.587 153.434L155.229 133.094C156.397 126.222 157.702 119.42 158.939 112.686Z" fill="black"/>
<path opacity="0.1" d="M156.466 116.534C156.466 117.152 155.985 117.771 155.297 117.839C154.954 117.839 154.542 117.771 154.267 117.496C153.992 117.221 153.786 116.877 153.786 116.465C153.786 116.053 153.923 115.709 154.267 115.434C154.542 115.16 154.954 115.091 155.297 115.091C155.985 115.297 156.466 115.915 156.466 116.534ZM156.466 116.534C156.466 116.19 156.328 115.915 156.122 115.709C155.916 115.503 155.572 115.434 155.297 115.434C154.748 115.503 154.335 115.984 154.335 116.534C154.335 117.015 154.679 117.565 155.297 117.633C155.572 117.633 155.916 117.565 156.122 117.358C156.328 117.152 156.466 116.877 156.466 116.534Z" fill="black"/>
<path opacity="0.1" d="M155.229 124.986C155.229 125.604 154.748 126.222 154.061 126.291C153.717 126.291 153.305 126.222 153.03 125.948C152.755 125.673 152.549 125.329 152.549 124.917C152.549 124.504 152.686 124.161 153.03 123.886C153.305 123.611 153.717 123.542 154.061 123.542C154.748 123.68 155.297 124.298 155.229 124.986ZM155.229 124.986C155.229 124.642 155.091 124.367 154.885 124.161C154.679 123.955 154.335 123.886 154.061 123.886C153.511 123.955 153.099 124.436 153.099 124.986C153.099 125.467 153.442 126.016 154.061 126.085C154.335 126.085 154.679 126.016 154.885 125.81C155.091 125.604 155.229 125.26 155.229 124.986Z" fill="black"/>
<path opacity="0.1" d="M153.785 133.85C153.785 134.469 153.304 135.087 152.617 135.156C152.274 135.156 151.861 135.087 151.586 134.812C151.312 134.537 151.105 134.194 151.105 133.782C151.105 133.369 151.243 133.026 151.586 132.751C151.861 132.476 152.274 132.407 152.617 132.407C153.304 132.613 153.785 133.232 153.785 133.85ZM153.785 133.85C153.785 133.507 153.648 133.232 153.442 133.026C153.236 132.82 152.892 132.751 152.617 132.751C152.067 132.82 151.655 133.301 151.655 133.85C151.655 134.331 151.999 134.881 152.617 134.95C152.892 134.95 153.236 134.881 153.442 134.675C153.648 134.469 153.785 134.194 153.785 133.85Z" fill="black"/>
<path opacity="0.1" d="M152.274 142.714C152.274 143.332 151.793 143.951 151.105 144.02C150.762 144.02 150.35 143.951 150.075 143.676C149.8 143.401 149.594 143.058 149.594 142.645C149.594 142.233 149.731 141.889 150.075 141.615C150.35 141.34 150.762 141.271 151.105 141.271C151.793 141.477 152.342 142.096 152.274 142.714ZM152.274 142.714C152.274 142.37 152.136 142.096 151.93 141.889C151.724 141.683 151.38 141.615 151.105 141.615C150.556 141.683 150.143 142.164 150.143 142.714C150.143 143.195 150.487 143.745 151.105 143.813C151.38 143.813 151.724 143.745 151.93 143.539C152.136 143.332 152.274 143.058 152.274 142.714Z" fill="black"/>
<path opacity="0.1" d="M157.359 156.938C157.359 157.557 156.878 158.175 156.19 158.244C155.847 158.244 155.435 158.175 155.16 157.9C154.885 157.625 154.679 157.282 154.679 156.869C154.679 156.457 154.816 156.114 155.16 155.839C155.435 155.564 155.847 155.495 156.19 155.495C156.878 155.633 157.359 156.32 157.359 156.938ZM157.359 156.938C157.359 156.595 157.221 156.32 157.015 156.114C156.809 155.907 156.465 155.839 156.19 155.839C155.641 155.907 155.228 156.388 155.228 156.938C155.228 157.419 155.572 157.969 156.19 158.038C156.465 158.038 156.809 157.969 157.015 157.763C157.221 157.557 157.359 157.213 157.359 156.938Z" fill="black"/>
<path opacity="0.1" d="M165.742 158.931C165.742 159.55 165.261 160.168 164.574 160.237C164.23 160.237 163.818 160.168 163.543 159.893C163.268 159.618 163.062 159.275 163.062 158.863C163.062 158.45 163.199 158.107 163.543 157.832C163.818 157.557 164.23 157.488 164.574 157.488C165.261 157.694 165.742 158.313 165.742 158.931ZM165.742 158.931C165.742 158.588 165.604 158.313 165.398 158.107C165.192 157.901 164.849 157.832 164.574 157.832C164.024 157.901 163.612 158.382 163.612 158.931C163.612 159.412 163.955 159.962 164.574 160.031C164.849 160.031 165.192 159.962 165.398 159.756C165.604 159.618 165.742 159.275 165.742 158.931Z" fill="black"/>
<path opacity="0.1" d="M174.126 160.992C174.126 161.611 173.645 162.229 172.958 162.298C172.614 162.298 172.202 162.229 171.927 161.954C171.652 161.679 171.446 161.336 171.446 160.924C171.446 160.511 171.583 160.168 171.927 159.893C172.202 159.618 172.614 159.549 172.958 159.549C173.645 159.755 174.126 160.374 174.126 160.992ZM174.126 160.992C174.126 160.649 173.988 160.374 173.782 160.168C173.576 159.962 173.232 159.893 172.958 159.893C172.408 159.962 171.996 160.443 171.996 160.992C171.996 161.473 172.339 162.023 172.958 162.092C173.232 162.092 173.576 162.023 173.782 161.817C173.988 161.611 174.126 161.336 174.126 160.992Z" fill="black"/>
<path opacity="0.1" d="M182.508 163.054C182.508 163.672 182.027 164.291 181.34 164.359C180.996 164.359 180.584 164.291 180.309 164.016C180.034 163.741 179.828 163.397 179.828 162.985C179.828 162.573 179.966 162.229 180.309 161.954C180.584 161.68 180.996 161.611 181.34 161.611C182.027 161.817 182.508 162.435 182.508 163.054ZM182.508 163.054C182.508 162.71 182.371 162.435 182.164 162.229C181.958 162.023 181.615 161.954 181.34 161.954C180.79 162.023 180.378 162.504 180.378 163.054C180.378 163.535 180.721 164.085 181.34 164.153C181.615 164.153 181.958 164.085 182.164 163.878C182.371 163.672 182.508 163.397 182.508 163.054Z" fill="black"/>
<path opacity="0.1" d="M190.891 165.184C190.823 165.802 190.342 166.421 189.586 166.421C189.242 166.421 188.899 166.283 188.624 166.008C188.349 165.733 188.211 165.321 188.28 164.978C188.28 164.565 188.486 164.222 188.83 164.016C189.105 163.809 189.517 163.741 189.861 163.741C190.548 163.878 190.96 164.565 190.891 165.184ZM190.891 165.184C190.891 164.84 190.823 164.565 190.548 164.359C190.342 164.153 189.998 164.016 189.723 164.016C189.174 164.016 188.761 164.497 188.693 164.978C188.624 165.459 188.967 166.008 189.517 166.146C189.792 166.214 190.136 166.146 190.342 165.94C190.685 165.802 190.891 165.527 190.891 165.184Z" fill="black"/>
<path opacity="0.1" d="M150.831 151.647C150.831 152.266 150.35 152.884 149.663 152.953C149.319 152.953 148.907 152.884 148.632 152.609C148.357 152.334 148.151 151.991 148.151 151.578C148.151 151.166 148.288 150.823 148.632 150.548C148.907 150.273 149.319 150.204 149.663 150.204C150.35 150.342 150.831 151.029 150.831 151.647ZM150.831 151.647C150.831 151.304 150.693 151.029 150.487 150.823C150.281 150.616 149.937 150.548 149.663 150.548C149.113 150.616 148.701 151.097 148.701 151.647C148.701 152.128 149.044 152.678 149.663 152.747C149.937 152.747 150.281 152.678 150.487 152.472C150.693 152.266 150.831 151.922 150.831 151.647Z" fill="black"/>
<path opacity="0.2" d="M136.695 166.316C144.653 159.161 145.304 146.909 138.148 138.951C130.993 130.993 118.741 130.342 110.783 137.498C102.825 144.653 102.175 156.905 109.33 164.863C116.485 172.821 128.737 173.472 136.695 166.316Z" fill="black"/>
<path d="M138.245 157.401C141.281 149.38 137.24 140.417 129.219 137.381C121.198 134.344 112.234 138.385 109.198 146.406C106.162 154.427 110.203 163.391 118.224 166.427C126.245 169.463 135.209 165.422 138.245 157.401Z" fill="#263238"/>
<path d="M122.795 146.187L119.132 145.594L118.539 149.257L122.202 149.85L122.795 146.187Z" fill="#21A092"/>
<path d="M119.766 141.999L116.103 141.406L115.51 145.069L119.172 145.662L119.766 141.999Z" fill="#21A092"/>
<path d="M134.336 144.338L130.673 143.745L130.08 147.408L133.743 148.001L134.336 144.338Z" fill="#21A092"/>
<path d="M117.435 156.431L113.772 155.837L113.179 159.5L116.842 160.093L117.435 156.431Z" fill="#21A092"/>
<path d="M131.995 158.837L128.332 158.244L127.739 161.907L131.401 162.5L131.995 158.837Z" fill="#21A092"/>
<path d="M121.623 153.401L117.96 152.808L117.367 156.471L121.03 157.064L121.623 153.401Z" fill="#21A092"/>
<path d="M125.886 150.384L122.223 149.791L121.63 153.454L125.293 154.047L125.886 150.384Z" fill="#21A092"/>
<path d="M130.069 147.424L126.406 146.831L125.813 150.494L129.476 151.087L130.069 147.424Z" fill="#21A092"/>
<path d="M128.911 154.569L125.249 153.976L124.655 157.639L128.318 158.232L128.911 154.569Z" fill="#21A092"/>
<path d="M190.743 172.325C197.526 164.047 196.314 151.838 188.036 145.055C179.758 138.272 167.548 139.484 160.765 147.762C153.983 156.04 155.195 168.25 163.473 175.033C171.751 181.815 183.96 180.603 190.743 172.325Z" fill="#21A092"/>
<path opacity="0.2" d="M190.743 172.325C197.526 164.047 196.314 151.838 188.036 145.055C179.758 138.272 167.548 139.484 160.765 147.762C153.983 156.04 155.195 168.25 163.473 175.033C171.751 181.815 183.96 180.603 190.743 172.325Z" fill="black"/>
<path opacity="0.2" d="M194.671 164.565C194.602 164.978 194.465 165.321 194.396 165.665L156.603 157.625C156.671 156.938 156.809 156.251 156.946 155.564C159.42 145.119 169.865 138.728 180.309 141.202C190.685 143.676 197.145 154.121 194.671 164.565Z" fill="black"/>
<path d="M181.747 174.369C189.661 171.063 193.396 161.967 190.089 154.053C186.783 146.139 177.687 142.404 169.774 145.711C161.86 149.017 158.125 158.113 161.431 166.026C164.737 173.94 173.833 177.675 181.747 174.369Z" fill="#263238"/>
<path d="M179.702 151.562L176.092 150.704L171.85 168.554L175.461 169.412L179.702 151.562Z" fill="#21A092"/>
<path d="M195.771 164.153L156.053 154.739C158.664 143.744 169.659 137.01 180.653 139.621C191.579 142.233 198.382 153.227 195.771 164.153Z" fill="#21A092"/>
<path opacity="0.2" d="M195.771 164.153L156.053 154.739C158.664 143.744 169.659 137.01 180.653 139.621C191.579 142.233 198.382 153.227 195.771 164.153Z" fill="black"/>
<path opacity="0.1" d="M142.035 171.575C142.104 169.994 142.722 168.482 143.822 167.177C144.371 166.558 145.127 166.077 145.952 165.734C146.777 165.459 147.67 165.39 148.494 165.459C149.319 165.528 150.212 165.871 150.899 166.421C151.587 166.971 152.136 167.658 152.48 168.482C153.098 169.994 153.167 171.643 152.892 173.155C152.617 171.643 152.274 170.132 151.518 168.963C150.831 167.726 149.663 166.971 148.357 166.833C146.983 166.696 145.677 167.039 144.578 167.933C143.478 168.895 142.654 170.2 142.035 171.575Z" fill="black"/>
<path d="M103.279 131.994C103.417 129.933 103.692 127.871 103.898 125.81C104.104 123.748 104.379 121.687 104.585 119.625C104.791 117.564 105.066 115.503 105.341 113.441C105.616 111.38 105.89 109.318 106.165 107.257L106.234 106.707L106.784 106.776C111.25 107.051 115.717 107.394 120.183 107.875C122.382 108.081 124.65 108.356 126.849 108.631C129.048 108.975 131.315 109.249 133.514 109.662L120.115 108.837L106.715 107.944L107.333 107.463C107.059 109.524 106.715 111.586 106.44 113.647C106.097 115.709 105.822 117.77 105.478 119.763C105.135 121.824 104.791 123.886 104.447 125.879C104.104 127.94 103.76 130.001 103.279 131.994Z" fill="white"/>
<path d="M106.509 147.73C106.99 145.256 108.09 142.851 109.601 140.79C110.014 140.24 110.426 139.759 110.838 139.278C111.319 138.797 111.732 138.385 112.213 137.904C112.694 137.492 113.243 137.079 113.724 136.667C114.274 136.323 114.824 135.98 115.374 135.636C115.992 135.361 116.542 135.086 117.16 134.812L119.015 134.193L120.939 133.781C121.558 133.712 122.245 133.643 122.864 133.643C125.475 133.575 128.017 134.124 130.353 135.086C127.88 134.605 125.406 134.331 122.932 134.605C120.527 134.812 118.122 135.567 115.992 136.736C113.862 137.904 111.938 139.484 110.357 141.34C108.777 143.264 107.471 145.325 106.509 147.73Z" fill="white"/>
<path d="M160.038 152.952C160.793 150.547 162.305 148.348 164.092 146.493C164.504 146.012 165.054 145.6 165.535 145.187C166.016 144.775 166.566 144.432 167.115 144.019C167.665 143.676 168.215 143.332 168.764 143.057C169.383 142.782 169.933 142.508 170.551 142.233C171.169 142.027 171.788 141.82 172.406 141.614L174.33 141.271L176.254 141.133C176.873 141.133 177.56 141.202 178.178 141.271C180.721 141.546 183.195 142.439 185.394 143.744C182.988 142.92 180.583 142.37 178.11 142.233C175.636 142.095 173.231 142.508 170.963 143.401C168.696 144.225 166.566 145.6 164.779 147.249C162.924 148.829 161.274 150.753 160.038 152.952Z" fill="white"/>
<path d="M100.188 215.14C95.2404 215.14 84.3147 214.041 77.3058 205.039C68.3728 193.495 71.6024 171.438 71.7398 170.476L75.6566 171.094C75.6566 171.3 72.5644 192.464 80.4667 202.634C88.2315 212.598 102.249 211.155 102.387 211.155L102.799 215.072C102.662 215.003 101.7 215.14 100.188 215.14Z" fill="#21A092"/>
<path opacity="0.4" d="M100.188 215.14C95.2404 215.14 84.3147 214.041 77.3058 205.039C68.3728 193.495 71.6024 171.438 71.7398 170.476L75.6566 171.094C75.6566 171.3 72.5644 192.464 80.4667 202.634C88.2315 212.598 102.249 211.155 102.387 211.155L102.799 215.072C102.662 215.003 101.7 215.14 100.188 215.14Z" fill="white"/>
<path d="M76.7564 173.705C76.0692 173.705 75.3134 173.636 74.5575 173.499C68.0296 172.468 65.0748 168.483 63.8379 165.391C62.5323 162.298 62.2575 158.519 62.9446 154.19L71.2592 155.564C70.8469 158.244 70.9843 160.58 71.6028 162.161C72.0838 163.329 72.9771 164.703 75.9318 165.116C77.2374 165.322 78.6804 165.184 80.1922 162.917C81.3603 161.13 82.0475 158.794 82.3223 157.282L90.6369 158.656C90.4307 159.825 89.6061 164.016 87.2011 167.589C84.6586 171.644 80.948 173.705 76.7564 173.705Z" fill="#21A092"/>
<path d="M108.365 226.341C108.365 226.135 101.288 225.035 101.288 225.035L97.8521 202.084L106.373 198.717L108.365 226.341Z" fill="#21A092"/>
<path opacity="0.2" d="M108.365 226.341C108.365 226.135 101.288 225.035 101.288 225.035L97.8521 202.084L106.373 198.717L108.365 226.341Z" fill="black"/>
<path d="M177.904 226.41C177.904 226.203 184.982 225.241 184.982 225.241L188.899 202.359L180.447 198.786L177.904 226.41Z" fill="#21A092"/>
<path opacity="0.2" d="M177.904 226.41C177.904 226.203 184.982 225.241 184.982 225.241L188.899 202.359L180.447 198.786L177.904 226.41Z" fill="black"/>
<path d="M105.479 193.632C105.479 193.632 162.375 191.227 181.615 194.388C181.615 194.388 175.981 249.429 175.637 250.528C175.637 250.528 119.016 250.391 110.22 250.528C110.151 250.46 105.41 213.903 105.479 193.632Z" fill="#21A092"/>
<path opacity="0.2" d="M122.727 208.681C122.727 208.681 153.786 207.444 164.299 209.093C164.299 209.093 161.207 236.854 161.07 237.404C161.07 237.404 130.148 237.335 125.338 237.404C125.338 237.404 123.208 218.37 122.727 208.681Z" fill="black"/>
<path opacity="0.2" d="M126.987 237.335C126.3 237.335 125.681 237.335 125.338 237.335C125.338 237.335 123.208 218.301 122.727 208.681C122.727 208.681 123.414 208.681 124.651 208.612L126.987 237.335Z" fill="black"/>
<path d="M136.127 215.553C134.409 215.003 132.553 215.965 132.004 217.683C131.454 219.401 132.416 221.256 134.134 221.806C135.852 222.355 137.707 221.393 138.257 219.675C138.875 217.958 137.913 216.102 136.127 215.553ZM137.913 219.538C137.432 221.05 135.783 221.943 134.271 221.462C132.76 220.981 131.866 219.332 132.347 217.82C132.828 216.308 134.477 215.415 135.989 215.896C137.57 216.377 138.394 218.026 137.913 219.538ZM136.127 215.553C134.409 215.003 132.553 215.965 132.004 217.683C131.454 219.401 132.416 221.256 134.134 221.806C135.852 222.355 137.707 221.393 138.257 219.675C138.875 217.958 137.913 216.102 136.127 215.553ZM137.913 219.538C137.432 221.05 135.783 221.943 134.271 221.462C132.76 220.981 131.866 219.332 132.347 217.82C132.828 216.308 134.477 215.415 135.989 215.896C137.57 216.377 138.394 218.026 137.913 219.538ZM136.127 215.553C134.409 215.003 132.553 215.965 132.004 217.683C131.454 219.401 132.416 221.256 134.134 221.806C135.852 222.355 137.707 221.393 138.257 219.675C138.875 217.958 137.913 216.102 136.127 215.553ZM137.913 219.538C137.432 221.05 135.783 221.943 134.271 221.462C132.76 220.981 131.866 219.332 132.347 217.82C132.828 216.308 134.477 215.415 135.989 215.896C137.57 216.377 138.394 218.026 137.913 219.538ZM137.226 212.048C133.584 210.88 129.667 212.941 128.499 216.583C127.331 220.225 129.393 224.142 133.034 225.31C136.676 226.478 140.593 224.417 141.761 220.775C142.929 217.133 140.937 213.216 137.226 212.048ZM138.807 219.813C138.188 221.806 136.058 222.974 133.996 222.287C132.004 221.668 130.904 219.538 131.523 217.477C132.141 215.484 134.271 214.384 136.333 215.003C138.326 215.69 139.425 217.82 138.807 219.813ZM138.326 219.675C138.875 217.958 137.913 216.102 136.195 215.553C134.477 215.003 132.622 215.965 132.072 217.683C131.523 219.401 132.485 221.256 134.203 221.806C135.921 222.355 137.776 221.393 138.326 219.675ZM137.913 219.538C137.432 221.05 135.783 221.943 134.271 221.462C132.76 220.981 131.866 219.332 132.347 217.82C132.828 216.308 134.477 215.415 135.989 215.896C137.57 216.377 138.394 218.026 137.913 219.538ZM136.127 215.553C134.409 215.003 132.553 215.965 132.004 217.683C131.454 219.401 132.416 221.256 134.134 221.806C135.852 222.355 137.707 221.393 138.257 219.675C138.875 217.958 137.913 216.102 136.127 215.553ZM137.913 219.538C137.432 221.05 135.783 221.943 134.271 221.462C132.76 220.981 131.866 219.332 132.347 217.82C132.828 216.308 134.477 215.415 135.989 215.896C137.57 216.377 138.394 218.026 137.913 219.538ZM136.127 215.553C134.409 215.003 132.553 215.965 132.004 217.683C131.454 219.401 132.416 221.256 134.134 221.806C135.852 222.355 137.707 221.393 138.257 219.675C138.875 217.958 137.913 216.102 136.127 215.553ZM137.913 219.538C137.432 221.05 135.783 221.943 134.271 221.462C132.76 220.981 131.866 219.332 132.347 217.82C132.828 216.308 134.477 215.415 135.989 215.896C137.57 216.377 138.394 218.026 137.913 219.538Z" fill="#21A092"/>
<path d="M134.408 225.448L131.866 224.623L131.454 226.478L133.721 227.234L134.408 225.448Z" fill="#21A092"/>
<path d="M129.805 223.042L128.568 220.706L126.987 221.668L128.087 223.798L129.805 223.042Z" fill="#21A092"/>
<path d="M128.292 218.095L129.048 215.553L127.262 215.141L126.506 217.408L128.292 218.095Z" fill="#21A092"/>
<path d="M130.698 213.56L133.034 212.323L132.003 210.674L129.942 211.774L130.698 213.56Z" fill="#21A092"/>
<path d="M135.577 211.979L138.188 212.804L138.6 210.949L136.333 210.193L135.577 211.979Z" fill="#21A092"/>
<path d="M140.181 214.385L141.418 216.721L143.067 215.759L141.967 213.629L140.181 214.385Z" fill="#21A092"/>
<path d="M141.761 219.332L140.937 221.874L142.792 222.287L143.479 220.019L141.761 219.332Z" fill="#21A092"/>
<path d="M139.356 223.867L136.951 225.104L137.982 226.753L140.112 225.654L139.356 223.867Z" fill="#21A092"/>
<path d="M147.395 225.241C146.364 224.554 144.99 224.829 144.303 225.86C143.616 226.891 143.891 228.265 144.921 228.952C145.952 229.639 147.326 229.364 148.014 228.334C148.701 227.303 148.426 225.929 147.395 225.241ZM147.807 228.196C147.189 229.089 146.021 229.364 145.128 228.746C144.234 228.127 143.959 226.959 144.578 226.066C145.196 225.173 146.364 224.898 147.258 225.516C148.151 226.066 148.357 227.303 147.807 228.196ZM147.395 225.241C146.364 224.554 144.99 224.829 144.303 225.86C143.616 226.891 143.891 228.265 144.921 228.952C145.952 229.639 147.326 229.364 148.014 228.334C148.701 227.303 148.426 225.929 147.395 225.241ZM147.807 228.196C147.189 229.089 146.021 229.364 145.128 228.746C144.234 228.127 143.959 226.959 144.578 226.066C145.196 225.173 146.364 224.898 147.258 225.516C148.151 226.066 148.357 227.303 147.807 228.196ZM147.395 225.241C146.364 224.554 144.99 224.829 144.303 225.86C143.616 226.891 143.891 228.265 144.921 228.952C145.952 229.639 147.326 229.364 148.014 228.334C148.701 227.303 148.426 225.929 147.395 225.241ZM147.807 228.196C147.189 229.089 146.021 229.364 145.128 228.746C144.234 228.127 143.959 226.959 144.578 226.066C145.196 225.173 146.364 224.898 147.258 225.516C148.151 226.066 148.357 227.303 147.807 228.196ZM148.701 223.18C146.502 221.737 143.616 222.355 142.241 224.554C140.798 226.753 141.417 229.639 143.616 231.014C145.815 232.457 148.701 231.838 150.075 229.639C151.518 227.509 150.9 224.623 148.701 223.18ZM148.288 228.54C147.533 229.708 145.952 230.051 144.715 229.296C143.547 228.54 143.204 226.959 143.959 225.722C144.715 224.554 146.296 224.211 147.533 224.967C148.769 225.722 149.113 227.303 148.288 228.54ZM148.014 228.334C148.701 227.303 148.426 225.929 147.395 225.241C146.364 224.554 144.99 224.829 144.303 225.86C143.616 226.891 143.891 228.265 144.921 228.952C145.952 229.639 147.326 229.364 148.014 228.334ZM147.807 228.196C147.189 229.089 146.021 229.364 145.128 228.746C144.234 228.127 143.959 226.959 144.578 226.066C145.196 225.173 146.364 224.898 147.258 225.516C148.151 226.066 148.357 227.303 147.807 228.196ZM147.395 225.241C146.364 224.554 144.99 224.829 144.303 225.86C143.616 226.891 143.891 228.265 144.921 228.952C145.952 229.639 147.326 229.364 148.014 228.334C148.701 227.303 148.426 225.929 147.395 225.241ZM147.807 228.196C147.189 229.089 146.021 229.364 145.128 228.746C144.234 228.127 143.959 226.959 144.578 226.066C145.196 225.173 146.364 224.898 147.258 225.516C148.151 226.066 148.357 227.303 147.807 228.196ZM147.395 225.241C146.364 224.554 144.99 224.829 144.303 225.86C143.616 226.891 143.891 228.265 144.921 228.952C145.952 229.639 147.326 229.364 148.014 228.334C148.701 227.303 148.426 225.929 147.395 225.241ZM147.807 228.196C147.189 229.089 146.021 229.364 145.128 228.746C144.234 228.127 143.959 226.959 144.578 226.066C145.196 225.173 146.364 224.898 147.258 225.516C148.151 226.066 148.357 227.303 147.807 228.196Z" fill="#DBDBDB"/>
<path d="M144.441 231.357L142.929 230.395L142.311 231.494L143.685 232.388L144.441 231.357Z" fill="#DBDBDB"/>
<path d="M141.898 229.021L141.554 227.234L140.317 227.578L140.661 229.158L141.898 229.021Z" fill="#DBDBDB"/>
<path d="M141.83 225.516L142.792 224.005L141.692 223.386L140.799 224.761L141.83 225.516Z" fill="#DBDBDB"/>
<path d="M144.166 222.974L145.952 222.562L145.609 221.394L144.028 221.668L144.166 222.974Z" fill="#DBDBDB"/>
<path d="M147.67 222.836L149.182 223.867L149.801 222.699L148.426 221.806L147.67 222.836Z" fill="#DBDBDB"/>
<path d="M150.213 225.241L150.556 227.028L151.793 226.616L151.45 225.035L150.213 225.241Z" fill="#DBDBDB"/>
<path d="M150.35 228.746L149.319 230.258L150.487 230.808L151.312 229.502L150.35 228.746Z" fill="#DBDBDB"/>
<path d="M147.945 231.288L146.158 231.632L146.57 232.869L148.082 232.525L147.945 231.288Z" fill="#DBDBDB"/>
<path d="M180.173 244.069L182.372 244.481L188.625 202.153L186.151 201.672L180.173 244.069Z" fill="#21A092"/>
<path d="M161.001 237.404L164.231 209.093L186.083 201.672C186.083 201.672 180.104 244.55 180.104 244.069L161.001 237.404Z" fill="#21A092"/>
<path opacity="0.4" d="M161.001 237.404L164.231 209.093L186.083 201.672C186.083 201.672 180.104 244.55 180.104 244.069L161.001 237.404Z" fill="white"/>
<path d="M108.09 210.193C107.746 207.856 107.54 205.451 107.403 203.115C107.334 201.947 107.334 200.779 107.265 199.542C107.265 198.374 107.197 197.206 107.265 195.969V195.625H107.54C111.869 195.419 116.198 195.075 120.596 194.938C124.925 194.732 129.254 194.526 133.652 194.388C129.323 194.8 124.994 195.144 120.665 195.419C116.336 195.762 112.007 195.969 107.678 196.312L108.021 195.969V199.473L108.09 203.046C108.09 204.214 108.09 205.383 108.159 206.62L108.09 210.193Z" fill="white"/>
<path d="M167.323 209.506C168.697 208.887 170.071 208.269 171.446 207.719C172.82 207.17 174.263 206.62 175.637 206.139C177.08 205.658 178.455 205.177 179.898 204.764C181.341 204.352 182.784 204.009 184.295 203.734L184.639 203.665L184.57 204.009C184.227 205.864 183.883 207.651 183.471 209.506C183.608 207.651 183.883 205.795 184.089 203.94L184.364 204.215C182.921 204.558 181.478 204.971 180.035 205.383C178.592 205.795 177.218 206.276 175.775 206.689L167.323 209.506Z" fill="white"/>
<path opacity="0.1" d="M117.503 193.701L117.916 200.779L118.191 207.857L118.74 222.012L119.153 236.236L119.359 243.314L119.496 250.391L119.084 243.314L118.809 236.236L118.259 222.081L117.778 207.857L117.641 200.779L117.503 193.701Z" fill="black"/>
<path opacity="0.1" d="M115.511 197.962C115.649 198.58 115.305 199.267 114.618 199.473C114.274 199.542 113.862 199.542 113.587 199.336C113.243 199.13 113.037 198.786 112.969 198.443C112.9 198.099 112.969 197.687 113.243 197.343C113.45 197.068 113.793 196.862 114.137 196.793C114.755 196.862 115.374 197.343 115.511 197.962ZM115.511 197.962C115.442 197.687 115.236 197.412 114.961 197.206C114.687 197.068 114.343 197.068 114.137 197.137C113.587 197.343 113.312 197.893 113.45 198.374C113.518 198.855 113.999 199.267 114.618 199.267C114.893 199.267 115.168 199.13 115.374 198.855C115.511 198.649 115.58 198.305 115.511 197.962Z" fill="black"/>
<path opacity="0.1" d="M115.992 206.482C116.129 207.101 115.786 207.788 115.099 207.994C114.755 208.063 114.343 208.063 114.068 207.856C113.724 207.65 113.518 207.307 113.45 206.963C113.381 206.62 113.45 206.207 113.724 205.864C113.931 205.589 114.274 205.383 114.618 205.314C115.236 205.314 115.855 205.864 115.992 206.482ZM115.992 206.482C115.923 206.207 115.717 205.932 115.442 205.726C115.167 205.589 114.824 205.589 114.618 205.658C114.068 205.864 113.793 206.413 113.931 206.894C113.999 207.375 114.48 207.788 115.099 207.788C115.374 207.788 115.648 207.65 115.855 207.375C115.992 207.101 116.061 206.757 115.992 206.482Z" fill="black"/>
<path opacity="0.1" d="M116.266 215.484C116.404 216.103 116.06 216.79 115.373 216.996C115.03 217.065 114.617 217.065 114.342 216.858C113.999 216.652 113.793 216.309 113.724 215.965C113.655 215.622 113.724 215.209 113.999 214.866C114.205 214.591 114.549 214.385 114.892 214.316C115.579 214.316 116.198 214.866 116.266 215.484ZM116.266 215.484C116.198 215.209 115.992 214.934 115.717 214.728C115.442 214.591 115.098 214.591 114.892 214.659C114.342 214.866 114.068 215.415 114.205 215.896C114.274 216.377 114.755 216.79 115.373 216.79C115.648 216.79 115.923 216.652 116.129 216.377C116.266 216.103 116.335 215.759 116.266 215.484Z" fill="black"/>
<path opacity="0.1" d="M116.61 224.486C116.748 225.104 116.404 225.792 115.717 225.998C115.373 226.066 114.961 226.066 114.686 225.86C114.343 225.654 114.136 225.311 114.068 224.967C113.999 224.623 114.068 224.211 114.343 223.868C114.549 223.593 114.892 223.387 115.236 223.318C115.854 223.318 116.473 223.868 116.61 224.486ZM116.61 224.486C116.541 224.211 116.335 223.936 116.06 223.73C115.786 223.593 115.442 223.593 115.236 223.661C114.686 223.868 114.411 224.417 114.549 224.898C114.617 225.379 115.098 225.792 115.717 225.792C115.992 225.792 116.267 225.654 116.473 225.379C116.61 225.104 116.679 224.83 116.61 224.486Z" fill="black"/>
<path opacity="0.1" d="M116.885 233.488C117.023 234.106 116.679 234.793 115.992 234.999C115.648 235.068 115.236 235.068 114.961 234.862C114.618 234.656 114.411 234.312 114.343 233.968C114.274 233.625 114.343 233.213 114.618 232.869C114.824 232.594 115.167 232.388 115.511 232.319C116.198 232.319 116.816 232.869 116.885 233.488ZM116.885 233.488C116.816 233.213 116.61 232.938 116.335 232.732C116.061 232.594 115.717 232.594 115.511 232.663C114.961 232.869 114.686 233.419 114.824 233.9C114.892 234.381 115.373 234.793 115.992 234.793C116.267 234.793 116.542 234.656 116.748 234.381C116.885 234.106 116.954 233.831 116.885 233.488Z" fill="black"/>
<path opacity="0.1" d="M117.229 242.489C117.366 243.107 117.023 243.795 116.336 244.001C115.992 244.069 115.58 244.069 115.305 243.863C114.961 243.657 114.755 243.314 114.686 242.97C114.618 242.626 114.686 242.214 114.961 241.871C115.167 241.596 115.511 241.39 115.855 241.321C116.473 241.39 117.091 241.871 117.229 242.489ZM117.229 242.489C117.16 242.214 116.954 241.939 116.679 241.733C116.404 241.596 116.061 241.596 115.855 241.664C115.305 241.871 115.03 242.42 115.167 242.901C115.236 243.382 115.717 243.795 116.336 243.795C116.61 243.795 116.885 243.657 117.091 243.382C117.229 243.176 117.298 242.833 117.229 242.489Z" fill="black"/>
<path d="M120.036 256.236L87.813 266L88.9489 269.748L121.171 259.984L120.036 256.236Z" fill="#21A092"/>
<path opacity="0.4" d="M120.036 256.236L87.813 266L88.9489 269.748L121.171 259.984L120.036 256.236Z" fill="white"/>
<path d="M104.586 259.702L100.854 260.889L102.624 266.455L106.357 265.268L104.586 259.702Z" fill="#21A092"/>
<path d="M88.7119 275.334L80.3973 239.328L55.2476 245.237L67.6163 280.351L88.7119 275.334Z" fill="#21A092"/>
<path d="M94.2779 273.479L88.712 275.334L80.3975 239.328L88.3684 241.252L94.2779 273.479Z" fill="#21A092"/>
<path opacity="0.2" d="M94.2779 273.479L88.712 275.334L80.3975 239.328L88.3684 241.252L94.2779 273.479Z" fill="black"/>
<path d="M120.596 262.416C122.949 262.416 124.857 260.509 124.857 258.156C124.857 255.803 122.949 253.896 120.596 253.896C118.243 253.896 116.336 255.803 116.336 258.156C116.336 260.509 118.243 262.416 120.596 262.416Z" fill="#21A092"/>
<path d="M164.516 256.161L163.372 259.907L195.574 269.739L196.718 265.993L164.516 256.161Z" fill="#21A092"/>
<path opacity="0.4" d="M164.516 256.161L163.372 259.907L195.574 269.739L196.718 265.993L164.516 256.161Z" fill="white"/>
<path d="M179.933 259.549L178.151 265.111L181.881 266.306L183.663 260.744L179.933 259.549Z" fill="#21A092"/>
<path d="M195.839 275.266L204.223 239.328L229.304 245.306L216.866 280.351L195.839 275.266Z" fill="#21A092"/>
<path d="M190.274 273.41L195.84 275.266L204.223 239.328L196.183 241.183L190.274 273.41Z" fill="#21A092"/>
<path opacity="0.2" d="M190.274 273.41L195.84 275.266L204.223 239.328L196.183 241.183L190.274 273.41Z" fill="black"/>
<path d="M159.695 258.018C159.695 260.354 161.619 262.278 163.955 262.278C166.291 262.278 168.216 260.354 168.216 258.018C168.216 255.682 166.291 253.758 163.955 253.758C161.619 253.758 159.695 255.682 159.695 258.018Z" fill="#21A092"/>
<path d="M191.922 213.628C191.991 213.56 202.367 203.94 214.529 207.238C226.967 210.605 237.274 229.364 237.343 229.502L240.778 227.646C240.297 226.822 229.578 207.238 215.491 203.459C201.13 199.611 189.654 210.33 189.173 210.811L191.922 213.628Z" fill="#21A092"/>
<path opacity="0.4" d="M191.922 213.628C191.991 213.56 202.367 203.94 214.529 207.238C226.967 210.605 237.274 229.364 237.343 229.502L240.778 227.646C240.297 226.822 229.578 207.238 215.491 203.459C201.13 199.611 189.654 210.33 189.173 210.811L191.922 213.628Z" fill="white"/>
<path d="M232.739 248.398L240.16 244.482C239.473 243.107 238.58 240.771 238.442 238.71C238.305 235.961 239.335 234.999 240.572 234.381C243.183 233.006 244.764 233.556 245.795 234.174C247.306 235.068 248.818 236.854 250.055 239.259L257.476 235.343C255.415 231.495 252.941 228.677 250.055 226.959C247.169 225.241 242.496 223.867 236.587 226.959C231.983 229.364 229.647 233.762 229.99 239.259C230.334 243.52 232.189 247.368 232.739 248.398Z" fill="#21A092"/>
<path d="M193.503 200.504C195.152 199.405 196.801 198.305 198.45 197.274C200.1 196.244 201.817 195.213 203.467 194.251C205.185 193.289 206.834 192.258 208.552 191.365L211.163 189.991C212.056 189.51 212.881 189.097 213.774 188.616C212.949 189.166 212.125 189.716 211.3 190.265L208.826 191.846C207.177 192.877 205.459 193.907 203.81 194.869C202.092 195.831 200.443 196.862 198.725 197.755C196.939 198.717 195.221 199.679 193.503 200.504Z" fill="#263238"/>
<path d="M189.174 216.583C191.51 217.889 193.709 219.401 195.839 220.913C197.969 222.424 200.1 224.073 202.092 225.791C199.756 224.486 197.557 222.974 195.427 221.462C193.297 219.951 191.235 218.37 189.174 216.583Z" fill="#263238"/>
<path d="M193.021 214.659C194.808 215.209 196.595 215.827 198.313 216.446C200.099 217.064 201.817 217.751 203.535 218.37C205.253 219.057 206.971 219.744 208.689 220.5L211.231 221.599C212.056 222.012 212.949 222.355 213.773 222.768C212.88 222.493 211.987 222.218 211.094 221.943L208.482 221.05C206.696 220.431 204.978 219.744 203.26 219.126C201.542 218.439 199.824 217.751 198.106 216.996C196.389 216.171 194.671 215.415 193.021 214.659Z" fill="#263238"/>
<path d="M198.107 202.016C199.825 201.603 201.543 201.191 203.261 200.847C204.978 200.504 206.696 200.16 208.483 199.885C210.201 199.611 211.987 199.267 213.705 199.061L216.316 198.717C217.21 198.649 218.034 198.511 218.928 198.442C218.103 198.649 217.21 198.855 216.385 199.061L213.774 199.611C212.056 199.954 210.338 200.298 208.552 200.573C206.834 200.847 205.047 201.191 203.329 201.397C201.611 201.603 199.825 201.878 198.107 202.016Z" fill="#263238"/>
<path d="M156.808 212.735C157.082 211.361 157.563 209.986 158.182 208.681C158.8 207.375 159.556 206.138 160.45 205.039C161.412 203.939 162.511 202.977 163.885 202.428C165.26 201.947 166.84 201.947 168.214 202.496C169.589 203.046 170.688 204.214 171.307 205.589C171.581 206.276 171.788 206.963 171.856 207.719C171.925 208.475 171.925 209.23 171.581 209.986C171.444 210.33 171.169 210.742 170.826 210.948C170.619 211.086 170.413 211.154 170.207 211.154C170.001 211.154 169.795 211.154 169.52 211.086C169.039 210.88 168.833 210.536 168.627 210.192C168.42 209.849 168.283 209.505 168.214 209.162C167.802 207.719 167.802 206.276 167.871 204.833C168.077 201.947 168.833 199.061 170.345 196.587C171.1 195.35 172.131 194.251 173.299 193.426C174.536 192.601 175.91 192.052 177.353 191.846C178.041 191.708 178.796 191.708 179.484 191.639C179.827 191.571 180.24 191.708 180.583 191.708C180.927 191.777 181.339 191.777 181.683 191.846C183.126 192.12 184.431 192.67 185.737 193.357C186.974 194.044 188.073 195.006 189.104 195.968C190.135 196.999 191.028 198.099 191.784 199.335C190.135 196.999 188.073 195.006 185.599 193.632C184.362 193.014 183.057 192.464 181.683 192.258C181.339 192.189 180.995 192.189 180.652 192.12C180.308 192.12 179.965 192.052 179.621 192.052C178.934 192.12 178.247 192.12 177.56 192.258C176.185 192.464 174.88 193.014 173.78 193.77C172.612 194.525 171.719 195.625 170.963 196.793C169.52 199.129 168.764 201.947 168.627 204.695C168.558 206.07 168.558 207.513 168.902 208.818C169.039 209.437 169.383 210.124 169.795 210.33C169.864 210.33 169.864 210.399 169.932 210.399C170.001 210.399 170.07 210.399 170.138 210.399C170.276 210.399 170.413 210.33 170.482 210.261C170.688 210.124 170.894 209.849 171.032 209.574C171.307 209.024 171.307 208.268 171.238 207.65C171.169 206.963 171.032 206.344 170.688 205.726C170.138 204.489 169.176 203.39 167.939 202.909C166.703 202.359 165.26 202.359 163.954 202.771C162.648 203.252 161.549 204.146 160.587 205.176C158.869 207.375 157.563 209.986 156.808 212.735Z" fill="#263238"/>
<path d="M93.3159 230.532C94.0031 229.295 94.9651 228.196 96.0645 227.371C97.2327 226.546 98.5383 225.859 99.9126 225.516C101.287 225.172 102.799 225.172 104.242 225.584C105.616 225.997 106.922 226.821 107.884 227.852C108.914 228.883 109.67 230.188 110.151 231.494C110.632 232.868 110.976 234.311 110.838 235.754C110.77 236.51 110.632 237.266 110.014 237.884C109.739 238.228 109.258 238.365 108.846 238.434C108.433 238.434 108.021 238.365 107.677 238.159C107.334 237.953 106.99 237.61 106.853 237.266C106.647 236.922 106.578 236.51 106.578 236.098C106.578 235.342 106.715 234.586 106.922 233.899C107.403 232.525 108.158 231.219 109.052 230.12C109.945 228.951 110.976 227.989 112.144 227.096C114.48 225.378 117.435 224.485 120.321 224.829C121.764 225.035 123.138 225.447 124.444 226.134C125.681 226.821 126.78 227.783 127.674 228.951C128.567 230.051 129.254 231.357 129.804 232.662C130.353 233.968 130.766 235.342 130.903 236.716C130.353 233.968 129.185 231.288 127.399 229.158C126.505 228.058 125.406 227.165 124.238 226.546C123.001 225.859 121.695 225.516 120.321 225.378C117.572 225.103 114.755 225.928 112.556 227.577C110.357 229.226 108.502 231.494 107.609 234.036C107.403 234.655 107.265 235.342 107.265 235.96C107.265 236.579 107.471 237.197 108.021 237.472C108.296 237.61 108.571 237.678 108.914 237.678C109.189 237.678 109.464 237.541 109.67 237.335C110.082 236.922 110.22 236.235 110.289 235.548C110.426 234.174 110.151 232.8 109.67 231.563C109.189 230.257 108.433 229.089 107.54 228.058C106.578 227.027 105.41 226.272 104.104 225.859C102.799 225.447 101.356 225.378 100.05 225.653C97.3701 226.478 94.8277 228.127 93.3159 230.532Z" fill="#263238"/>
<path d="M61.5691 99.585C61.5004 96.7677 60.8819 93.8816 59.5763 91.4079C58.8892 90.171 58.0646 89.0716 56.8965 88.3157C55.7283 87.5598 54.354 87.285 52.9797 87.4911C51.6741 87.6973 50.4372 88.5219 49.6126 89.5526C49.2003 90.1023 48.8568 90.7207 48.6506 91.3392C48.4445 91.9576 48.3071 92.6448 48.3758 93.2632C48.4445 93.5381 48.5132 93.8816 48.7193 94.0191C48.7881 94.0878 48.9255 94.1565 49.0629 94.2252C49.1316 94.2252 49.2003 94.2252 49.2691 94.2939C49.3378 94.2939 49.4065 94.2939 49.4065 94.2939C49.8875 94.2252 50.2998 93.6068 50.6434 92.9883C51.2618 91.8202 51.6741 90.4459 51.949 89.0716C52.43 86.323 52.43 83.4369 51.5367 80.8258C51.1244 79.5202 50.4372 78.2833 49.5439 77.2526C48.6506 76.2218 47.4825 75.3973 46.2456 74.8475C45.6272 74.504 44.94 74.3665 44.3216 74.1604C43.978 74.0229 43.6344 74.0229 43.2908 73.9542C42.9473 73.8855 42.6037 73.8168 42.2601 73.8168C40.8858 73.6794 39.4428 73.8855 38.1372 74.2291C35.3886 74.9162 32.9148 76.428 30.7847 78.2833C31.8154 77.2526 32.9148 76.428 34.1517 75.6721C35.3886 74.9162 36.6942 74.2978 38.0685 73.8855C39.4428 73.5419 40.8858 73.2671 42.3288 73.3358C42.6724 73.3358 43.016 73.4045 43.4283 73.4732C43.7718 73.5419 44.1841 73.5419 44.5277 73.6794C45.2149 73.8855 45.902 74.0229 46.5892 74.3665C47.9635 74.8475 49.2003 75.7408 50.1624 76.8403C51.1244 77.9397 51.8115 79.2453 52.2925 80.6196C53.1858 83.3682 53.2545 86.3917 52.7735 89.209C52.4987 90.652 52.0864 92.0263 51.3992 93.3319C51.1931 93.6755 50.9869 93.9504 50.7808 94.2939C50.5059 94.5688 50.2311 94.8437 49.6814 94.9811C49.4065 94.9811 49.2003 94.9811 48.9942 94.9124C48.7881 94.8437 48.5819 94.7062 48.4445 94.5688C48.1696 94.2252 48.0322 93.8129 47.9635 93.4694C47.826 92.7135 48.0322 91.9576 48.2383 91.2017C48.5132 90.5146 48.8568 89.8274 49.3378 89.2777C50.2311 88.1096 51.6054 87.2163 53.0484 87.0101C54.4914 86.804 56.0719 87.1476 57.24 87.9721C58.4769 88.7967 59.3015 90.0336 59.9886 91.2705C60.6071 92.5761 61.0194 93.9504 61.2942 95.3247C61.5004 96.7677 61.6378 98.142 61.5691 99.585Z" fill="#263238"/>
<path d="M213.292 100.454C210.544 99.8357 207.589 99.767 204.909 100.523C203.535 100.866 202.229 101.485 201.267 102.378C200.305 103.34 199.618 104.646 199.549 105.951C199.412 107.326 199.962 108.631 200.786 109.731C201.198 110.28 201.748 110.693 202.298 111.105C202.848 111.449 203.466 111.723 204.153 111.792C204.497 111.792 204.772 111.792 204.978 111.655C205.115 111.586 205.184 111.517 205.253 111.38C205.321 111.311 205.321 111.242 205.321 111.174C205.321 111.105 205.321 111.036 205.39 111.036C205.39 110.555 204.909 109.937 204.428 109.525C203.397 108.631 202.16 107.944 200.924 107.394C198.381 106.295 195.564 105.608 192.815 105.814C191.441 105.951 190.067 106.226 188.83 106.913C187.593 107.532 186.562 108.425 185.738 109.593C185.256 110.143 184.982 110.761 184.569 111.311C184.363 111.586 184.294 111.93 184.157 112.273C184.02 112.617 183.882 112.892 183.813 113.235C183.401 114.541 183.264 115.984 183.264 117.358C183.332 120.175 184.157 122.924 185.463 125.466C184.707 124.23 184.157 122.924 183.745 121.55C183.332 120.175 182.989 118.801 182.92 117.358C182.851 115.915 182.989 114.472 183.401 113.098C183.47 112.754 183.676 112.411 183.745 112.067C183.882 111.723 183.951 111.38 184.157 111.105C184.501 110.487 184.844 109.799 185.325 109.25C186.15 108.082 187.249 107.051 188.555 106.364C189.86 105.676 191.303 105.333 192.746 105.195C195.633 104.921 198.587 105.608 201.198 106.707C202.504 107.326 203.81 108.013 204.909 109.044C205.184 109.318 205.459 109.593 205.665 109.868C205.871 110.212 206.077 110.555 206.077 111.036C206.008 111.311 205.94 111.517 205.802 111.655C205.665 111.861 205.527 111.998 205.321 112.067C204.909 112.273 204.497 112.342 204.084 112.273C203.329 112.204 202.573 111.861 201.954 111.449C201.336 111.036 200.786 110.555 200.305 109.937C199.343 108.769 198.862 107.257 199 105.745C199.137 104.233 199.893 102.859 200.924 101.897C202.023 100.935 203.397 100.317 204.772 100.042C206.146 99.6983 207.589 99.6295 209.032 99.6983C210.475 99.8357 211.918 100.042 213.292 100.454Z" fill="#263238"/>
<path d="M170.757 90.9954C170.276 89.3463 170.207 87.6284 170.482 85.9105C170.757 84.2613 171.307 82.5434 172.269 81.1004C173.162 79.6574 174.468 78.4205 175.979 77.5959C177.491 76.7714 179.278 76.4278 180.995 76.4965C182.713 76.5652 184.431 76.9775 186.012 77.7334C187.592 78.4892 189.035 79.4513 190.203 80.7568C190.753 81.444 191.303 82.1999 191.303 83.2306C191.303 83.7116 191.097 84.2613 190.753 84.6049C190.409 84.9485 189.997 85.2233 189.516 85.3608C189.035 85.4982 188.485 85.4982 188.073 85.292C187.592 85.1546 187.249 84.811 186.905 84.5362C186.218 83.9177 185.806 83.1619 185.393 82.3373C184.637 80.7568 184.225 79.039 184.019 77.3898C183.813 75.6719 183.882 73.954 184.156 72.2362C184.706 68.8691 186.493 65.5708 189.241 63.5093C190.616 62.4786 192.196 61.654 193.845 61.2417C195.494 60.7607 197.281 60.692 198.93 60.8981C200.648 61.1043 202.297 61.5853 203.809 62.2725C205.389 62.9596 206.832 63.7842 208.207 64.8149C205.389 62.9596 202.228 61.5853 198.861 61.2417C197.212 61.1043 195.494 61.173 193.914 61.654C192.333 62.0663 190.822 62.8909 189.516 63.9216C188.211 64.9523 187.111 66.2579 186.355 67.701C185.531 69.144 185.05 70.7244 184.706 72.3736C184.156 75.6032 184.5 79.1077 185.874 82.1312C186.218 82.887 186.699 83.5742 187.249 84.1239C187.798 84.6736 188.554 85.0172 189.241 84.811C189.585 84.7423 189.928 84.4675 190.203 84.2613C190.478 83.9865 190.547 83.7116 190.547 83.368C190.547 82.6122 190.135 81.925 189.585 81.3066C188.554 80.0697 187.111 79.1077 185.668 78.4205C184.156 77.7334 182.507 77.3211 180.858 77.2524C179.209 77.1837 177.56 77.5272 176.048 78.2144C174.536 78.9703 173.299 80.1384 172.406 81.5127C170.688 84.1239 170.001 87.6971 170.757 90.9954Z" fill="#263238"/>
<path d="M91.0479 230.669C89.5362 230.188 87.887 231.013 87.406 232.593C86.925 234.105 87.7496 235.754 89.33 236.235C90.8418 236.716 92.4909 235.892 92.972 234.311C93.453 232.799 92.5597 231.15 91.0479 230.669ZM92.6284 234.242C92.2161 235.617 90.7731 236.373 89.3988 235.892C88.0245 235.479 87.2686 234.036 87.7496 232.662C88.1619 231.288 89.6049 230.532 90.9792 231.013C92.2848 231.425 93.0407 232.868 92.6284 234.242ZM91.0479 230.669C89.5362 230.188 87.887 231.013 87.406 232.593C86.925 234.105 87.7496 235.754 89.33 236.235C90.8418 236.716 92.4909 235.892 92.972 234.311C93.453 232.799 92.5597 231.15 91.0479 230.669ZM92.6284 234.242C92.2161 235.617 90.7731 236.373 89.3988 235.892C88.0245 235.479 87.2686 234.036 87.7496 232.662C88.1619 231.288 89.6049 230.532 90.9792 231.013C92.2848 231.425 93.0407 232.868 92.6284 234.242ZM91.0479 230.669C89.5362 230.188 87.887 231.013 87.406 232.593C86.925 234.105 87.7496 235.754 89.33 236.235C90.8418 236.716 92.4909 235.892 92.972 234.311C93.453 232.799 92.5597 231.15 91.0479 230.669ZM92.6284 234.242C92.2161 235.617 90.7731 236.373 89.3988 235.892C88.0245 235.479 87.2686 234.036 87.7496 232.662C88.1619 231.288 89.6049 230.532 90.9792 231.013C92.2848 231.425 93.0407 232.868 92.6284 234.242ZM92.0099 227.577C88.7803 226.546 85.2758 228.333 84.3138 231.631C83.2831 234.861 85.0697 238.365 88.368 239.327C91.5976 240.358 95.1021 238.571 96.0641 235.273C97.0949 232.112 95.2395 228.608 92.0099 227.577ZM93.3842 234.517C92.8345 236.304 90.9105 237.266 89.1239 236.716C87.3373 236.166 86.3753 234.242 86.925 232.456C87.4747 230.669 89.3988 229.707 91.1854 230.257C92.9719 230.807 93.934 232.731 93.3842 234.517ZM92.972 234.38C93.453 232.868 92.6284 231.219 91.0479 230.738C89.5362 230.257 87.887 231.081 87.406 232.662C86.925 234.174 87.7496 235.823 89.33 236.304C90.8418 236.716 92.4909 235.892 92.972 234.38ZM92.6284 234.242C92.2161 235.617 90.7731 236.373 89.3988 235.892C88.0245 235.479 87.2686 234.036 87.7496 232.662C88.1619 231.288 89.6049 230.532 90.9792 231.013C92.2848 231.425 93.0407 232.868 92.6284 234.242ZM91.0479 230.669C89.5362 230.188 87.887 231.013 87.406 232.593C86.925 234.105 87.7496 235.754 89.33 236.235C90.8418 236.716 92.4909 235.892 92.972 234.311C93.453 232.799 92.5597 231.15 91.0479 230.669ZM92.6284 234.242C92.2161 235.617 90.7731 236.373 89.3988 235.892C88.0245 235.479 87.2686 234.036 87.7496 232.662C88.1619 231.288 89.6049 230.532 90.9792 231.013C92.2848 231.425 93.0407 232.868 92.6284 234.242ZM91.0479 230.669C89.5362 230.188 87.887 231.013 87.406 232.593C86.925 234.105 87.7496 235.754 89.33 236.235C90.8418 236.716 92.4909 235.892 92.972 234.311C93.453 232.799 92.5597 231.15 91.0479 230.669ZM92.6284 234.242C92.2161 235.617 90.7731 236.373 89.3988 235.892C88.0245 235.479 87.2686 234.036 87.7496 232.662C88.1619 231.288 89.6049 230.532 90.9792 231.013C92.2848 231.425 93.0407 232.868 92.6284 234.242Z" fill="#455A64"/>
<path d="M89.5363 239.464L87.2687 238.777L86.8564 240.358L88.9179 241.045L89.5363 239.464Z" fill="#455A64"/>
<path d="M85.4819 237.334L84.3825 235.273L82.9395 236.166L83.9015 238.022L85.4819 237.334Z" fill="#455A64"/>
<path d="M84.1078 233.005L84.7949 230.737L83.1458 230.325L82.5273 232.318L84.1078 233.005Z" fill="#455A64"/>
<path d="M86.2384 228.951L88.2999 227.852L87.4066 226.409L85.5513 227.371L86.2384 228.951Z" fill="#455A64"/>
<path d="M90.5674 227.577L92.835 228.264L93.1786 226.615L91.1858 225.997L90.5674 227.577Z" fill="#455A64"/>
<path d="M94.6211 229.638L95.7205 231.769L97.1636 230.875L96.2015 229.02L94.6211 229.638Z" fill="#455A64"/>
<path d="M95.9953 234.036L95.3081 236.304L96.9573 236.647L97.5757 234.655L95.9953 234.036Z" fill="#455A64"/>
<path d="M93.8652 238.09L91.8037 239.19L92.697 240.633L94.5523 239.602L93.8652 238.09Z" fill="#455A64"/>
<path d="M204.977 211.086C208.069 206.894 207.176 200.985 203.053 197.892C198.861 194.8 192.951 195.694 189.859 199.817C186.767 204.008 187.66 209.918 191.783 213.01C195.975 216.102 201.884 215.209 204.977 211.086ZM200.922 208.062C199.479 209.986 196.731 210.399 194.807 208.956C192.883 207.513 192.47 204.764 193.913 202.771C195.357 200.847 198.105 200.435 200.029 201.878C201.953 203.39 202.365 206.138 200.922 208.062Z" fill="#263238"/>
<path d="M193.502 213.766L190.616 211.636L189.241 213.766L191.784 215.69L193.502 213.766Z" fill="#263238"/>
<path d="M188.691 208.681L188.142 205.107L185.668 205.657L186.149 208.887L188.691 208.681Z" fill="#263238"/>
<path d="M188.898 201.672L191.028 198.786L188.898 197.412L186.974 200.023L188.898 201.672Z" fill="#263238"/>
<path d="M193.983 196.862L197.556 196.381L197.006 193.838L193.776 194.319L193.983 196.862Z" fill="#263238"/>
<path d="M200.991 197.068L203.877 199.267L205.252 197.068L202.64 195.144L200.991 197.068Z" fill="#263238"/>
<path d="M205.801 202.153L206.282 205.726L208.825 205.177L208.344 202.016L205.801 202.153Z" fill="#263238"/>
<path d="M205.595 209.162L203.396 212.048L205.595 213.422L207.519 210.88L205.595 209.162Z" fill="#263238"/>
<path d="M200.511 213.972L196.938 214.521L197.487 216.995L200.648 216.514L200.511 213.972Z" fill="#263238"/>
<path d="M194.052 205.863L196.044 208.406L199.205 207.925L200.374 204.901L198.381 202.359L195.22 202.84L194.052 205.863ZM197.831 204.627C198.312 204.97 198.381 205.588 198.037 206.07C197.694 206.551 197.075 206.619 196.594 206.276C196.113 205.932 196.044 205.314 196.388 204.833C196.732 204.352 197.419 204.283 197.831 204.627Z" fill="#263238"/>
<path d="M212.055 62.7529C210.681 62.3406 209.238 63.0965 208.826 64.4021C208.413 65.7764 209.169 67.2194 210.475 67.6317C211.849 68.044 213.223 67.2881 213.704 65.9825C214.117 64.6082 213.361 63.1652 212.055 62.7529ZM213.43 65.8451C213.086 67.0132 211.78 67.7004 210.612 67.2881C209.444 66.9445 208.757 65.6389 209.169 64.4708C209.513 63.3026 210.818 62.6155 211.987 63.0278C213.155 63.44 213.773 64.6769 213.43 65.8451ZM212.055 62.7529C210.681 62.3406 209.238 63.0965 208.826 64.4021C208.413 65.7764 209.169 67.2194 210.475 67.6317C211.849 68.044 213.223 67.2881 213.704 65.9825C214.117 64.6082 213.361 63.1652 212.055 62.7529ZM213.43 65.8451C213.086 67.0132 211.78 67.7004 210.612 67.2881C209.444 66.9445 208.757 65.6389 209.169 64.4708C209.513 63.3026 210.818 62.6155 211.987 63.0278C213.155 63.44 213.773 64.6769 213.43 65.8451ZM212.055 62.7529C210.681 62.3406 209.238 63.0965 208.826 64.4021C208.413 65.7764 209.169 67.2194 210.475 67.6317C211.849 68.044 213.223 67.2881 213.704 65.9825C214.117 64.6082 213.361 63.1652 212.055 62.7529ZM213.43 65.8451C213.086 67.0132 211.78 67.7004 210.612 67.2881C209.444 66.9445 208.757 65.6389 209.169 64.4708C209.513 63.3026 210.818 62.6155 211.987 63.0278C213.155 63.44 213.773 64.6769 213.43 65.8451ZM212.88 60.073C210.063 59.1797 207.039 60.7602 206.146 63.5775C205.252 66.3948 206.833 69.4183 209.65 70.3116C212.468 71.2049 215.491 69.6244 216.384 66.8071C217.278 63.9898 215.697 60.9663 212.88 60.073ZM214.117 66.0512C213.636 67.6317 211.987 68.4563 210.406 67.9753C208.826 67.4942 208.001 65.8451 208.482 64.2646C208.963 62.6842 210.612 61.8596 212.193 62.3406C213.704 62.8903 214.598 64.5395 214.117 66.0512ZM213.704 65.9825C214.117 64.6082 213.361 63.2339 212.055 62.7529C210.681 62.3406 209.238 63.0965 208.826 64.4021C208.413 65.7764 209.169 67.2194 210.475 67.6317C211.849 68.044 213.292 67.2881 213.704 65.9825ZM213.43 65.8451C213.086 67.0132 211.78 67.7004 210.612 67.2881C209.444 66.9445 208.757 65.6389 209.169 64.4708C209.513 63.3026 210.818 62.6155 211.987 63.0278C213.155 63.44 213.773 64.6769 213.43 65.8451ZM212.055 62.7529C210.681 62.3406 209.238 63.0965 208.826 64.4021C208.413 65.7764 209.169 67.2194 210.475 67.6317C211.849 68.044 213.223 67.2881 213.704 65.9825C214.117 64.6082 213.361 63.1652 212.055 62.7529ZM213.43 65.8451C213.086 67.0132 211.78 67.7004 210.612 67.2881C209.444 66.9445 208.757 65.6389 209.169 64.4708C209.513 63.3026 210.818 62.6155 211.987 63.0278C213.155 63.44 213.773 64.6769 213.43 65.8451ZM212.055 62.7529C210.681 62.3406 209.238 63.0965 208.826 64.4021C208.413 65.7764 209.169 67.2194 210.475 67.6317C211.849 68.044 213.223 67.2881 213.704 65.9825C214.117 64.6082 213.361 63.1652 212.055 62.7529ZM213.43 65.8451C213.086 67.0132 211.78 67.7004 210.612 67.2881C209.444 66.9445 208.757 65.6389 209.169 64.4708C209.513 63.3026 210.818 62.6155 211.987 63.0278C213.155 63.44 213.773 64.6769 213.43 65.8451Z" fill="#263238"/>
<path d="M210.681 70.449L208.757 69.8306L208.413 71.2736L210.131 71.8233L210.681 70.449Z" fill="#263238"/>
<path d="M207.176 68.5936L206.214 66.7383L204.978 67.4942L205.802 69.1433L207.176 68.5936Z" fill="#263238"/>
<path d="M205.94 64.7461L206.558 62.7534L205.115 62.4785L204.565 64.1964L205.94 64.7461Z" fill="#263238"/>
<path d="M207.795 61.2412L209.651 60.2792L208.826 58.9736L207.246 59.8669L207.795 61.2412Z" fill="#263238"/>
<path d="M211.643 60.0047L213.567 60.6231L213.911 59.1801L212.193 58.6304L211.643 60.0047Z" fill="#263238"/>
<path d="M215.148 61.8598L216.11 63.7151L217.347 62.8905L216.522 61.3101L215.148 61.8598Z" fill="#263238"/>
<path d="M216.384 65.7075L215.766 67.6315L217.209 67.9751L217.758 66.2572L216.384 65.7075Z" fill="#263238"/>
<path d="M214.529 69.2124L212.674 70.1744L213.43 71.4113L215.079 70.5867L214.529 69.2124Z" fill="#263238"/>
<path d="M185.804 125.948C184.43 125.535 183.056 126.291 182.575 127.597C182.162 128.971 182.918 130.414 184.224 130.826C185.598 131.239 186.972 130.483 187.453 129.177C187.866 127.803 187.11 126.36 185.804 125.948ZM187.179 129.04C186.835 130.208 185.529 130.895 184.361 130.483C183.193 130.139 182.506 128.834 182.918 127.665C183.262 126.497 184.567 125.81 185.736 126.222C186.835 126.566 187.522 127.872 187.179 129.04ZM185.804 125.948C184.43 125.535 183.056 126.291 182.575 127.597C182.162 128.971 182.918 130.414 184.224 130.826C185.598 131.239 186.972 130.483 187.453 129.177C187.866 127.803 187.11 126.36 185.804 125.948ZM187.179 129.04C186.835 130.208 185.529 130.895 184.361 130.483C183.193 130.139 182.506 128.834 182.918 127.665C183.262 126.497 184.567 125.81 185.736 126.222C186.835 126.566 187.522 127.872 187.179 129.04ZM185.804 125.948C184.43 125.535 183.056 126.291 182.575 127.597C182.162 128.971 182.918 130.414 184.224 130.826C185.598 131.239 186.972 130.483 187.453 129.177C187.866 127.803 187.11 126.36 185.804 125.948ZM187.179 129.04C186.835 130.208 185.529 130.895 184.361 130.483C183.193 130.139 182.506 128.834 182.918 127.665C183.262 126.497 184.567 125.81 185.736 126.222C186.835 126.566 187.522 127.872 187.179 129.04ZM186.629 123.199C183.812 122.306 180.788 123.886 179.895 126.703C179.001 129.521 180.582 132.544 183.399 133.438C186.217 134.331 189.24 132.75 190.133 129.933C191.027 127.116 189.446 124.092 186.629 123.199ZM187.797 129.246C187.316 130.826 185.667 131.651 184.086 131.17C182.506 130.689 181.681 129.04 182.162 127.459C182.643 125.879 184.293 125.054 185.873 125.535C187.453 126.016 188.278 127.734 187.797 129.246ZM187.453 129.108C187.866 127.734 187.11 126.36 185.804 125.879C184.43 125.467 183.056 126.222 182.575 127.528C182.162 128.902 182.918 130.345 184.224 130.758C185.598 131.239 187.041 130.483 187.453 129.108ZM187.179 129.04C186.835 130.208 185.529 130.895 184.361 130.483C183.193 130.139 182.506 128.834 182.918 127.665C183.262 126.497 184.567 125.81 185.736 126.222C186.835 126.566 187.522 127.872 187.179 129.04ZM185.804 125.948C184.43 125.535 183.056 126.291 182.575 127.597C182.162 128.971 182.918 130.414 184.224 130.826C185.598 131.239 186.972 130.483 187.453 129.177C187.866 127.803 187.11 126.36 185.804 125.948ZM187.179 129.04C186.835 130.208 185.529 130.895 184.361 130.483C183.193 130.139 182.506 128.834 182.918 127.665C183.262 126.497 184.567 125.81 185.736 126.222C186.835 126.566 187.522 127.872 187.179 129.04ZM185.804 125.948C184.43 125.535 183.056 126.291 182.575 127.597C182.162 128.971 182.918 130.414 184.224 130.826C185.598 131.239 186.972 130.483 187.453 129.177C187.866 127.803 187.11 126.36 185.804 125.948ZM187.179 129.04C186.835 130.208 185.529 130.895 184.361 130.483C183.193 130.139 182.506 128.834 182.918 127.665C183.262 126.497 184.567 125.81 185.736 126.222C186.835 126.566 187.522 127.872 187.179 129.04Z" fill="#263238"/>
<path d="M184.429 133.574L182.436 132.956L182.162 134.399L183.88 134.949L184.429 133.574Z" fill="#263238"/>
<path d="M180.857 131.719L179.963 129.933L178.658 130.688L179.551 132.338L180.857 131.719Z" fill="#263238"/>
<path d="M179.688 127.94L180.307 125.947L178.864 125.604L178.314 127.39L179.688 127.94Z" fill="#263238"/>
<path d="M181.544 124.367L183.399 123.405L182.575 122.168L180.994 122.993L181.544 124.367Z" fill="#263238"/>
<path d="M185.323 123.199L187.316 123.817L187.66 122.374L185.873 121.824L185.323 123.199Z" fill="#263238"/>
<path d="M188.896 125.053L189.858 126.84L191.095 126.084L190.271 124.435L188.896 125.053Z" fill="#263238"/>
<path d="M190.133 128.833L189.515 130.826L190.889 131.17L191.507 129.383L190.133 128.833Z" fill="#263238"/>
<path d="M188.278 132.406L186.422 133.368L187.178 134.605L188.827 133.781L188.278 132.406Z" fill="#263238"/>
<path d="M35.4566 83.6429C36.4873 79.3138 33.8761 74.9161 29.4784 73.8166C25.1493 72.7859 20.7515 75.3971 19.6521 79.7949C18.6214 84.1239 21.2325 88.5217 25.6303 89.6211C30.0281 90.6519 34.4259 87.972 35.4566 83.6429ZM31.265 82.6122C30.784 84.6736 28.7225 85.9105 26.661 85.3608C24.5996 84.8798 23.3627 82.8183 23.9124 80.7569C24.3934 78.6954 26.4549 77.4585 28.5163 78.0083C30.5091 78.558 31.8147 80.6194 31.265 82.6122Z" fill="#263238"/>
<path d="M27.2801 89.6207L24.2567 88.9336L23.9131 91.0638L26.593 91.7509L27.2801 89.6207Z" fill="#263238"/>
<path d="M21.7824 87.216L20.1333 84.5361L18.3467 85.8417L19.7897 88.2468L21.7824 87.216Z" fill="#263238"/>
<path d="M19.5838 81.5809L20.3397 78.5574L18.1408 78.2139L17.4536 80.8938L19.5838 81.5809Z" fill="#263238"/>
<path d="M21.9889 76.0842L24.6688 74.435L23.3632 72.6484L21.0269 74.0915L21.9889 76.0842Z" fill="#263238"/>
<path d="M27.623 73.8852L30.6465 74.6411L30.9901 72.4422L28.3102 71.8237L27.623 73.8852Z" fill="#263238"/>
<path d="M33.1206 76.3589L34.7698 78.97L36.5564 77.6644L35.1133 75.3281L33.1206 76.3589Z" fill="#263238"/>
<path d="M35.3198 81.9248L34.564 84.9483L36.7629 85.2919L37.45 82.612L35.3198 81.9248Z" fill="#263238"/>
<path d="M32.9143 87.4219L30.2344 89.071L31.54 90.8576L33.8763 89.4146L32.9143 87.4219Z" fill="#263238"/>
<path d="M25.0809 83.2302L27.486 84.5358L29.8223 83.0928L29.7536 80.3442L27.3485 79.0386L25.0122 80.4129L25.0809 83.2302ZM27.6921 80.8939C28.1731 81.0313 28.448 81.5123 28.3105 81.9246C28.1731 82.4056 27.6921 82.6805 27.2798 82.543C26.7988 82.4056 26.5239 81.9246 26.6614 81.5123C26.7301 81.1 27.2111 80.8252 27.6921 80.8939Z" fill="#263238"/>
<path d="M218.652 132.408C216.796 129.59 215.766 126.429 215.766 123.062C215.766 111.243 228.753 101.692 244.764 101.692C260.774 101.692 273.693 111.243 273.693 123.062C273.693 134.881 260.705 144.433 244.764 144.433C236.999 144.433 229.99 142.165 224.767 138.523L214.804 141.066L218.652 132.408Z" fill="white"/>
<path d="M218.652 132.407C216.934 129.796 215.834 126.773 215.697 123.612C215.628 120.451 216.384 117.29 218.033 114.541C219.614 111.793 221.881 109.456 224.424 107.601C226.966 105.746 229.852 104.303 232.807 103.341C235.83 102.31 238.922 101.76 242.083 101.486C245.244 101.279 248.405 101.417 251.497 101.967C252.253 102.104 253.078 102.241 253.834 102.448L256.101 103.066L258.369 103.822C259.125 104.097 259.812 104.44 260.568 104.784C263.454 106.158 266.065 107.945 268.333 110.144C270.6 112.411 272.387 115.091 273.349 118.183C274.311 121.207 274.38 124.574 273.418 127.666C272.524 130.758 270.738 133.507 268.539 135.774C266.34 138.042 263.66 139.829 260.843 141.272C258.025 142.646 254.933 143.608 251.841 144.158C248.749 144.707 245.588 144.914 242.427 144.707C239.266 144.501 236.174 143.952 233.15 142.921C230.127 141.959 227.31 140.584 224.698 138.729H224.836L214.803 141.203L214.666 141.272L214.735 141.134L218.652 132.407ZM218.652 132.407L214.872 141.134L214.803 140.997L224.767 138.386H224.836L224.905 138.454C230.058 142.027 236.243 143.814 242.427 144.158C245.519 144.364 248.68 144.089 251.704 143.539C254.727 142.99 257.75 142.096 260.568 140.653C263.316 139.279 265.928 137.492 268.058 135.293C270.188 133.095 271.906 130.415 272.73 127.46C273.624 124.505 273.555 121.344 272.593 118.389C271.7 115.435 269.982 112.824 267.783 110.625C265.584 108.426 262.973 106.708 260.224 105.334C259.537 105.059 258.85 104.646 258.094 104.372L255.895 103.616L253.628 102.997C252.872 102.791 252.116 102.722 251.36 102.516C248.268 101.967 245.176 101.829 242.083 102.035C238.991 102.241 235.899 102.791 232.944 103.753C229.99 104.715 227.172 106.089 224.63 107.876C222.087 109.663 219.888 111.93 218.308 114.61C216.659 117.29 215.834 120.382 215.903 123.474C215.903 126.773 216.934 129.796 218.652 132.407Z" fill="#263238"/>
<path d="M229.853 126.635V128.215H223.394V118.87H229.784V120.451H225.249V122.718H229.166V124.161H225.249V126.566H229.853V126.635Z" fill="#263238"/>
<path d="M231.296 128.215V118.87H235.419C235.831 118.87 236.243 118.939 236.587 119.145C236.931 119.351 237.274 119.557 237.549 119.832C237.824 120.107 238.03 120.451 238.167 120.863C238.305 121.206 238.374 121.619 238.374 121.962C238.374 122.581 238.236 123.13 237.893 123.611C237.618 124.092 237.205 124.436 236.656 124.711L238.786 128.215H236.724L234.8 125.054H233.014V128.215H231.296ZM233.082 123.474H235.35C235.488 123.474 235.694 123.405 235.831 123.337C235.969 123.268 236.106 123.13 236.175 122.993C236.312 122.856 236.381 122.718 236.45 122.512C236.518 122.306 236.518 122.1 236.518 121.894C236.518 121.687 236.45 121.481 236.381 121.275C236.312 121.069 236.243 120.932 236.106 120.794C235.969 120.657 235.831 120.519 235.694 120.451C235.556 120.382 235.35 120.313 235.213 120.313H233.014V123.474H233.082Z" fill="#263238"/>
<path d="M240.023 128.215V118.87H244.146C244.558 118.87 244.97 118.939 245.314 119.145C245.658 119.351 246.001 119.557 246.276 119.832C246.551 120.107 246.757 120.451 246.894 120.863C247.032 121.206 247.101 121.619 247.101 121.962C247.101 122.581 246.963 123.13 246.62 123.611C246.345 124.092 245.932 124.436 245.383 124.711L247.513 128.215H245.451L243.527 125.054H241.741V128.215H240.023ZM241.81 123.474H244.077C244.215 123.474 244.421 123.405 244.558 123.337C244.696 123.268 244.833 123.13 244.902 122.993C245.039 122.856 245.108 122.718 245.177 122.512C245.245 122.306 245.245 122.1 245.245 121.894C245.245 121.687 245.177 121.481 245.108 121.275C245.039 121.069 244.97 120.932 244.833 120.794C244.696 120.657 244.558 120.519 244.421 120.451C244.283 120.382 244.077 120.313 243.94 120.313H241.741V123.474H241.81Z" fill="#263238"/>
<path d="M252.735 128.284C252.048 128.284 251.429 128.147 250.88 127.872C250.33 127.597 249.849 127.254 249.437 126.773C249.024 126.36 248.749 125.811 248.543 125.261C248.337 124.711 248.2 124.093 248.2 123.543C248.2 122.925 248.337 122.306 248.543 121.757C248.749 121.207 249.093 120.657 249.505 120.245C249.918 119.832 250.399 119.489 250.948 119.214C251.498 118.939 252.116 118.802 252.804 118.802C253.491 118.802 254.109 118.939 254.659 119.214C255.209 119.489 255.69 119.832 256.102 120.313C256.514 120.794 256.789 121.276 256.995 121.825C257.201 122.375 257.339 122.993 257.339 123.543C257.339 124.162 257.201 124.78 256.995 125.33C256.789 125.879 256.446 126.429 256.033 126.841C255.621 127.254 255.14 127.597 254.59 127.872C253.972 128.147 253.422 128.284 252.735 128.284ZM250.055 123.543C250.055 123.955 250.124 124.368 250.261 124.711C250.399 125.055 250.536 125.398 250.811 125.742C251.086 126.086 251.361 126.292 251.635 126.429C251.979 126.635 252.323 126.704 252.804 126.704C253.216 126.704 253.628 126.635 253.972 126.429C254.315 126.223 254.59 126.017 254.796 125.742C255.002 125.467 255.209 125.124 255.346 124.711C255.484 124.368 255.552 123.955 255.552 123.543C255.552 123.131 255.484 122.719 255.346 122.375C255.209 122.031 255.071 121.688 254.796 121.344C254.59 121.069 254.247 120.794 253.972 120.657C253.628 120.52 253.285 120.382 252.804 120.382C252.391 120.382 251.979 120.451 251.635 120.657C251.292 120.863 251.017 121.069 250.811 121.344C250.605 121.619 250.399 121.963 250.261 122.375C250.055 122.787 250.055 123.131 250.055 123.543Z" fill="#263238"/>
<path d="M258.713 128.215V118.87H262.836C263.249 118.87 263.661 118.939 264.004 119.145C264.348 119.351 264.692 119.557 264.966 119.832C265.241 120.107 265.447 120.451 265.585 120.863C265.722 121.206 265.791 121.619 265.791 121.962C265.791 122.581 265.654 123.13 265.31 123.611C265.035 124.092 264.623 124.436 264.073 124.711L266.203 128.215H264.142L262.218 125.054H260.431V128.215H258.713ZM260.5 123.474H262.768C262.905 123.474 263.111 123.405 263.249 123.337C263.386 123.268 263.523 123.13 263.592 122.993C263.73 122.856 263.798 122.718 263.867 122.512C263.936 122.306 263.936 122.1 263.936 121.894C263.936 121.687 263.867 121.481 263.798 121.275C263.73 121.069 263.661 120.932 263.523 120.794C263.386 120.657 263.249 120.519 263.111 120.451C262.974 120.382 262.768 120.313 262.63 120.313H260.431V123.474H260.5Z" fill="#263238"/>
</svg>
