<svg width="75" height="75" viewBox="0 0 37 35" fill="none" xmlns="http://www.w3.org/2000/svg"><path fill-rule="evenodd" clip-rule="evenodd" d="M18.5 1.79663C10.2765 1.79663 3.48995 8.05383 2.73834 16.0096H4.31893C6.36375 16.0096 6.98272 15.6479 7.67906 13.6974C9.25965 9.29212 13.5151 6.11421 18.5 6.11421C23.496 6.11421 27.7625 9.30307 29.332 13.7412C30.1057 15.9219 30.6915 16.0096 32.8358 16.0096H34.2617C33.5101 8.05383 26.7235 1.79663 18.5 1.79663ZM32.8358 18.9793C30.7026 18.9793 30.1057 19.0669 29.332 21.2476C27.7625 25.6748 23.496 28.8746 18.5 28.8746C13.5151 28.8746 9.25965 25.7077 7.67906 21.2915C6.97166 19.3299 6.36375 18.9793 4.31893 18.9793H2.73834C3.48995 26.946 10.2876 33.2032 18.5 33.2032C26.7235 33.2032 33.5101 26.946 34.2617 18.9902H32.8358V18.9793Z" fill="#1A3426"></path><path fill-rule="evenodd" clip-rule="evenodd" d="M18.5 -0.000488281C8.77331 -0.000488281 0.848267 7.85662 0.848267 17.4999C0.848267 27.1433 8.77331 35.0004 18.5 35.0004C28.2267 35.0004 36.1517 27.1433 36.1517 17.4999C36.1517 7.85662 28.2267 -0.000488281 18.5 -0.000488281ZM18.5 33.9374C9.37017 33.9374 1.92041 26.5515 1.92041 17.4999C1.92041 8.44837 9.37017 1.06247 18.5 1.06247C27.6298 1.06247 35.0796 8.44837 35.0796 17.4999C35.0796 26.5515 27.6298 33.9374 18.5 33.9374Z" fill="#1A3426"></path><path fill-rule="evenodd" clip-rule="evenodd" d="M18.5 1.0625C9.37017 1.0625 1.92041 8.4484 1.92041 17.5C1.92041 26.5515 9.37017 33.9374 18.5 33.9374C27.6298 33.9374 35.0796 26.5515 35.0796 17.5C35.0796 8.4484 27.6298 1.0625 18.5 1.0625ZM18.5 1.79671C26.7124 1.79671 33.51 8.05391 34.2617 16.0096H32.8358C30.7026 16.0096 30.1057 15.922 29.332 13.7413C27.7625 9.31411 23.496 6.11428 18.5 6.11428C13.5151 6.11428 9.25964 9.29219 7.67905 13.6974C6.97166 15.659 6.36374 16.0096 4.31892 16.0096H2.73834C3.48994 8.05391 10.2765 1.79671 18.5 1.79671ZM12.4208 20.0204C13.0398 20.8751 13.6035 21.7518 14.4104 22.475C15.8583 23.7681 16.4331 23.9983 16.5989 25.894C16.6431 26.4639 16.7978 27.0447 17.3063 27.5159C12.3766 26.946 8.51908 22.7819 8.32013 17.7301C9.92282 18.1684 9.21543 21.0066 12.9293 23.3517C12.7856 22.7052 12.1776 21.3902 12.4208 20.0204ZM20.4011 25.894C20.5669 23.9983 21.1417 23.7681 22.5896 22.475C23.3965 21.7518 23.9492 20.8751 24.5792 20.0204C24.8223 21.3902 24.2255 22.7052 24.0818 23.3517C27.7846 20.9957 27.0772 18.1575 28.6799 17.7301C28.492 22.7819 24.6234 26.946 19.6937 27.5159C20.2022 27.0447 20.3569 26.4639 20.4011 25.894ZM28.5362 17.1822C27.5967 17.4342 27.2872 18.1575 26.8672 19.1108C26.5245 19.8998 26.0934 20.8861 25.0766 21.8614C25.1981 21.2806 25.2645 20.6121 25.1429 19.9108L24.966 18.8807C25.0655 18.4314 25.1208 17.9712 25.1208 17.489C25.1208 13.8837 22.1586 10.9359 18.511 10.9359C14.8746 10.9359 11.9013 13.8728 11.9013 17.489C11.9013 17.9712 11.9566 18.4314 12.0561 18.8807L11.8792 19.9108C11.7576 20.6121 11.8239 21.2696 11.9455 21.8614C10.9287 20.8861 10.4976 19.8889 10.1549 19.1108C9.73492 18.1465 9.42543 17.4342 8.48592 17.1822L8.2317 17.1164V16.1302L9.88966 16.0096C9.97809 15.4946 10.1107 15.0015 10.2986 14.5084L8.917 13.5879L10.2986 11.2099L11.7908 11.9331C12.1224 11.5386 12.4871 11.1661 12.8961 10.8373L12.1666 9.35794L14.5651 7.98815L15.4936 9.34699C15.991 9.17165 16.4994 9.0292 17.0078 8.94153L17.1294 7.29778H19.9037L20.0253 8.94153C20.5448 9.0292 21.0422 9.17165 21.5396 9.34699L22.468 7.9772L24.8666 9.34699L24.1371 10.8264C24.535 11.1551 24.9108 11.5167 25.2424 11.9222L26.7345 11.1989L28.1162 13.5769L26.7456 14.4974C26.9224 14.9905 27.0661 15.4946 27.1545 15.9987L28.8125 16.1192V17.1055L28.5362 17.1822ZM18.5 33.2032C10.2765 33.2032 3.48994 26.946 2.72728 18.9903H4.30787C6.35269 18.9903 6.97166 19.3519 7.668 21.3025C9.24859 25.7187 13.504 28.8857 18.4889 28.8857C23.4849 28.8857 27.7514 25.6968 29.3209 21.2587C30.0947 19.078 30.6805 18.9903 32.8248 18.9903H34.2506C33.51 26.946 26.7235 33.2032 18.5 33.2032Z" fill="white"></path><path fill-rule="evenodd" clip-rule="evenodd" d="M28.7904 16.1302V17.1164L28.5361 17.1822C27.5966 17.4342 27.2872 18.1574 26.8671 19.1108C26.5245 19.8998 26.0934 20.8861 25.0765 21.8614C25.1981 21.2806 25.2644 20.6121 25.1429 19.9108L24.966 18.8807C25.0655 18.4314 25.1208 17.9602 25.1208 17.489C25.1208 13.8837 22.1585 10.9359 18.511 10.9359C14.8746 10.9359 11.9013 13.8727 11.9013 17.489C11.9013 17.9712 11.9566 18.4314 12.056 18.8807L11.8792 19.9108C11.7576 20.6121 11.8239 21.2696 11.9455 21.8614C10.9286 20.8861 10.4976 19.8889 10.1549 19.1108C9.73491 18.1465 9.42542 17.4342 8.48591 17.1822L8.23169 17.1164V16.1302L9.88965 16.0096C9.97807 15.5055 10.1107 15.0015 10.2986 14.5193L8.91698 13.5988L10.2986 11.2208L11.7908 11.9441C12.1224 11.5496 12.4871 11.177 12.8961 10.8483L12.1666 9.36888L14.5651 7.99909L15.4935 9.35792C15.9909 9.18259 16.4994 9.04013 17.0078 8.95246L17.1294 7.30872H19.9037L20.0253 8.95246C20.5448 9.04013 21.0532 9.17163 21.5396 9.35792L22.468 7.98813L24.8665 9.35792L24.137 10.8373C24.5349 11.166 24.8997 11.5277 25.2423 11.9331L26.7345 11.2099L28.1161 13.5878L26.7456 14.5083C26.9224 15.0015 27.0661 15.5055 27.1435 16.0096L28.7904 16.1302Z" fill="#F9AF17"></path><path fill-rule="evenodd" clip-rule="evenodd" d="M24.0818 23.3517C24.2144 22.7052 24.8223 21.3902 24.5792 20.0204C23.9602 20.8751 23.3965 21.7518 22.5896 22.4751C21.1417 23.7681 20.5669 23.9983 20.4011 25.894C20.3569 26.4529 20.2022 27.0447 19.6937 27.5159C24.6234 26.946 28.4809 22.7819 28.6799 17.7301C27.0882 18.1684 27.7846 21.0066 24.0818 23.3517ZM16.5989 25.894C16.4331 23.9983 15.8583 23.7681 14.4104 22.4751C13.6035 21.7518 13.0508 20.8751 12.4208 20.0204C12.1776 21.3902 12.7745 22.7052 12.9182 23.3517C9.21543 21.0066 9.92282 18.1575 8.32013 17.7301C8.50803 22.7819 12.3766 26.946 17.3063 27.5159C16.7978 27.0447 16.6431 26.4639 16.5989 25.894Z" fill="#1A3426"></path><path d="M9.10489 8.96342L8.99436 8.66754C9.17121 8.64562 9.37016 8.547 9.5028 8.40454C9.6686 8.25112 9.67965 8.13058 9.60228 8.05387C9.38122 7.83471 8.83962 8.65658 8.40855 8.21825C8.20959 8.021 8.20959 7.69225 8.54118 7.3635C8.69593 7.22104 8.87277 7.1005 9.06068 7.06763L9.18226 7.35254C9.00541 7.39638 8.86172 7.47308 8.76224 7.58267C8.59645 7.73608 8.59645 7.86758 8.67382 7.93333C8.88383 8.1525 9.42543 7.33063 9.8565 7.758C10.0555 7.95525 10.0555 8.284 9.71281 8.61275C9.53596 8.82096 9.29279 8.95246 9.10489 8.96342Z" fill="white"></path><path d="M11.6692 7.03475L11.0834 6.23479L11.1607 7.1772L11.017 7.27583L10.1549 6.91421L10.7186 7.7032L10.4202 7.91141L9.44751 6.5745L9.70173 6.38821L10.807 6.85941L10.7076 5.67592L10.9618 5.48962L11.9344 6.82654L11.6692 7.03475Z" fill="white"></path><path d="M13.1945 5.8183L12.4982 6.15801L12.5203 6.54155L12.1666 6.71688L12.1003 4.90876L12.4429 4.74438L13.8356 5.90597L13.4709 6.0813L13.1945 5.8183ZM12.9514 5.61009L12.4319 5.1608L12.4761 5.84022L12.9514 5.61009Z" fill="white"></path><path d="M15.0735 5.51148L14.6314 5.17177L14.6093 5.18273L14.2888 5.28135L14.4325 5.71968L14.0677 5.82927L13.5703 4.26223L14.2556 4.04306C14.6756 3.91156 15.0183 4.04306 15.1288 4.39373C15.2062 4.63481 15.1398 4.84302 14.963 4.99643L15.4825 5.39093L15.0735 5.51148ZM14.3219 4.33894L14.0235 4.43756L14.2003 4.98548L14.4988 4.88685C14.7198 4.8211 14.8083 4.67864 14.753 4.50331C14.6977 4.33894 14.554 4.27319 14.3219 4.33894Z" fill="white"></path><path d="M15.8915 3.95546L15.372 4.04313L15.3167 3.73629L16.7426 3.48425L16.7978 3.79109L16.2783 3.87875L16.5104 5.19375L16.1346 5.2595L15.8915 3.95546Z" fill="white"></path><path d="M17.9805 4.20747C17.9915 3.71435 18.3784 3.36368 18.8979 3.37464C19.1852 3.37464 19.4284 3.48422 19.5721 3.68147L19.3179 3.90064C19.2074 3.76914 19.0747 3.70339 18.9089 3.70339C18.5994 3.69243 18.3673 3.9116 18.3673 4.21843C18.3563 4.52526 18.5773 4.75538 18.8868 4.75538C19.0526 4.75538 19.1963 4.70059 19.3068 4.56909L19.55 4.79922C19.3842 4.98551 19.1521 5.08413 18.8537 5.08413C18.3452 5.07317 17.9694 4.71155 17.9805 4.20747Z" fill="white"></path><path d="M20.9759 4.91972L20.2132 4.79918L20.0142 5.12793L19.6274 5.06218L20.6222 3.54993L20.998 3.61568L21.4622 5.35805L21.0643 5.2923L20.9759 4.91972ZM20.8985 4.61288L20.7437 3.94443L20.379 4.52522L20.8985 4.61288Z" fill="white"></path><path d="M23.1202 5.90604L23.4407 4.97459L22.7112 5.58825L22.5454 5.53346L22.3465 4.62392L22.0259 5.54442L21.6833 5.42388L22.2249 3.8678L22.5233 3.96642L22.7775 5.13896L23.6949 4.36092L23.9934 4.45955L23.4628 6.01562L23.1202 5.90604Z" fill="white"></path><path d="M25.6292 5.9718C25.4524 6.30055 25.0987 6.3663 24.7118 6.15809L24.4134 6.00468L24.1923 6.41014L23.8497 6.22384L24.6344 4.77734L25.2645 5.11705C25.6734 5.3143 25.8061 5.64305 25.6292 5.9718ZM25.2866 5.78551C25.375 5.62114 25.3197 5.47868 25.1097 5.36909L24.8334 5.22664L24.5571 5.73072L24.8334 5.87318C25.0545 5.98276 25.2092 5.93893 25.2866 5.78551Z" fill="white"></path><path d="M25.8282 6.47588L26.3808 5.73071L26.6903 5.96084L26.1377 6.69504C25.9498 6.94708 25.9829 7.13337 26.1708 7.26487C26.3587 7.40733 26.5466 7.38542 26.7345 7.13338L27.2872 6.39917L27.5967 6.62929L27.044 7.37446C26.7566 7.758 26.3698 7.81279 25.9829 7.52787C25.6071 7.25392 25.5408 6.87038 25.8282 6.47588Z" fill="white"></path><path d="M26.9556 8.04292L27.254 7.93334C27.2872 8.09771 27.3756 8.29496 27.5193 8.43742C27.6851 8.59084 27.7956 8.60179 27.873 8.53604C28.094 8.31688 27.254 7.79088 27.6851 7.36351C27.884 7.16626 28.2156 7.1553 28.5472 7.48405C28.6909 7.62651 28.8125 7.8128 28.8567 7.98813L28.5693 8.10867C28.5251 7.9443 28.4367 7.80184 28.3372 7.69225C28.1714 7.53884 28.0498 7.52788 27.9835 7.60459C27.7735 7.82375 28.6025 8.34975 28.1714 8.77713C27.9724 8.97438 27.6409 8.98533 27.3093 8.64563C27.1103 8.47029 26.9777 8.22921 26.9556 8.04292Z" fill="white"></path><path d="M6.93853 23.1654L5.44637 23.0558C5.15899 23.0339 4.96003 22.9024 4.87161 22.7052C4.83845 22.6285 4.81635 22.5408 4.81635 22.4422L5.12583 22.4093C5.13688 22.475 5.14794 22.5298 5.17004 22.5737C5.2032 22.6613 5.28057 22.7052 5.3911 22.7271H5.41321L6.26429 21.6422L6.43009 22.0148L5.78901 22.7709L6.79484 22.8257L6.93853 23.1654Z" fill="white"></path><path d="M7.75645 24.5681L6.31956 25.4009L6.1206 25.0722L6.70641 24.7325L6.31956 24.0859L5.73375 24.4256L5.53479 24.0969L6.97169 23.264L7.17064 23.5928L6.60694 23.9215L6.99379 24.5681L7.5575 24.2393L7.75645 24.5681Z" fill="white"></path><path d="M7.94434 24.842L8.1875 25.1379L7.33642 25.8064L8.67384 25.7516L8.8949 26.0365L7.59064 27.0666L7.35852 26.7707L8.19856 26.1022L6.86114 26.157L6.64008 25.8721L7.94434 24.842Z" fill="white"></path><path d="M9.35912 28.1185C9.16016 28.3267 8.87278 28.3048 8.5633 28.009L7.96643 27.4501L9.11595 26.2556L9.67965 26.7816C9.95598 27.0446 10.0223 27.3076 9.82334 27.5049C9.70176 27.6254 9.55807 27.6583 9.40333 27.6035C9.51386 27.8007 9.50281 27.9761 9.35912 28.1185ZM9.09384 27.8336C9.19332 27.735 9.17121 27.6254 9.03858 27.5049L8.72909 27.2199L8.44171 27.5268L8.7512 27.8117C8.88384 27.9213 8.99436 27.9432 9.09384 27.8336ZM8.92805 27.0227L9.19332 27.2638C9.3149 27.3734 9.42543 27.3843 9.51386 27.2967C9.60228 27.198 9.59123 27.0885 9.46965 26.9789L9.20437 26.7378L8.92805 27.0227Z" fill="white"></path><path d="M10.586 29.2363L10.3981 29.4773L9.35913 28.7212L10.3539 27.3953L11.3597 28.1404L11.1718 28.3815L10.4644 27.8665L10.2544 28.1514L10.8734 28.6116L10.6966 28.8527L10.0776 28.3925L9.84546 28.6993L10.586 29.2363Z" fill="white"></path><path d="M12.5535 29.5103C12.3656 29.8281 12.0119 29.8938 11.625 29.6747L11.3376 29.5103L11.1166 29.9048L10.785 29.7185L11.6029 28.283L12.2329 28.6336C12.6087 28.8528 12.7303 29.1925 12.5535 29.5103ZM12.2108 29.324C12.2992 29.1706 12.255 29.0172 12.045 28.8966L11.7687 28.7432L11.4813 29.2363L11.7576 29.3898C11.9676 29.5103 12.1224 29.4774 12.2108 29.324Z" fill="white"></path><path d="M12.6088 29.7842C12.7967 29.3239 13.294 29.1376 13.7693 29.3349C14.0346 29.4445 14.2225 29.6308 14.2888 29.8609L13.9683 29.9814C13.913 29.8171 13.8135 29.7075 13.6588 29.6417C13.3714 29.5212 13.084 29.6417 12.9625 29.9266C12.8409 30.2116 12.9625 30.4965 13.2498 30.617C13.4046 30.6828 13.5593 30.6718 13.7141 30.5951L13.8578 30.9019C13.6367 31.0225 13.3825 31.0225 13.1061 30.9129C12.6309 30.7156 12.4098 30.2444 12.6088 29.7842Z" fill="white"></path><path d="M14.543 29.6747L14.9078 29.7733L14.6314 30.8144L15.6704 29.9815L16.0241 30.0692L15.6041 31.6581L15.2393 31.5595L15.5157 30.5185L14.4767 31.3513L14.123 31.2636L14.543 29.6747Z" fill="white"></path><path d="M17.5826 30.5952L17.0521 30.5294L16.8753 31.8554L16.4994 31.8006L16.6763 30.4746L16.1458 30.4089L16.19 30.1021L17.6158 30.2883L17.5826 30.5952Z" fill="white"></path><path d="M19.0527 31.6581L19.0416 31.965L17.7595 31.9431L17.7926 30.2993L19.0527 30.3212L19.0416 30.6281L18.1684 30.6171L18.1574 30.9787L18.9311 30.9897L18.92 31.2856L18.1463 31.2746L18.1353 31.6581H19.0527Z" fill="white"></path><path d="M20.6112 30.4856L20.0806 30.5404L20.2133 31.8773L19.8375 31.9102L19.7048 30.5732L19.1743 30.628L19.1411 30.3212L20.578 30.1897L20.6112 30.4856Z" fill="white"></path><path d="M21.3738 30.0254L22.6671 29.6747L22.7444 29.9706L21.816 30.2226L21.9044 30.5514L22.3465 30.4308C22.7334 30.3212 22.9876 30.4308 23.076 30.7376C23.1644 31.0554 22.9765 31.3075 22.5676 31.4171L21.8049 31.6253L21.3738 30.0254ZM22.4681 31.1431C22.656 31.0883 22.7444 30.9897 22.7002 30.8472C22.6671 30.7048 22.5455 30.6609 22.3465 30.7157L21.9707 30.8144L22.0923 31.2417L22.4681 31.1431Z" fill="white"></path><path d="M24.3139 29.0281L24.1481 30.4965C24.115 30.7814 23.9823 30.9787 23.7723 31.0554C23.6949 31.0882 23.5955 31.0992 23.496 31.0992L23.4739 30.7924C23.5402 30.7924 23.5955 30.7814 23.6397 30.7595C23.7281 30.7266 23.7834 30.6609 23.8055 30.5403L23.8165 30.5184L22.7554 29.6417L23.1312 29.4883L23.8718 30.1458L23.9602 29.1596L24.3139 29.0281Z" fill="white"></path><path d="M26.5356 29.324L26.8562 29.8938L26.5467 30.0691L26.3809 29.7733L25.364 30.3431L25.5298 30.639L25.2203 30.8143L24.8998 30.2445L24.955 30.2116C25.1429 30.102 25.0103 29.7623 24.8003 29.3568L24.5571 28.8966L25.6735 28.272L26.3367 29.4336L26.5356 29.324ZM25.3529 29.9815L26.0051 29.6198L25.4966 28.7213L24.9993 28.9952L25.1098 29.2034C25.2756 29.5322 25.3861 29.8061 25.3529 29.9815Z" fill="white"></path><path d="M27.1987 27.1433L27.4309 28.6117C27.4751 28.8966 27.3977 29.1158 27.2209 29.2473C27.1545 29.3021 27.0661 29.335 26.9666 29.3678L26.8672 29.0829C26.9224 29.061 26.9777 29.0391 27.0219 29.0062C27.0993 28.9514 27.1324 28.8747 27.1214 28.7542V28.7323L25.8613 28.1624L26.1929 27.9104L27.0882 28.3487L26.9114 27.3734L27.1987 27.1433Z" fill="white"></path><path d="M29.9289 26.2994L30.4041 26.7487L30.161 27.0008L29.9067 26.7597L28.4809 28.2391L27.2761 27.0994L27.5414 26.8254L28.5141 27.7459L28.8788 27.3733L27.9061 26.4528L28.1714 26.1789L29.1441 27.0994L29.5088 26.7268L28.5362 25.8063L28.8014 25.5323L29.7741 26.4528L29.9289 26.2994Z" fill="white"></path><path d="M30.8573 24.9188L31.1116 25.0941L30.3821 26.1461L29.0115 25.2147L29.7299 24.1846L29.9841 24.3599L29.4868 25.0722L29.7852 25.2804L30.2273 24.6558L30.4705 24.8202L30.0284 25.4448L30.3489 25.6639L30.8573 24.9188Z" fill="white"></path><path d="M30.6915 23.0778L30.3157 23.7681L31.5094 24.4037L31.3326 24.7325L29.8736 23.9544L30.4262 22.9353L30.6915 23.0778Z" fill="white"></path><path d="M31.1447 23.3517C30.6915 23.1654 30.4926 22.6832 30.6915 22.2011C30.8905 21.7189 31.3658 21.4997 31.83 21.686C32.2942 21.8723 32.4821 22.3654 32.2832 22.8367C32.0953 23.3188 31.6089 23.538 31.1447 23.3517ZM31.6863 22.0367C31.3879 21.9162 31.1115 22.0477 31.001 22.3216C30.8905 22.5956 31.001 22.8805 31.2994 23.001C31.5868 23.1216 31.8742 22.9901 31.9847 22.7161C32.0953 22.4422 31.9737 22.1572 31.6863 22.0367Z" fill="white"></path><path d="M22.6559 14.7823V19.7354C22.6559 20.4477 22.4791 21.1052 22.1254 21.7189C21.5175 22.749 20.6111 23.3955 19.4285 23.6585C18.0579 23.8996 16.8641 23.5599 15.8473 22.6284C15.2062 22.0367 14.8083 21.2915 14.6535 20.4258C14.6093 20.2066 14.5983 19.9765 14.5983 19.7464V14.7713C14.5983 13.796 15.2614 12.9632 16.2231 12.744C16.3668 12.7112 16.5104 12.7002 16.6652 12.7002H20.6001C21.5396 12.7002 22.3796 13.3577 22.6007 14.2563C22.6449 14.4316 22.6559 14.6069 22.6559 14.7823Z" fill="white"></path><path d="M22.6559 14.7823V19.7354C22.6559 20.4477 22.4791 21.1052 22.1254 21.7189C21.5175 22.749 20.6111 23.3955 19.4285 23.6585C18.0579 23.8996 16.8641 23.5599 15.8473 22.6284C15.2062 22.0367 14.8083 21.2915 14.6535 20.4258C14.6093 20.2066 14.5983 19.9765 14.5983 19.7464V14.7713C14.5983 13.796 15.2614 12.9632 16.2231 12.744C16.3668 12.7112 16.5104 12.7002 16.6652 12.7002H20.6001C21.5396 12.7002 22.3796 13.3577 22.6007 14.2563C22.6449 14.4316 22.6559 14.6069 22.6559 14.7823Z" fill="#0D653F"></path><path d="M18.6326 12.8864C19.2737 12.8864 19.9258 12.8864 20.5669 12.8864C21.4512 12.8864 22.2138 13.4782 22.4128 14.3329C22.4459 14.4644 22.457 14.6069 22.457 14.7384C22.457 15.9109 22.457 17.0835 22.457 18.267C22.457 18.2779 22.457 18.2889 22.457 18.2999C22.457 18.3327 22.4459 18.3437 22.4128 18.3437C22.2801 18.3437 22.1475 18.3546 22.0038 18.3656C21.6059 18.3985 21.208 18.4642 20.8211 18.5519C20.3237 18.6724 19.8264 18.8149 19.3621 19.0121C19.1079 19.1217 18.8647 19.2423 18.6326 19.3847C18.5884 19.4066 18.5663 19.4066 18.5221 19.3847C18.2126 19.1875 17.881 19.0341 17.5384 18.9026C16.9526 18.6834 16.3557 18.519 15.7478 18.4094C15.4493 18.3546 15.1509 18.3218 14.8414 18.2999C14.7751 18.2999 14.7862 18.3108 14.7862 18.2341C14.7862 17.0616 14.7862 15.889 14.7862 14.7165C14.7862 13.8398 15.4383 13.0727 16.3115 12.9084C16.4441 12.8864 16.5657 12.8755 16.6983 12.8755C17.3505 12.8864 17.9915 12.8864 18.6326 12.8864Z" fill="white"></path><path d="M22.457 18.541C22.4681 18.5958 22.457 18.6506 22.457 18.6944C22.457 18.7273 22.4349 18.7273 22.4128 18.7383C22.2912 18.7711 22.1807 18.815 22.0591 18.8478C21.6833 18.9793 21.3186 19.1437 20.9759 19.3519C20.7217 19.5053 20.4785 19.6807 20.2464 19.856C20.0143 20.0423 19.7932 20.2396 19.5943 20.4587C19.3511 20.7217 19.13 20.9957 18.9311 21.2916C18.6879 21.6641 18.5111 22.0586 18.4116 22.486C18.3784 22.6394 18.3453 22.8038 18.3342 22.9682C18.3232 23.0887 18.3121 23.2202 18.3011 23.3408C18.3011 23.3846 18.29 23.4284 18.29 23.4832C18.29 23.5161 18.279 23.5271 18.2458 23.5271C18.1684 23.5161 18.0911 23.5051 18.0026 23.4942C17.7926 23.4613 17.5826 23.4065 17.3726 23.3408C17.0189 23.2202 16.6763 23.0449 16.3668 22.8257C16.1899 22.6942 16.212 22.76 16.2673 22.5518C16.411 22.0477 16.6542 21.6093 16.9415 21.182C17.0742 20.9957 17.2068 20.8203 17.3616 20.645C17.4942 20.4916 17.6379 20.3601 17.7816 20.2176C18.1021 19.9327 18.4448 19.6807 18.8095 19.4725C19.0527 19.33 19.2958 19.2095 19.5611 19.1108C19.8485 19.0013 20.1469 18.9026 20.4454 18.815C20.7217 18.7383 21.0091 18.6725 21.2964 18.6287C21.4401 18.6068 21.5949 18.5848 21.7496 18.5629C22.0149 18.552 22.236 18.541 22.457 18.541Z" fill="#52AC32"></path><path d="M22.457 18.9246C22.4681 18.9794 22.457 19.0341 22.457 19.0889C22.457 19.1437 22.457 19.1876 22.457 19.2424C22.457 19.2752 22.4459 19.3081 22.4238 19.33C22.3575 19.3958 22.2912 19.4615 22.2138 19.5382C22.037 19.7136 21.8712 19.8889 21.7164 20.0642C21.5175 20.2834 21.3406 20.5354 21.197 20.7984C21.0312 21.0833 20.9206 21.3902 20.8433 21.7189C20.799 21.8833 20.7769 22.0477 20.7548 22.2121C20.7327 22.4312 20.7217 22.6394 20.7327 22.8586C20.7327 22.9024 20.7217 22.9243 20.6885 22.9463C20.4785 23.0778 20.2574 23.1873 20.0364 23.286C19.7822 23.3846 19.5169 23.4613 19.2406 23.5051C19.13 23.527 19.0195 23.527 18.92 23.538C18.7984 23.549 18.6879 23.549 18.5663 23.549C18.5 23.549 18.5 23.549 18.5 23.4832C18.5 23.3408 18.5111 23.1983 18.5221 23.0558C18.5442 22.8148 18.5884 22.5737 18.6547 22.3436C18.7321 22.0915 18.8316 21.8504 18.9532 21.6203C19.0637 21.434 19.1853 21.2477 19.3179 21.0724C19.4285 20.9299 19.539 20.7984 19.6606 20.656C19.76 20.5464 19.8706 20.4368 19.9811 20.3272C20.1137 20.2067 20.2464 20.0861 20.3901 19.9766C20.5448 19.856 20.6996 19.7355 20.8654 19.6259C21.3185 19.33 21.7938 19.0999 22.3133 18.9465C22.3686 18.9465 22.4128 18.9355 22.457 18.9246Z" fill="#52AC32"></path><path d="M17.3284 20.4477C16.9526 20.8532 16.6431 21.3025 16.3889 21.8175C16.3778 21.7846 16.3668 21.7627 16.3668 21.7298C16.3005 21.423 16.1789 21.1381 16.0241 20.8641C15.9136 20.6778 15.792 20.4915 15.6594 20.3162C15.5599 20.1847 15.4494 20.0422 15.3388 19.9217C15.2615 19.834 15.1731 19.7464 15.0846 19.6697C14.9962 19.593 14.9078 19.5272 14.8194 19.4615C14.7972 19.4395 14.7862 19.4176 14.7862 19.3847C14.7862 19.2313 14.7862 19.0779 14.7862 18.9245C14.7862 18.8697 14.7972 18.8697 14.8525 18.8916C15.0736 18.9902 15.2836 19.0998 15.4936 19.2204C15.7478 19.3628 16.002 19.5053 16.2452 19.6697C16.3889 19.7573 16.5326 19.856 16.6763 19.9546C16.8752 20.097 17.0852 20.2395 17.2731 20.3929C17.2952 20.4039 17.3173 20.4148 17.3284 20.4477Z" fill="#0C913E"></path><path d="M18.4005 19.5382C18.2679 19.6368 18.1352 19.7354 18.0026 19.834C17.9252 19.8888 17.8589 19.9546 17.7926 20.0094C17.6931 20.0861 17.6047 20.1847 17.5163 20.2724C17.4831 20.3053 17.4721 20.3053 17.4389 20.2724C17.3284 20.1738 17.2068 20.0861 17.0962 20.0094C16.8752 19.845 16.6431 19.7025 16.411 19.5491C16.212 19.4286 16.013 19.308 15.8141 19.1875C15.5709 19.045 15.3167 18.9135 15.0514 18.782C14.9851 18.7492 14.9077 18.7163 14.8414 18.6834C14.7972 18.6615 14.7751 18.5629 14.8083 18.53C14.8193 18.519 14.8414 18.519 14.8525 18.519C14.963 18.519 15.0735 18.53 15.173 18.541C15.2283 18.5519 15.2725 18.5519 15.3278 18.5629C15.5046 18.5848 15.6815 18.6177 15.8583 18.6396C16.1015 18.6834 16.3336 18.7382 16.5657 18.804C16.8973 18.8916 17.2178 18.9903 17.5273 19.1108C17.7042 19.1765 17.87 19.2533 18.0358 19.33C18.1684 19.3848 18.2789 19.4505 18.4005 19.5382Z" fill="#0C913E"></path><path d="M20.9427 22.7818C20.9317 22.6284 20.9428 22.4969 20.9538 22.3654C20.9759 22.0476 21.0312 21.7408 21.1307 21.4449C21.2964 20.9628 21.5507 20.5463 21.8823 20.1738C22.0591 19.9765 22.247 19.7902 22.4349 19.593C22.446 19.582 22.457 19.571 22.4791 19.571C22.5012 20.1738 22.3907 20.7436 22.1475 21.3025C21.8602 21.8942 21.4622 22.3764 20.9427 22.7818Z" fill="white"></path><path d="M14.7972 19.6917C14.963 19.8231 15.1178 19.9437 15.2394 20.0971C15.4715 20.3711 15.6925 20.656 15.8694 20.9738C16.0683 21.3244 16.1899 21.697 16.2562 22.0915C16.2562 22.1134 16.2562 22.1244 16.2452 22.1463C16.1789 22.2888 16.1457 22.4422 16.1015 22.5846C15.9357 22.5079 15.4825 21.9491 15.2725 21.5655C14.9409 20.9847 14.7862 20.3601 14.7972 19.6917Z" fill="white"></path><path d="M18.6768 18.782C18.6879 18.6834 18.6989 18.5848 18.721 18.4862C18.8426 18.0259 19.1189 17.6862 19.5058 17.4342C19.7821 17.2588 20.0806 17.1383 20.4011 17.0945C20.5227 17.0725 20.6553 17.0725 20.7769 17.0835C20.8543 17.0835 20.8543 17.0945 20.8653 17.1602C20.8874 17.3136 20.8985 17.4561 20.8653 17.6095C20.8211 17.7958 20.7216 17.9273 20.5669 18.0369C20.4232 18.1245 20.2685 18.1793 20.1137 18.2122C19.8706 18.267 19.6163 18.3327 19.3842 18.4095C19.2184 18.4642 19.0637 18.541 18.931 18.6396C18.8647 18.6944 18.7874 18.7382 18.71 18.782C18.6989 18.7711 18.6879 18.7711 18.6768 18.782Z" fill="#F59C18"></path><path d="M18.5774 18.782C18.489 18.7382 18.4116 18.6834 18.3342 18.6286C18.1905 18.53 18.0358 18.4533 17.87 18.3985C17.671 18.3327 17.461 18.2779 17.2621 18.2341C17.0963 18.1903 16.9305 18.1574 16.7757 18.0807C16.621 18.004 16.4994 17.9054 16.4331 17.741C16.3999 17.6533 16.3778 17.5766 16.3668 17.478C16.3557 17.3684 16.3668 17.2588 16.3778 17.1492C16.3889 17.0835 16.3889 17.0835 16.4552 17.0725C16.6099 17.0616 16.7647 17.0725 16.9194 17.0945C17.3836 17.1821 17.7926 17.3903 18.1242 17.741C18.3784 18.004 18.5221 18.3218 18.5774 18.6834C18.5774 18.6944 18.5774 18.7163 18.5774 18.7272C18.5774 18.7382 18.5774 18.7601 18.5774 18.782Z" fill="#F59C18"></path><path d="M20.3569 16.2945C20.3679 16.7219 20.18 17.0287 19.7932 17.215C19.4726 17.3684 19.1411 17.5109 18.7984 17.6423C18.6768 17.6862 18.6879 17.6752 18.6879 17.5766C18.6879 17.3574 18.7431 17.1602 18.8537 16.9739C19.119 16.5246 19.4948 16.2178 19.9921 16.0644C20.0806 16.0424 20.1579 16.0205 20.2464 16.0315C20.3237 16.0315 20.3237 16.0424 20.3348 16.1082C20.3569 16.163 20.3569 16.2287 20.3569 16.2945Z" fill="#F59C18"></path><path d="M18.5663 17.6644C18.5332 17.6644 18.5 17.6534 18.4669 17.6424C18.1132 17.5109 17.7705 17.3685 17.4389 17.2041C17.1516 17.0617 16.9747 16.8315 16.9194 16.5247C16.9084 16.448 16.8973 16.3713 16.9084 16.2946C16.9194 16.2288 16.9084 16.1631 16.9194 16.0973C16.9194 16.0316 16.9415 16.0206 16.9968 16.0206C17.0963 16.0097 17.1847 16.0316 17.2731 16.0535C17.8368 16.2398 18.2569 16.6014 18.489 17.1493C18.5553 17.3027 18.5774 17.4781 18.5663 17.6644Z" fill="#F59C18"></path><path d="M19.0637 15.8781C19.0637 16.0206 19.0416 16.1631 18.9753 16.2836C18.931 16.3603 18.8868 16.4151 18.8205 16.4589C18.6879 16.5466 18.5442 16.5466 18.4116 16.4589C18.29 16.3822 18.2347 16.2617 18.2015 16.1302C18.1463 15.9329 18.1684 15.7357 18.2126 15.5384C18.2679 15.2974 18.3784 15.0891 18.5552 14.9138C18.6216 14.8481 18.6105 14.8481 18.6768 14.9138C18.8537 15.0891 18.9531 15.2974 19.0195 15.5275C19.0416 15.648 19.0637 15.7576 19.0637 15.8781Z" fill="#F59C18"></path><path d="M17.8589 14.0481C17.8589 13.9276 17.8589 13.807 17.8589 13.6865C17.8589 13.6317 17.8589 13.6317 17.9142 13.6317C18.0136 13.6317 18.1131 13.6317 18.2015 13.6317C18.3894 13.6317 18.4889 13.7194 18.5331 13.8947C18.5552 13.9933 18.5552 14.1029 18.5331 14.2015C18.4889 14.3659 18.3894 14.4536 18.2126 14.4645C18.1131 14.4645 18.0026 14.4645 17.9031 14.4645C17.8699 14.4645 17.8589 14.4536 17.8589 14.4207C17.8589 14.3002 17.8589 14.1796 17.8589 14.0481Z" fill="#0D653F"></path><path d="M19.4284 14.4535C19.4284 14.4644 19.4284 14.4644 19.4284 14.4535C19.3621 14.4644 19.3069 14.4754 19.2627 14.4535C19.2184 14.4316 19.2184 14.3658 19.2074 14.322C19.1853 14.2562 19.1853 14.2672 19.13 14.2672C19.0526 14.2672 18.9753 14.2672 18.8979 14.2672C18.8647 14.2672 18.8537 14.2781 18.8426 14.3001C18.8316 14.3329 18.8095 14.3768 18.7984 14.4096C18.7874 14.4425 18.7763 14.4535 18.7432 14.4535C18.6989 14.4535 18.6658 14.4535 18.6216 14.4535C18.6105 14.4316 18.6105 14.4206 18.6216 14.4096C18.721 14.1576 18.8095 13.9165 18.909 13.6645C18.92 13.6316 18.9421 13.6097 18.9753 13.6206C19.0195 13.6206 19.0637 13.6097 19.0969 13.6316C19.13 13.6535 19.13 13.6974 19.1521 13.7412C19.2405 13.9494 19.3179 14.1686 19.4063 14.3877C19.4174 14.4096 19.4284 14.4316 19.4284 14.4535Z" fill="#0D653F"></path><path d="M19.528 13.9385C19.528 13.8509 19.528 13.7632 19.528 13.6755C19.528 13.6426 19.528 13.6207 19.5722 13.6207C19.6938 13.6207 19.6938 13.6207 19.6938 13.7413C19.6938 13.8837 19.6938 14.0262 19.6938 14.1686C19.6938 14.3221 19.8264 14.344 19.9259 14.3221C19.959 14.3111 19.9922 14.2782 20.0032 14.2454C20.0143 14.2125 20.0143 14.1906 20.0143 14.1577C20.0143 14.0043 20.0143 13.8399 20.0143 13.6865C20.0143 13.6317 20.0143 13.6317 20.0585 13.6317C20.2022 13.6317 20.1801 13.6098 20.1801 13.7413C20.1801 13.8618 20.1801 13.9824 20.1801 14.1029C20.1801 14.1577 20.1801 14.2015 20.169 14.2563C20.158 14.3659 20.0806 14.4426 19.9811 14.4645C19.8927 14.4864 19.8153 14.4864 19.7269 14.4645C19.6274 14.4426 19.5611 14.3769 19.539 14.2782C19.528 14.2344 19.528 14.1906 19.528 14.1467C19.528 14.081 19.528 14.0152 19.528 13.9385Z" fill="#0D653F"></path><path d="M17.3505 14.1248C17.3505 14.0262 17.3505 13.9276 17.3505 13.829C17.3505 13.7961 17.3394 13.7742 17.3063 13.7742C17.251 13.7742 17.1958 13.7742 17.1405 13.7742C17.1184 13.7742 17.1073 13.7632 17.1073 13.7413C17.0963 13.6427 17.0963 13.6317 17.2068 13.6317C17.3726 13.6317 17.5384 13.6317 17.7153 13.6317C17.7705 13.6317 17.7705 13.6317 17.7705 13.6865C17.7705 13.6865 17.7705 13.6865 17.7705 13.6975C17.7705 13.7961 17.7705 13.7851 17.6931 13.7851C17.66 13.7851 17.6268 13.7851 17.5937 13.7851C17.5384 13.7851 17.5384 13.7851 17.5384 13.8509C17.5384 14.0372 17.5384 14.2235 17.5384 14.4207C17.5384 14.4865 17.5384 14.4865 17.4721 14.4865C17.3505 14.4865 17.3726 14.5084 17.3616 14.3878C17.3505 14.2783 17.3505 14.2015 17.3505 14.1248Z" fill="#0D653F"></path><path d="M21.5838 17.4671C21.5728 17.4671 21.5617 17.478 21.5396 17.478C21.4954 17.478 21.4622 17.4561 21.4512 17.4233C21.4401 17.3794 21.4622 17.3356 21.4954 17.3246C21.5396 17.3137 21.5838 17.3246 21.6059 17.3685C21.628 17.4233 21.628 17.478 21.5949 17.5328C21.5728 17.5767 21.4954 17.5876 21.4622 17.5438C21.4512 17.5328 21.4401 17.5219 21.4512 17.5109C21.4622 17.5 21.4733 17.5109 21.4843 17.5109C21.5506 17.5548 21.5728 17.5438 21.5838 17.4671Z" fill="#24714F"></path><path d="M21.8491 17.4451C21.8491 17.4232 21.8491 17.3903 21.8601 17.3684C21.8712 17.3355 21.9043 17.3246 21.9375 17.3246C21.9706 17.3246 21.9928 17.3355 22.0038 17.3684C22.0259 17.4122 22.0259 17.467 22.0038 17.5109C21.9928 17.5437 21.9706 17.5657 21.9264 17.5657C21.8822 17.5657 21.8601 17.5437 21.8491 17.5109C21.8491 17.489 21.8491 17.467 21.8491 17.4451Z" fill="#22714E"></path><path d="M21.7165 17.4452C21.7275 17.4232 21.7496 17.4232 21.7607 17.4123C21.7828 17.4013 21.7828 17.3794 21.7717 17.3685C21.7607 17.3465 21.7386 17.3465 21.7165 17.3575C21.7054 17.3575 21.7054 17.3685 21.6944 17.3794C21.6833 17.3904 21.6722 17.4013 21.6612 17.3904C21.6501 17.3794 21.6612 17.3685 21.6722 17.3575C21.6944 17.3356 21.7496 17.3246 21.7828 17.3465C21.8159 17.3685 21.8159 17.3904 21.8049 17.4342C21.7938 17.4561 21.8049 17.4561 21.8159 17.4671C21.8491 17.5109 21.838 17.5547 21.7938 17.5767C21.7607 17.5986 21.6944 17.5876 21.6722 17.5547C21.6612 17.5438 21.6612 17.5328 21.6722 17.5219C21.6833 17.5109 21.6944 17.5219 21.7054 17.5328C21.7165 17.5438 21.7165 17.5547 21.7275 17.5547C21.7496 17.5657 21.7828 17.5547 21.7938 17.5328C21.8049 17.5109 21.7938 17.489 21.7717 17.478C21.7496 17.4452 21.7275 17.4452 21.7165 17.4452Z" fill="#257351"></path><path d="M15.6594 17.4013C15.6373 17.4013 15.6373 17.3903 15.6262 17.3794C15.6041 17.3575 15.582 17.3575 15.5599 17.3684C15.5489 17.3684 15.5489 17.3794 15.5378 17.3903C15.5378 17.4013 15.5378 17.4123 15.5489 17.4232C15.571 17.4342 15.5931 17.4342 15.6041 17.4451C15.6483 17.4561 15.6594 17.478 15.6594 17.5218C15.6594 17.5547 15.6262 17.5766 15.582 17.5766C15.5378 17.5766 15.5046 17.5657 15.4936 17.5218C15.4936 17.5109 15.4936 17.5109 15.4936 17.4999C15.5046 17.489 15.5157 17.489 15.5157 17.4999C15.5268 17.5328 15.5599 17.5437 15.5931 17.5328C15.6152 17.5328 15.6262 17.5218 15.6262 17.4999C15.6262 17.478 15.6152 17.478 15.6041 17.467C15.582 17.4561 15.5599 17.4561 15.5378 17.4451C15.5157 17.4342 15.4936 17.4123 15.5046 17.3794C15.5046 17.3465 15.5267 17.3355 15.5599 17.3246C15.6262 17.3246 15.6594 17.3465 15.6594 17.4013Z" fill="#267250"></path><path d="M15.4604 17.3465C15.4272 17.3684 15.4051 17.3575 15.372 17.3575C15.3499 17.3575 15.3388 17.3684 15.3388 17.3904C15.3388 17.4123 15.3499 17.4232 15.372 17.4232C15.383 17.4232 15.4051 17.4232 15.4162 17.4232C15.4272 17.4232 15.4493 17.4232 15.4493 17.4342C15.4493 17.4561 15.4272 17.4452 15.4162 17.4561C15.4051 17.4561 15.3941 17.4561 15.383 17.4561C15.3609 17.4561 15.3499 17.4671 15.3499 17.489C15.3499 17.5219 15.3609 17.5219 15.3941 17.5219C15.3941 17.5219 15.3941 17.5219 15.4051 17.5219C15.4272 17.5328 15.4604 17.4999 15.4825 17.5438C15.4604 17.5657 15.4272 17.5547 15.3941 17.5547C15.383 17.5547 15.3609 17.5547 15.3499 17.5547C15.3278 17.5547 15.3167 17.5438 15.3167 17.5219C15.3167 17.4671 15.3167 17.4123 15.3167 17.3575C15.3167 17.3465 15.3167 17.3356 15.3388 17.3356C15.372 17.3356 15.4162 17.3356 15.4604 17.3465Z" fill="#297350"></path><path d="M15.8583 17.3465C15.792 17.3794 15.792 17.3794 15.792 17.4561C15.792 17.489 15.792 17.5219 15.792 17.5438C15.792 17.5547 15.792 17.5547 15.7809 17.5547C15.7699 17.5547 15.7699 17.5438 15.7699 17.5438C15.7699 17.4999 15.7699 17.4561 15.7699 17.4123C15.7699 17.3794 15.7699 17.3465 15.7257 17.3575C15.7146 17.3575 15.7036 17.3575 15.7036 17.3465C15.7036 17.3356 15.7146 17.3356 15.7257 17.3356C15.7588 17.3356 15.8141 17.3356 15.8583 17.3465Z" fill="#327755"></path><path d="M21.3407 17.3903C21.3185 17.3793 21.2964 17.4013 21.2854 17.4013C21.2743 17.4013 21.2743 17.3903 21.2854 17.3793C21.3075 17.3574 21.3407 17.3355 21.3628 17.3136C21.3738 17.3465 21.3849 17.5218 21.3738 17.5437C21.3738 17.5547 21.3738 17.5547 21.3628 17.5547C21.3517 17.5547 21.3517 17.5437 21.3517 17.5328C21.3407 17.4889 21.3407 17.4451 21.3407 17.3903Z" fill="#1A6D49"></path><path d="M18.9753 18.3657C18.9863 18.3109 19.0084 18.2671 19.0305 18.2342C19.1853 17.9493 19.4064 17.7192 19.6937 17.5548C19.9369 17.4123 20.1911 17.3247 20.4675 17.2808C20.5338 17.2699 20.6001 17.2699 20.6664 17.2589C20.6885 17.2589 20.7106 17.2589 20.7106 17.2808C20.7106 17.4123 20.7217 17.5329 20.6664 17.6534C20.6001 17.7959 20.4896 17.8726 20.3459 17.9274C20.1911 17.9931 20.0143 18.026 19.8485 18.0698C19.6385 18.1246 19.4285 18.1794 19.2184 18.2561C19.13 18.289 19.0637 18.3219 18.9753 18.3657Z" fill="#FBC205"></path><path d="M18.29 18.3656C18.2015 18.3217 18.1242 18.2889 18.0357 18.256C17.8478 18.1902 17.6599 18.1355 17.472 18.0916C17.3394 18.0587 17.1957 18.0259 17.0631 17.993C16.9304 17.9492 16.7978 17.8944 16.6873 17.7957C16.6209 17.73 16.5767 17.6423 16.5657 17.5547C16.5546 17.4889 16.5436 17.4122 16.5436 17.3355C16.5436 17.2698 16.5657 17.2478 16.632 17.2588C16.7867 17.2807 16.9415 17.2917 17.0852 17.3465C17.2289 17.3903 17.3726 17.4451 17.5052 17.5218C17.5936 17.5766 17.682 17.6204 17.7594 17.6862C17.9363 17.8177 18.08 17.982 18.1905 18.1793C18.2347 18.2341 18.2679 18.2889 18.29 18.3656Z" fill="#FBC205"></path><path d="M18.9089 17.3904C18.9089 17.3356 18.931 17.2918 18.9421 17.2479C19.0084 17.0726 19.1079 16.9082 19.2295 16.7658C19.3621 16.6124 19.5169 16.4918 19.6827 16.3932C19.8153 16.3165 19.959 16.2507 20.1027 16.2179C20.1358 16.2069 20.1469 16.2179 20.1469 16.2507C20.18 16.5466 20.0806 16.7767 19.8484 16.9521C19.7711 17.0069 19.6937 17.0507 19.6053 17.0836C19.4947 17.1274 19.3953 17.1822 19.2847 17.226C19.1632 17.2808 19.0416 17.3466 18.9089 17.3904Z" fill="#FBC205"></path><path d="M17.0963 16.3383C17.0963 16.3054 17.0963 16.2725 17.0963 16.2506C17.0963 16.2068 17.1073 16.2068 17.1405 16.2178C17.1958 16.2287 17.24 16.2506 17.2952 16.2616C17.4831 16.3273 17.6379 16.426 17.7926 16.5465C17.8589 16.5903 17.9142 16.6451 17.9695 16.6999C18.1353 16.8643 18.2679 17.0616 18.3342 17.2917C18.3342 17.3026 18.3453 17.3246 18.3453 17.3355C18.3453 17.3684 18.3342 17.3793 18.3011 17.3684C18.1684 17.3136 18.0358 17.2588 17.9142 17.204C17.7926 17.1492 17.6821 17.1054 17.5605 17.0506C17.3063 16.9301 17.1405 16.7328 17.0963 16.4588C17.0852 16.415 17.0963 16.3821 17.0963 16.3383Z" fill="#FBC205"></path><path d="M18.6105 16.3384C18.5221 16.3493 18.4779 16.2836 18.4337 16.2288C18.3895 16.1521 18.3673 16.0754 18.3563 15.9877C18.3452 15.911 18.3563 15.8343 18.3563 15.7686C18.3673 15.659 18.3895 15.5603 18.4226 15.4617C18.4558 15.3631 18.5 15.2754 18.5663 15.1987C18.5995 15.1549 18.6105 15.1439 18.6437 15.1987C18.7431 15.3412 18.8095 15.5056 18.8426 15.6809C18.8647 15.8233 18.8758 15.9658 18.8426 16.1083C18.8205 16.185 18.7874 16.2617 18.7321 16.3165C18.6879 16.3274 18.6768 16.3384 18.6105 16.3384Z" fill="#FBC205"></path><path d="M18.0358 14.0481C18.0358 13.9714 18.0358 13.8947 18.0358 13.818C18.0358 13.7851 18.0468 13.7742 18.08 13.7742C18.1242 13.7742 18.1684 13.7742 18.2126 13.7742C18.29 13.7742 18.3453 13.818 18.3674 13.8947C18.4005 14.0043 18.4005 14.1139 18.3674 14.2125C18.3453 14.2673 18.3121 14.3002 18.2458 14.3111C18.1905 14.3221 18.1352 14.3221 18.08 14.3221C18.0468 14.3221 18.0468 14.3111 18.0468 14.2783C18.0358 14.2125 18.0358 14.1248 18.0358 14.0481Z" fill="white"></path><path d="M19.0305 13.8508C19.0637 13.9385 19.0968 14.0371 19.13 14.1248C19.0526 14.1248 18.9863 14.1248 18.9089 14.1248C18.9421 14.0262 18.9753 13.9385 19.0084 13.8508C19.0195 13.8508 19.0195 13.8508 19.0305 13.8508Z" fill="#FDFEFE"></path><path d="M21.5396 17.456C21.5175 17.456 21.4954 17.4341 21.4843 17.4122C21.4843 17.3793 21.5064 17.3574 21.5285 17.3574C21.5506 17.3574 21.5727 17.3793 21.5838 17.4013C21.5838 17.4232 21.5727 17.4451 21.5396 17.456Z" fill="#EFF5F3"></path><path d="M21.9817 17.4342C21.9817 17.4561 21.9817 17.4781 21.9817 17.489C21.9817 17.5109 21.9707 17.5329 21.9375 17.5329C21.9154 17.5329 21.8933 17.5219 21.8933 17.5C21.8822 17.4561 21.8822 17.4123 21.8933 17.3794C21.9044 17.3575 21.9154 17.3466 21.9375 17.3466C21.9596 17.3466 21.9707 17.3575 21.9817 17.3794C21.9817 17.4014 21.9817 17.4233 21.9817 17.4342Z" fill="#F8FBFA"></path></svg>